<svg width="861" height="610" viewBox="0 0 861 610" fill="none" xmlns="http://www.w3.org/2000/svg">
<g clip-path="url(#clip0_2_1089)">
<path d="M51.4626 514.124L25.0855 491.802C28.102 473.907 35.4412 457.019 46.4659 442.604C47.3524 474.853 80.4082 496.451 91.7832 526.64C95.2589 536.083 96.5649 546.187 95.6047 556.204C94.6445 566.22 91.4427 575.892 86.2364 584.503L83.5827 608.866C69.1776 601.359 56.5711 590.819 46.6318 577.971C36.6925 565.123 29.6567 550.273 26.0091 534.445C24.0507 525.544 23.221 516.433 23.5394 507.325C37.0448 511.435 51.4626 514.124 51.4626 514.124Z" fill="#7AEBF1"/>
<path d="M790.854 556.821L809.275 527.585C827.416 528.073 845.164 532.982 860.977 541.885C829.168 547.267 812.397 583.014 784.092 598.494C775.227 603.254 765.404 605.958 755.352 606.406C745.3 606.854 735.275 605.034 726.022 601.081L701.527 601.856C706.948 586.544 715.625 572.589 726.959 560.953C738.293 549.317 752.015 540.276 767.179 534.454C775.719 531.272 784.625 529.178 793.688 528.222C791.504 542.168 790.854 556.821 790.854 556.821Z" fill="#F2F2F2"/>
<path d="M207.808 461.515L105.675 455.523L119.675 356.523L209.675 453.523L207.808 461.515Z" fill="#7AEBF1"/>
<path d="M194.808 562.515L90.8083 555.515L104.675 465.523L195.277 555.531L194.808 562.515Z" fill="#7AEBF1"/>
<path d="M775.79 144.897V53.4501C775.79 46.4997 774.421 39.6173 771.761 33.196C769.101 26.7746 765.203 20.94 760.288 16.0253C755.373 11.1106 749.539 7.21206 743.117 4.55225C736.696 1.89243 729.813 0.523438 722.863 0.523438H529.121C522.171 0.523436 515.288 1.89243 508.867 4.55225C502.446 7.21206 496.611 11.1106 491.696 16.0253C486.782 20.94 482.883 26.7746 480.223 33.196C477.563 39.6174 476.194 46.4997 476.194 53.4502V555.133C476.194 569.17 481.771 582.632 491.696 592.558C501.622 602.483 515.084 608.06 529.121 608.06H722.863C736.9 608.06 750.362 602.483 760.288 592.558C770.214 582.632 775.79 569.17 775.79 555.133V209.99C776.675 209.99 777.524 209.638 778.15 209.012C778.776 208.386 779.128 207.537 779.128 206.652V148.235C779.128 147.349 778.776 146.5 778.15 145.874C777.524 145.248 776.675 144.897 775.79 144.897Z" fill="#3F3D56"/>
<path d="M764.526 53.8134V554.772C764.527 565.177 760.422 575.163 753.103 582.56C745.784 589.956 735.842 594.166 725.437 594.274C725.294 594.289 725.149 594.295 725.005 594.292H530.32C519.839 594.291 509.787 590.127 502.376 582.716C494.964 575.305 490.8 565.253 490.799 554.771V53.8134C490.8 43.3321 494.964 33.2803 502.376 25.869C509.787 18.4576 519.839 14.2935 530.32 14.2925H553.946C552.785 17.1447 552.342 20.2387 552.657 23.3022C552.972 26.3656 554.035 29.3047 555.753 31.8608C557.471 34.4169 559.79 36.5117 562.508 37.9608C565.225 39.4099 568.257 40.1689 571.337 40.1711H682.33C685.407 40.1627 688.435 39.3993 691.148 37.9481C693.861 36.4968 696.177 34.402 697.892 31.8473C699.607 29.2927 700.669 26.3562 700.985 23.2955C701.3 20.2349 700.86 17.1435 699.703 14.2925H725.005C735.486 14.2934 745.538 18.4575 752.949 25.8689C760.361 33.2803 764.525 43.3321 764.526 53.8134Z" fill="white"/>
<path d="M721.663 582.063C721.663 587.253 721.5 592.4 721.173 597.503C721.03 597.52 720.887 597.527 720.743 597.523H526.063C517.255 597.523 508.699 594.581 501.753 589.164C494.807 583.747 489.869 576.166 487.723 567.623C487.347 566.132 487.063 564.62 486.873 563.093C486.652 561.406 486.541 559.705 486.543 558.003V334.753C501.523 335.494 516.404 337.596 531.003 341.033C532.433 341.363 533.853 341.713 535.263 342.073C535.353 342.093 535.443 342.123 535.533 342.143C536.963 342.503 538.383 342.883 539.793 343.273C569.889 351.539 598.14 365.449 623.043 384.263C624.473 385.333 625.893 386.433 627.303 387.543L627.573 387.753C629.933 389.613 632.256 391.52 634.543 393.473C635.053 393.903 635.563 394.343 636.063 394.793C637.293 395.853 638.523 396.933 639.723 398.023C666.278 421.926 687.359 451.282 701.523 484.083C701.993 485.153 702.443 486.233 702.893 487.313C703.073 487.753 703.253 488.193 703.433 488.633C703.603 489.033 703.763 489.433 703.923 489.833C715.679 519.16 721.701 550.469 721.663 582.063Z" fill="#3F3D56"/>
<path d="M477.265 196.056C476.07 196.054 474.925 195.579 474.081 194.734C473.236 193.89 472.761 192.745 472.76 191.55V160.914C472.76 159.719 473.234 158.573 474.079 157.728C474.924 156.883 476.07 156.408 477.265 156.408C478.46 156.408 479.606 156.883 480.451 157.728C481.296 158.573 481.77 159.719 481.77 160.914V191.55C481.769 192.745 481.294 193.89 480.449 194.734C479.605 195.579 478.459 196.054 477.265 196.056Z" fill="#3F3D56"/>
<path d="M476.364 136.585C475.169 136.583 474.024 136.108 473.18 135.264C472.335 134.419 471.86 133.274 471.859 132.079V101.443C471.859 100.248 472.333 99.1023 473.178 98.2573C474.023 97.4124 475.169 96.9377 476.364 96.9377C477.559 96.9377 478.705 97.4124 479.55 98.2573C480.395 99.1023 480.869 100.248 480.869 101.443V132.079C480.868 133.274 480.393 134.419 479.548 135.264C478.703 136.108 477.558 136.583 476.364 136.585Z" fill="#3F3D56"/>
<path d="M596.206 19.4458C596.207 18.2513 596.683 17.1062 597.527 16.2616C598.372 15.417 599.517 14.9418 600.711 14.9404H631.348C631.94 14.9396 632.527 15.0554 633.074 15.2815C633.621 15.5075 634.119 15.8392 634.538 16.2576C634.957 16.6761 635.289 17.1731 635.516 17.7201C635.743 18.2672 635.86 18.8536 635.86 19.4458C635.86 20.038 635.743 20.6244 635.516 21.1715C635.289 21.7185 634.957 22.2155 634.538 22.6339C634.119 23.0524 633.621 23.3841 633.074 23.6101C632.527 23.8361 631.94 23.952 631.348 23.9511H600.711C599.517 23.9497 598.372 23.4746 597.527 22.63C596.683 21.7854 596.207 20.6402 596.206 19.4458Z" fill="white"/>
<path d="M477.265 248.317C476.07 248.316 474.925 247.841 474.081 246.996C473.236 246.152 472.761 245.007 472.76 243.812V213.176C472.76 211.981 473.234 210.835 474.079 209.99C474.924 209.145 476.07 208.67 477.265 208.67C478.46 208.67 479.606 209.145 480.451 209.99C481.296 210.835 481.77 211.981 481.77 213.176V243.812C481.769 245.007 481.294 246.152 480.449 246.996C479.605 247.841 478.459 248.316 477.265 248.317Z" fill="#3F3D56"/>
<path d="M648.468 23.9511C650.956 23.9511 652.973 21.934 652.973 19.4458C652.973 16.9575 650.956 14.9404 648.468 14.9404C645.98 14.9404 643.963 16.9575 643.963 19.4458C643.963 21.934 645.98 23.9511 648.468 23.9511Z" fill="white"/>
<path opacity="0.2" d="M631.833 559.863C631.832 550.509 633.673 541.246 637.252 532.603C640.832 523.961 646.078 516.108 652.693 509.494C659.307 502.879 667.16 497.632 675.803 494.053C684.445 490.474 693.708 488.632 703.063 488.633H703.433C703.253 488.193 703.073 487.753 702.893 487.313C702.443 486.233 701.993 485.154 701.523 484.083H631.833V394.793H636.063C635.563 394.343 635.053 393.903 634.543 393.474C632.253 391.524 629.93 389.617 627.573 387.754L627.303 387.544V390.244H539.793V343.273C538.383 342.883 536.963 342.503 535.533 342.143C535.443 342.123 535.353 342.093 535.263 342.073V390.243H490.803V394.793H535.263V484.083H490.803V488.633H535.263V559.863H491.133C491.323 561.39 491.607 562.902 491.983 564.393H535.263V594.293H539.793V564.393H627.303V594.293H631.833V564.393H708.183V559.863H631.833ZM627.303 559.863H539.793V488.633H627.303V559.863ZM627.303 484.083H539.793V482.303C539.793 459.094 549.013 436.836 565.424 420.425C581.835 404.013 604.094 394.794 627.303 394.793V484.083Z" fill="black"/>
<path d="M239.263 233.313L190.693 606.933L190.383 609.313H188.363L188.673 606.933L237.283 233.053L239.263 233.313Z" fill="#7AEBF1"/>
<path d="M138.143 233.783L84.5834 606.973L84.2434 609.353H82.2234L82.5634 606.973L136.163 233.503L138.143 233.783Z" fill="#7AEBF1"/>
<path d="M314.783 609.263L312.703 609.273L312.063 606.893L208.453 222.043L210.383 221.523L314.133 606.893L314.783 609.263Z" fill="#3F3D56"/>
<path d="M310.395 221.509L308.472 222.054L417.657 607.205L419.581 606.66L310.395 221.509Z" fill="#3F3D56"/>
<path d="M398.74 536.542L299.733 557.025L300.138 558.984L399.145 538.501L398.74 536.542Z" fill="#3F3D56"/>
<path d="M381.574 476.463L282.567 496.945L282.973 498.904L381.979 478.422L381.574 476.463Z" fill="#3F3D56"/>
<path d="M364.421 416.381L266.105 435.408L266.485 437.371L364.801 418.344L364.421 416.381Z" fill="#3F3D56"/>
<path d="M347.254 356.313L251.079 375.318L251.467 377.28L347.641 358.275L347.254 356.313Z" fill="#3F3D56"/>
<path d="M136.453 233.714C134.949 223.889 137.409 213.87 143.293 205.859C149.177 197.848 158.002 192.503 167.827 190.999C177.652 189.495 187.672 191.955 195.683 197.839C203.693 203.723 209.039 212.548 210.543 222.373L208.566 222.676C207.863 218.069 206.259 213.645 203.847 209.658C201.434 205.671 198.259 202.198 194.503 199.439C190.748 196.679 186.486 194.686 181.96 193.574C177.434 192.462 172.734 192.253 168.127 192.958C163.52 193.663 159.098 195.269 155.112 197.684C151.126 200.099 147.655 203.275 144.897 207.032C142.139 210.789 140.148 215.052 139.039 219.578C137.929 224.105 137.722 228.805 138.429 233.412L136.453 233.714Z" fill="#3F3D56"/>
<path d="M236.614 234.162C235.804 229.306 235.958 224.339 237.068 219.543C238.178 214.747 240.222 210.217 243.083 206.212C245.944 202.206 249.566 198.803 253.743 196.198C257.919 193.592 262.568 191.835 267.424 191.027C272.279 190.218 277.247 190.374 282.042 191.486C286.837 192.597 291.367 194.642 295.371 197.505C299.376 200.367 302.778 203.99 305.382 208.168C307.986 212.345 309.742 216.994 310.549 221.85L308.576 222.178C307.026 212.901 301.856 204.619 294.201 199.152C286.547 193.686 277.035 191.483 267.757 193.029C258.478 194.574 250.194 199.74 244.723 207.392C239.253 215.044 237.046 224.555 238.586 233.834L236.614 234.162Z" fill="#3F3D56"/>
<path d="M339.949 315.773L320.73 362.528L383.349 362.074L376.981 315.669L339.949 315.773Z" fill="#FFB6B6"/>
<path d="M355.24 530.407L364.528 531.763L374.172 496.582L360.464 494.583L355.24 530.407Z" fill="#FFB6B6"/>
<path d="M353.605 525.49L368.415 526.755L367.498 533.046L380.05 544.723C380.67 545.299 381.09 546.059 381.247 546.891C381.405 547.723 381.293 548.584 380.927 549.347C380.56 550.111 379.96 550.737 379.213 551.135C378.465 551.533 377.61 551.682 376.772 551.56L359.293 549.01L357.187 542.348L355.103 548.399L348.513 547.437L353.605 525.49Z" fill="#2F2E41"/>
<path d="M247.902 504.424L255.312 510.186L281.062 484.347L270.126 475.844L247.902 504.424Z" fill="#FFB6B6"/>
<path d="M248.907 499.341L261.164 507.75L257.262 512.768L262.417 529.119C262.671 529.926 262.661 530.794 262.388 531.595C262.114 532.397 261.592 533.09 260.897 533.573C260.202 534.057 259.37 534.305 258.524 534.283C257.677 534.26 256.86 533.968 256.192 533.448L242.247 522.604L243.704 515.771L238.905 520.005L233.647 515.916L248.907 499.341Z" fill="#2F2E41"/>
<path d="M324.266 351.435L318.099 359.604L301.684 431.023L264.373 481.415L276.915 493.458L324.505 447.289L347.859 397.96L359.675 443.523L356.675 504.523L376.675 503.523C382.096 432.733 390.575 359.895 380.588 339.439C374.005 345.182 366.319 349.521 358.002 352.191C349.684 354.862 340.909 355.807 332.213 354.97L324.266 351.435Z" fill="#2F2E41"/>
<path d="M357.278 240.164L373.056 257.417C376.519 261.204 378.714 265.976 379.335 271.07C379.617 273.383 379.57 275.724 379.195 278.024L375.794 302.943L381.794 340.943C381.794 340.943 373.242 346.159 356.794 356.943C350.08 361.345 318.755 361.274 318.794 359.943C318.971 353.781 324.483 337.175 325.794 316.943C327.411 291.972 325.29 262.169 330.794 247.943C337.512 230.578 357.278 240.164 357.278 240.164Z" fill="#2F06FB"/>
<path d="M303.132 350.725C303.82 349.724 304.281 348.583 304.481 347.385C304.681 346.186 304.616 344.958 304.29 343.787C303.964 342.616 303.386 341.531 302.595 340.608C301.805 339.685 300.821 338.947 299.714 338.445L300.331 319.459L288.885 316.27L288.39 343.094C287.671 345.009 287.678 347.122 288.412 349.032C289.146 350.942 290.555 352.516 292.372 353.457C294.189 354.398 296.288 354.639 298.271 354.135C300.254 353.632 301.983 352.418 303.132 350.725Z" fill="#FFB6B6"/>
<path d="M287.864 274.082C288.202 273.198 288.719 272.393 289.385 271.719C290.05 271.045 290.847 270.516 291.727 270.166C297.819 267.607 324.158 246.084 325.128 246.488L333.49 242.361C333.798 242.365 342.035 242.559 346.076 247.141C346.916 248.109 347.536 249.246 347.895 250.476C348.254 251.706 348.342 252.999 348.154 254.266C346.971 265.178 309.632 289.689 305.675 289.523L301.483 320.505L303.115 332.342L287.845 332.775L283.14 315.348C282.464 314.077 281.612 290.003 287.864 274.082Z" fill="#2F06FB"/>
<path d="M349.081 257.533C350.317 249.062 345.559 241.355 338.454 240.319C331.35 239.282 324.589 245.309 323.353 253.78C322.117 262.251 326.875 269.958 333.98 270.994C341.084 272.031 347.845 266.004 349.081 257.533Z" fill="#2F06FB"/>
<path d="M234.302 312.916L233.915 310.954L326.793 289.943V291.943L234.302 312.916Z" fill="#3F3D56"/>
<path d="M645.473 171.593H609.852C602.168 171.593 595.939 177.822 595.939 185.506V185.506C595.939 193.19 602.168 199.419 609.852 199.419H645.473C653.157 199.419 659.386 193.19 659.386 185.506C659.386 177.822 653.157 171.593 645.473 171.593Z" fill="#E6E6E6"/>
<path d="M711.56 227.245H543.765C536.081 227.245 529.852 233.474 529.852 241.158V241.158C529.852 248.842 536.081 255.071 543.765 255.071H711.56C719.244 255.071 725.473 248.842 725.473 241.158C725.473 233.474 719.244 227.245 711.56 227.245Z" fill="#E6E6E6"/>
<path d="M639.56 268.897H471.765C464.081 268.897 457.852 275.127 457.852 282.81V282.81C457.852 290.494 464.081 296.723 471.765 296.723H639.56C647.244 296.723 653.473 290.494 653.473 282.81C653.473 275.127 647.244 268.897 639.56 268.897Z" fill="#2F06FB"/>
<path d="M860.74 607.863C860.741 608.02 860.711 608.175 860.651 608.319C860.591 608.464 860.504 608.595 860.393 608.706C860.282 608.816 860.151 608.904 860.006 608.964C859.862 609.023 859.707 609.054 859.55 609.053L266.86 609.263L264.78 609.273L142.46 609.313H140.44L36.3205 609.353H34.3005L1.80048 609.363C1.48487 609.363 1.18218 609.238 0.959015 609.015C0.735847 608.792 0.610474 608.489 0.610474 608.173C0.610474 607.858 0.735847 607.555 0.959015 607.332C1.18218 607.109 1.48487 606.983 1.80048 606.983L34.6405 606.973H36.6605L140.75 606.933H142.77L264.14 606.893H266.21L369.63 606.853H370.99L859.551 606.673C859.707 606.673 859.862 606.703 860.006 606.763C860.151 606.823 860.282 606.91 860.393 607.021C860.504 607.131 860.591 607.263 860.651 607.407C860.711 607.552 860.741 607.707 860.74 607.863Z" fill="#7AEBF1"/>
<path d="M373.974 222.935C370.988 226.9 366.742 229.731 361.933 230.96C357.124 232.19 352.04 231.745 347.517 229.699C342.995 227.653 339.304 224.128 337.053 219.704C334.802 215.281 334.124 210.222 335.132 205.362C336.139 200.502 338.772 196.129 342.597 192.965C346.421 189.801 351.209 188.034 356.172 187.955C361.135 187.875 365.977 189.488 369.901 192.528C373.824 195.569 376.596 199.854 377.758 204.68C377.821 204.942 377.874 205.202 377.926 205.472C378.54 208.497 378.505 211.617 377.824 214.627C377.142 217.638 375.83 220.469 373.974 222.935Z" fill="#FFB6B6"/>
<path d="M379.657 205.725C379.107 202.987 379.315 204.401 378.753 201.672C378.869 202.993 378.58 204.319 377.926 205.472L352.188 201.718L354.371 186.756C362.347 184.867 370.09 183.4 373.736 189.581C377.704 190.16 381.279 192.291 383.676 195.507C386.072 198.722 387.093 202.757 386.515 206.725L379.657 205.725Z" fill="#2F2E41"/>
<path d="M364.467 245.984C364.487 245.704 364.5 245.412 364.5 245.13C364.451 243.046 364.181 240.974 363.694 238.948C363.257 236.752 362.811 234.545 362.363 232.347C362.779 236.278 361.9 240.238 359.859 243.624C356.009 239.606 358.555 233.79 352.875 232.961C339.219 230.969 328.107 216.324 330.101 202.659C332.093 189.004 339.441 179.646 353.096 181.638C366.761 183.632 376.932 191.502 375.207 205.197C357.808 206.701 367.845 245.062 364.467 245.984Z" fill="#2F2E41"/>
<path d="M334.422 194.103C339.459 194.103 343.543 190.02 343.543 184.983C343.543 179.945 339.459 175.862 334.422 175.862C329.385 175.862 325.301 179.945 325.301 184.983C325.301 190.02 329.385 194.103 334.422 194.103Z" fill="#2F2E41"/>
<path d="M345.241 177.452C344.39 175.611 343.099 174.009 341.481 172.786C339.863 171.564 337.969 170.76 335.966 170.444C337.377 171.082 338.609 172.058 339.555 173.284C340.5 174.511 341.129 175.951 341.386 177.478C341.644 179.005 341.522 180.572 341.031 182.04C340.54 183.509 339.696 184.835 338.572 185.9L340.416 184.315C340.919 184.743 341.545 185 342.204 185.047C342.863 185.094 343.519 184.929 344.078 184.577C344.625 184.208 345.082 183.72 345.414 183.149C345.746 182.579 345.944 181.94 345.994 181.282C346.081 179.961 345.822 178.641 345.241 177.452Z" fill="#2F2E41"/>
<path d="M461.345 273.921C460.261 273.372 459.07 273.067 457.855 273.028C456.641 272.989 455.432 273.217 454.315 273.696C453.198 274.175 452.2 274.892 451.39 275.799C450.581 276.705 449.979 277.778 449.629 278.941L430.73 280.856L429.092 292.625L455.744 289.546C457.738 290.005 459.831 289.716 461.626 288.735C463.421 287.753 464.794 286.148 465.485 284.222C466.175 282.296 466.135 280.183 465.372 278.285C464.609 276.386 463.177 274.834 461.345 273.921Z" fill="#FFB6B6"/>
<path d="M387.416 299.25C386.494 299.033 385.627 298.627 384.87 298.057C384.114 297.488 383.484 296.767 383.02 295.942C379.673 290.245 354.837 267.004 355.109 265.988L349.906 258.25C349.868 257.944 348.966 249.754 352.969 245.14C353.816 244.179 354.861 243.412 356.032 242.893C357.204 242.374 358.473 242.114 359.755 242.132C370.727 241.853 398.312 276.58 398.675 280.523L431.614 279.575L443.128 276.383L445.589 291.46L428.943 298.442C427.773 299.28 404.027 303.328 387.416 299.25Z" fill="#2F06FB"/>
</g>
<defs>
<clipPath id="clip0_2_1089">
<rect width="860.367" height="608.84" fill="white" transform="translate(0.610352 0.523438)"/>
</clipPath>
</defs>
</svg>
