<svg width="699" height="610" viewBox="0 0 699 610" fill="none" xmlns="http://www.w3.org/2000/svg">
<g clip-path="url(#clip0_2_3331)">
<path d="M327.505 598.736C327.754 598.747 328.001 598.682 328.211 598.548C328.422 598.415 328.587 598.22 328.683 597.99C328.779 597.76 328.802 597.505 328.749 597.262C328.696 597.018 328.57 596.796 328.386 596.627L328.303 596.296L328.336 596.216C328.587 595.623 329.008 595.118 329.545 594.763C330.083 594.409 330.713 594.221 331.356 594.223C332 594.226 332.629 594.418 333.164 594.777C333.698 595.135 334.115 595.644 334.362 596.239C335.347 598.612 336.602 600.99 336.911 603.5C337.047 604.609 336.99 605.733 336.741 606.823C339.056 601.774 340.258 596.286 340.266 590.731C340.266 589.338 340.189 587.945 340.034 586.56C339.906 585.424 339.728 584.297 339.501 583.177C338.26 577.104 335.596 571.411 331.728 566.566C329.856 565.545 328.342 563.974 327.39 562.066C327.045 561.38 326.802 560.647 326.667 559.892C327.077 558.809 327.293 557.663 327.304 556.506C327.598 556.059 328.125 555.837 328.446 555.401C330.045 553.234 332.247 553.612 333.397 556.558C335.853 557.797 335.877 559.853 334.37 561.83C333.411 563.088 333.279 564.79 332.438 566.137C332.525 566.248 332.615 566.355 332.701 566.466C334.283 568.5 335.662 570.685 336.818 572.989C336.537 570.408 336.873 567.798 337.797 565.372C338.734 563.111 340.491 561.208 342.037 559.253C342.446 558.728 343.002 558.336 343.634 558.127C344.266 557.918 344.945 557.901 345.587 558.077C346.228 558.254 346.803 558.617 347.238 559.121C347.674 559.624 347.95 560.246 348.032 560.906L348.041 560.992C347.812 561.122 347.587 561.26 347.367 561.405C347.09 561.59 346.876 561.854 346.752 562.162C346.629 562.471 346.601 562.809 346.673 563.134C346.745 563.459 346.913 563.754 347.155 563.981C347.398 564.208 347.704 564.357 348.032 564.408L348.066 564.413C347.984 565.241 347.839 566.062 347.633 566.868C349.617 574.541 345.333 577.336 339.217 577.461C339.082 577.531 338.95 577.6 338.815 577.666C339.976 580.957 340.705 584.386 340.982 587.865C341.139 589.918 341.13 591.98 340.955 594.031L340.965 593.958C341.408 591.677 342.625 589.619 344.41 588.131C347.061 585.954 350.806 585.152 353.666 583.402C353.97 583.206 354.323 583.102 354.684 583.101C355.046 583.1 355.399 583.203 355.704 583.397C356.009 583.59 356.252 583.867 356.405 584.194C356.558 584.522 356.614 584.886 356.566 585.244L356.555 585.32C356.128 585.494 355.713 585.694 355.312 585.919C355.082 586.049 354.857 586.186 354.637 586.332C354.361 586.517 354.147 586.78 354.023 587.089C353.899 587.397 353.871 587.736 353.943 588.061C354.015 588.385 354.183 588.681 354.426 588.908C354.668 589.135 354.974 589.284 355.302 589.335L355.336 589.34L355.405 589.35C354.677 591.089 353.654 592.69 352.383 594.083C351.142 600.781 345.813 601.417 340.113 599.466H340.11C339.484 602.184 338.578 604.829 337.406 607.36H327.747C327.712 607.252 327.681 607.142 327.65 607.034C328.544 607.09 329.442 607.037 330.323 606.875C329.606 605.996 328.889 605.109 328.173 604.23C328.157 604.214 328.142 604.196 328.128 604.178C327.764 603.728 327.397 603.281 327.034 602.831C327.014 601.452 327.173 600.075 327.505 598.736Z" fill="#2C6F7C"/>
<path d="M86.8402 598.736C86.591 598.747 86.3444 598.682 86.1337 598.548C85.923 598.415 85.7583 598.22 85.6621 597.99C85.5659 597.76 85.5427 597.505 85.5958 597.262C85.6488 597.018 85.7755 596.796 85.9586 596.627L86.042 596.296L86.0089 596.216C85.7579 595.623 85.3373 595.118 84.7999 594.763C84.2626 594.409 83.6324 594.221 82.9886 594.223C82.3448 594.226 81.7161 594.418 81.1814 594.777C80.6467 595.135 80.2299 595.644 79.9833 596.239C78.9978 598.612 77.7431 600.99 77.4341 603.5C77.2981 604.609 77.3555 605.733 77.6038 606.823C75.2891 601.774 74.0872 596.286 74.0794 590.731C74.0789 589.338 74.1564 587.945 74.3114 586.56C74.4395 585.424 74.6172 584.297 74.8446 583.177C76.0852 577.104 78.7489 571.411 82.6169 566.566C84.489 565.545 86.0029 563.974 86.9548 562.066C87.2996 561.38 87.5433 560.647 87.6784 559.892C87.2681 558.809 87.0525 557.663 87.0414 556.506C86.7471 556.059 86.2203 555.837 85.8989 555.401C84.3003 553.234 82.0979 553.612 80.9481 556.558C78.492 557.797 78.4682 559.853 79.9753 561.83C80.9341 563.088 81.0659 564.79 81.9072 566.137C81.8206 566.248 81.7306 566.355 81.644 566.466C80.0619 568.5 78.6829 570.685 77.5269 572.989C77.808 570.408 77.4725 567.798 76.5479 565.372C75.6108 563.111 73.8544 561.208 72.3078 559.253C71.8987 558.728 71.3431 558.336 70.7114 558.127C70.0796 557.918 69.3999 557.901 68.7583 558.078C68.1167 558.254 67.542 558.617 67.1067 559.121C66.6715 559.624 66.3952 560.246 66.3129 560.906L66.3037 560.992C66.5334 561.122 66.7583 561.26 66.9783 561.405C67.2547 561.59 67.4689 561.854 67.5928 562.162C67.7166 562.471 67.7444 562.809 67.6725 563.134C67.6006 563.459 67.4324 563.754 67.1898 563.981C66.9472 564.208 66.6416 564.357 66.3131 564.408L66.2795 564.413C66.3613 565.241 66.506 566.062 66.7122 566.868C64.728 574.541 69.0118 577.336 75.1284 577.461C75.2634 577.531 75.395 577.6 75.53 577.666C74.3686 580.957 73.6401 584.386 73.3628 587.865C73.2058 589.918 73.2151 591.98 73.3905 594.031L73.3801 593.958C72.9369 591.677 71.7202 589.619 69.9353 588.131C67.2844 585.954 63.5392 585.152 60.6793 583.402C60.3754 583.206 60.022 583.102 59.6608 583.101C59.2996 583.1 58.9457 583.203 58.6409 583.397C58.336 583.59 58.0928 583.867 57.9401 584.194C57.7874 584.522 57.7314 584.886 57.7789 585.244L57.7906 585.32C58.2169 585.494 58.632 585.694 59.0334 585.919C59.2632 586.049 59.4881 586.186 59.7081 586.332C59.9845 586.517 60.1986 586.78 60.3225 587.089C60.4464 587.397 60.4742 587.736 60.4023 588.061C60.3304 588.385 60.1621 588.681 59.9195 588.908C59.677 589.135 59.3714 589.284 59.0428 589.335L59.0092 589.34L58.94 589.35C59.6684 591.089 60.6908 592.69 61.9623 594.083C63.203 600.781 68.5317 601.417 74.2318 599.466H74.2353C74.8607 602.184 75.7668 604.829 76.9391 607.36H86.5982C86.6329 607.252 86.664 607.142 86.6952 607.034C85.8012 607.09 84.9036 607.037 84.0225 606.875C84.7392 605.996 85.4558 605.109 86.1724 604.23C86.1884 604.214 86.2035 604.196 86.2175 604.178C86.581 603.728 86.9479 603.281 87.3114 602.831C87.3308 601.452 87.1723 600.075 86.8402 598.736Z" fill="#258495"/>
<path d="M232.822 79.7274C234.776 75.7929 237.9 72.5262 239.81 68.5703C241.721 64.6144 242.093 59.3197 238.91 56.2919C236.207 53.7209 231.974 53.6849 228.741 51.8226C220.507 47.0782 220.517 32.0089 211.103 30.7068C206.526 30.0736 202.384 33.5065 199.617 37.2078C196.85 40.9092 194.646 45.2282 190.809 47.8033C186.465 50.7184 180.849 50.8452 176.026 52.87C166.778 56.7521 161.93 66.7345 157.876 75.9084C155.264 81.8182 152.593 88.1925 153.804 94.5391C151.171 96.1779 152.344 100.586 154.973 102.232C157.603 103.879 160.904 103.842 163.923 104.555C170.268 106.054 175.463 111.105 177.926 117.141C179.846 121.846 180.239 127.012 180.609 132.08C181.252 140.874 181.894 149.668 182.537 158.462C182.823 162.374 183.198 166.532 185.58 169.649C187.961 172.766 193.118 174.073 195.795 171.205C198.353 168.465 197.201 164.127 197.149 160.378C197.097 156.629 200.486 151.961 203.681 153.923L204.808 151.366C212.106 148.753 218.497 144.092 223.214 137.941C227.932 131.79 230.778 124.41 231.41 116.684C232.227 104.24 227.275 90.8966 232.822 79.7274Z" fill="#D1D0DE"/>
<path d="M240.28 158.639C240.985 157.975 241.485 157.123 241.722 156.183C241.958 155.244 241.921 154.256 241.615 153.337C241.309 152.418 240.746 151.606 239.993 150.997C239.24 150.387 238.329 150.005 237.366 149.896L237.378 150.319C236.005 151.121 234.438 151.533 232.848 151.51C231.263 151.485 229.686 151.734 228.186 152.248C227.441 152.519 226.795 153.009 226.334 153.655C225.872 154.3 225.617 155.07 225.601 155.863C225.688 156.471 225.921 157.049 226.279 157.548C226.637 158.046 227.111 158.451 227.659 158.728C228.759 159.271 229.941 159.629 231.158 159.791C234.292 160.38 237.96 160.827 240.28 158.639Z" fill="#E6E6E6"/>
<path d="M301.397 79.9357C302.71 79.0429 303.824 77.8889 304.67 76.5459C305.081 75.8663 305.276 75.0786 305.23 74.2862C305.185 73.4937 304.901 72.7336 304.415 72.1055C303.427 71.2481 302.155 70.7887 300.847 70.8166C297.295 70.5514 293.725 70.9723 290.332 72.0565C293.816 75.1431 297.3 78.2297 300.784 81.3164L301.397 79.9357Z" fill="#E6E6E6"/>
<path d="M283.974 87.9634C285.382 89.5177 284.933 91.9286 284.535 93.9878C284.136 96.0469 284.085 98.6199 285.856 99.7433C287.391 100.717 289.546 99.9224 290.668 98.4928C291.672 96.9681 292.284 95.2189 292.449 93.4009C293 90.7587 293.25 88.0623 293.192 85.3637C293.125 82.6449 292.166 80.0235 290.462 77.9038C289.253 76.5252 287.643 75.5597 285.857 75.1425C284.071 74.7253 282.2 74.8774 280.505 75.5775L282.124 75.4977C280.947 77.0085 280.055 78.7207 279.49 80.5508C279.22 81.4701 279.201 82.4451 279.435 83.3743C279.669 84.3036 280.148 85.1532 280.821 85.835C281.781 86.6706 283.119 87.0201 283.974 87.9634Z" fill="#E6E6E6"/>
<path d="M363.394 61.8957L363.681 61.0094C362.477 61.7057 361.55 62.7943 361.053 64.093C360.556 65.3916 360.52 66.8216 360.952 68.1434C361.878 67.4132 362.592 66.4493 363.021 65.3511C363.45 64.2529 363.579 63.0601 363.394 61.8957Z" fill="#E6E6E6"/>
<path d="M347.748 74.5813C349.281 73.7135 350.589 72.4986 351.567 71.0341C352.546 69.5697 353.168 67.8964 353.383 66.1483C353.549 65.0614 353.423 63.9499 353.018 62.9277C352.81 62.4202 352.48 61.9719 352.057 61.6227C351.634 61.2735 351.132 61.0342 350.594 60.9261L349.939 61.9578C348.998 61.1488 347.42 61.9808 347.024 63.1564C346.769 64.377 346.875 65.6455 347.329 66.8068C347.782 67.9752 347.762 69.2743 347.272 70.4277C346.743 71.106 346.149 71.7303 345.498 72.2914C345.179 72.5811 344.971 72.9724 344.91 73.3984C344.848 73.8244 344.936 74.2586 345.159 74.6268C345.776 75.3315 346.93 75.0357 347.748 74.5813Z" fill="#E6E6E6"/>
<path d="M341.078 68.8178C341.639 67.8081 341.904 66.6605 341.842 65.5071L340.408 65.0575C339.492 65.429 338.679 66.0168 338.04 66.7707C337.845 66.9655 337.697 67.2008 337.604 67.4597C337.511 67.7187 337.477 67.995 337.504 68.2688C337.531 68.5425 337.617 68.807 337.758 69.0433C337.899 69.2795 338.09 69.4818 338.318 69.6355C338.547 69.7891 338.806 69.8905 339.078 69.9323C339.35 69.974 339.627 69.9552 339.891 69.877C340.155 69.7989 340.398 69.6634 340.603 69.4803C340.808 69.2972 340.971 69.0709 341.078 68.8178Z" fill="#E6E6E6"/>
<path d="M411.144 61.5633C411.274 61.6718 411.403 61.7835 411.532 61.893C411.646 61.869 411.755 61.8259 411.872 61.8117L411.144 61.5633Z" fill="#E6E6E6"/>
<path d="M408.847 74.1439C410.163 73.0792 411.479 72.0146 412.795 70.9499C413.494 70.4552 414.09 69.8287 414.549 69.1057C414.863 68.4212 414.999 67.6684 414.943 66.9174C414.887 66.1665 414.643 65.4418 414.231 64.811C413.503 63.6928 412.59 62.7062 411.532 61.893C410.37 62.1681 409.349 62.8599 408.662 63.8374C407.976 64.8149 407.672 66.0102 407.807 67.197C408.045 68.7065 408.993 70.3208 408.219 71.6385C407.918 72.1516 407.4 72.5009 407.052 72.9841C406.705 73.4672 406.592 74.2367 407.07 74.5919C407.599 74.9864 408.333 74.5594 408.847 74.1439Z" fill="#E6E6E6"/>
<path d="M411.725 80.6613C412.214 80.6876 412.704 80.6082 413.16 80.4287C413.616 80.2492 414.028 79.9737 414.368 79.621C416.128 78.1794 417.667 76.4884 418.937 74.6016C415.976 75.5396 413.014 76.4776 410.053 77.4156L410.976 78.4952C410.156 79.0304 410.763 80.4771 411.725 80.6613Z" fill="#E6E6E6"/>
<path d="M420.025 86.7567C420.206 87.2185 420.533 87.6085 420.956 87.8669C421.379 88.1254 421.876 88.2381 422.369 88.1878C422.86 88.1223 423.331 87.9499 423.749 87.6826C424.166 87.4154 424.52 87.0598 424.785 86.641C425.235 85.9773 425.5 85.2053 425.552 84.4049C425.604 83.6046 425.441 82.8049 425.08 82.0887C424.719 81.3724 424.173 80.7656 423.499 80.3309C422.825 79.8963 422.047 79.6496 421.246 79.6164L422.063 80.8655C422.272 82.9977 419.373 84.7159 420.025 86.7567Z" fill="#E6E6E6"/>
<path d="M477.538 110.109C478.339 110.707 479.312 111.029 480.311 111.026C481.31 111.024 482.282 110.697 483.08 110.096C483.597 109.654 484.018 109.11 484.315 108.498C484.613 107.886 484.781 107.219 484.808 106.539C484.836 105.859 484.723 105.181 484.476 104.546C484.23 103.912 483.855 103.336 483.375 102.853L481.863 103.697C481.024 103.158 480.009 102.966 479.031 103.16C478.053 103.354 477.188 103.92 476.619 104.739C476.108 105.597 475.921 106.609 476.089 107.593C476.257 108.578 476.771 109.47 477.538 110.109Z" fill="#E6E6E6"/>
<path d="M495.125 112.1C495.862 111.886 496.531 111.487 497.069 110.941C497.607 110.394 497.996 109.718 498.198 108.978L495.258 108.592C494.44 107.974 493.488 107.558 492.479 107.378C491.973 107.302 491.456 107.403 491.016 107.662C490.575 107.922 490.237 108.325 490.058 108.805C489.995 109.212 490.038 109.629 490.183 110.016C490.327 110.402 490.568 110.745 490.882 111.012C491.437 111.542 492.119 111.92 492.862 112.11C493.605 112.301 494.384 112.297 495.125 112.1Z" fill="#E6E6E6"/>
<path d="M482.983 117.979C483.035 118.457 483.222 118.911 483.522 119.287C483.822 119.663 484.223 119.946 484.678 120.103C485.175 120.338 485.731 120.419 486.275 120.335C486.818 120.251 487.324 120.005 487.726 119.63C487.904 119.43 488.031 119.19 488.097 118.931C488.164 118.671 488.167 118.4 488.107 118.139C488.048 117.878 487.926 117.635 487.754 117.43C487.581 117.225 487.363 117.064 487.116 116.961L484.911 116.56C484.059 116.119 482.969 117.019 482.983 117.979Z" fill="#E6E6E6"/>
<path d="M355.04 133.483L353.334 131.925C353.788 132.558 354.369 133.088 355.04 133.483Z" fill="#E6E6E6"/>
<path d="M342.005 124.307C343.055 129.186 348.311 133.161 353.082 131.695L353.334 131.925C351.815 129.846 351.557 126.77 351.912 124.095C352.57 119.511 354.372 115.166 357.152 111.463C359.932 107.759 363.6 104.815 367.818 102.902C368.973 102.541 370.006 101.868 370.803 100.957C371.483 99.9629 371.229 98.2578 370.057 97.9769C369.421 97.9042 368.779 98.0528 368.239 98.3979L359.373 102.762C354.894 104.966 350.327 107.233 346.809 110.774C343.292 114.315 340.954 119.427 342.005 124.307Z" fill="#E6E6E6"/>
<path d="M198.883 292.089C190.623 286.175 181.574 281.447 172.003 278.042C166.119 275.95 159.798 274.355 153.668 275.542C150.306 276.237 147.156 277.716 144.473 279.858C141.791 281.999 139.651 284.743 138.228 287.867C136.857 291.014 136.212 294.429 136.342 297.858C136.471 301.288 137.371 304.645 138.975 307.679C141.802 312.976 146.697 317.195 148.333 322.972C149.437 326.866 148.914 331.013 148.383 335.026C147.298 343.226 146.212 351.426 145.127 359.627C144.139 367.093 143.176 374.862 145.54 382.013C147.904 389.164 154.649 395.467 162.142 394.707L163.627 394.596C158.671 391.225 157.281 384.248 158.757 378.438C160.233 372.629 163.979 367.703 167.636 362.954C178.488 348.861 189.341 334.769 200.194 320.677C204.585 314.975 209.229 307.928 206.888 301.123C205.557 297.255 202.209 294.471 198.883 292.089Z" fill="#F7F6FF"/>
<path d="M124.923 256.464C123.823 256.092 122.662 256.919 122.016 257.883C121.494 258.919 120.88 259.905 120.182 260.831C118.492 262.574 115.411 262.228 113.588 260.624C111.764 259.021 110.974 256.542 110.62 254.14C110.196 251.257 110.379 248.042 112.281 245.836C114.239 243.564 117.458 242.955 120.419 242.483C123.479 241.996 126.906 241.589 129.412 243.41C130.991 244.557 131.911 246.407 133.374 247.699C134.836 248.991 137.437 249.48 138.538 247.869C138.826 247.298 138.972 246.666 138.962 246.026C138.953 245.386 138.789 244.759 138.485 244.196C137.866 243.075 137.494 241.836 137.393 240.559C137.467 238.788 138.889 237.381 140.344 236.368C141.8 235.356 143.443 234.483 144.398 232.989C145.572 231.152 145.447 228.785 146.176 226.73C147.939 221.756 154.231 219.543 156.064 214.594C156.506 213.553 156.555 212.388 156.204 211.313C155.437 209.342 153.363 209.729 153.236 207.319C153.114 205.014 155.036 202.755 156.99 201.792C159.683 200.465 162.823 200.573 165.824 200.492C168.825 200.411 172.059 200.012 174.261 197.972C174.974 197.237 175.524 196.36 175.874 195.398C176.225 194.436 176.368 193.411 176.295 192.39C176.222 191.369 175.934 190.374 175.451 189.472C174.967 188.57 174.298 187.78 173.488 187.154C171.847 186.02 169.772 185.626 168.175 184.431C166.186 182.943 165.244 180.464 163.695 178.521C162.406 177.043 160.932 175.737 159.308 174.637C157.978 173.65 156.649 172.664 155.32 171.678C152.917 169.894 150.416 168.066 147.492 167.431C144.568 166.795 141.085 167.694 139.621 170.304C139.043 171.467 138.728 172.743 138.697 174.041C138.563 177.097 138.691 180.16 139.078 183.195C139.319 185.637 139.561 188.08 139.802 190.523C140.018 192.713 139.786 195.601 137.66 196.169C132.944 197.43 134.535 190.456 133.489 188.32C131.888 185.05 124.532 183.48 121.388 182.117C119.424 181.266 117.351 180.326 116.165 178.545C114.689 176.327 114.992 173.308 116.149 170.909C117.307 168.509 119.193 166.556 120.906 164.516C122.652 162.437 124.242 160.232 125.831 158.029C127.673 155.474 129.515 152.92 131.357 150.365C133.72 147.089 136.204 143.09 134.862 139.28C134.571 138.771 134.136 138.358 133.612 138.094C133.088 137.831 132.497 137.727 131.915 137.798C131.332 137.868 130.783 138.108 130.337 138.489C129.89 138.87 129.566 139.374 129.404 139.938C128.816 141.995 130.385 144.621 128.884 146.146C128.37 146.56 127.727 146.78 127.066 146.768C126.406 146.755 125.771 146.511 125.273 146.078C124.301 145.18 123.56 144.06 123.115 142.814C121.296 138.773 119.524 134.706 117.657 130.686C117.067 129.415 116.451 127.24 114.663 127.454C113.11 127.64 112.271 129.902 112.325 131.216C112.404 133.127 113.46 134.835 114.268 136.569C115.075 138.303 115.64 140.386 114.753 142.081C113.631 144.227 110.788 144.709 108.367 144.638C103.804 144.5 99.3324 143.32 95.295 141.189C95.1896 143.432 95.0841 145.675 94.9786 147.918C91.7652 146.573 88.5518 145.228 85.3384 143.883C84.7144 143.621 84.0903 143.36 83.4661 143.099C80.7555 141.964 78.0415 140.829 75.251 139.908C73.6669 139.385 72.0607 138.932 70.455 138.479C69.479 138.204 68.5029 137.929 67.5269 137.654C65.6009 136.971 63.5581 136.68 61.5181 136.797C59.3748 137.066 57.4632 138.217 55.481 139.078C51.0586 140.997 45.3387 139.066 40.5995 139.032C38.7197 136.288 36.1818 134.058 33.2179 132.548C30.2541 131.038 26.9588 130.295 23.6336 130.387C20.3084 130.479 17.0594 131.403 14.1837 133.075C11.308 134.747 8.89744 137.114 7.17245 139.958C6.33924 141.399 5.59722 142.891 4.95077 144.425C4.30776 145.866 3.66474 147.307 3.0217 148.748C2.0784 150.862 1.11429 153.089 1.2997 155.397C1.48511 157.704 3.25397 160.061 5.56869 160.04C0.110384 162.511 -1.02542 171.158 3.60959 174.955C4.89304 176.007 6.46689 176.694 7.62186 177.885C8.49479 178.786 9.07879 179.926 9.29892 181.161C9.51905 182.395 9.36525 183.667 8.85727 184.814C8.34929 185.96 7.51029 186.929 6.44797 187.595C5.38564 188.262 4.14846 188.595 2.89517 188.553C6.12887 189.803 9.69079 189.919 12.9991 188.883C16.3074 187.847 19.1665 185.719 21.1094 182.848C23.091 179.745 23.9523 175.869 26.648 173.362C30.2181 170.042 36.115 170.299 40.2326 172.91C44.3502 175.521 46.955 179.967 48.7468 184.501C51.0948 190.443 52.5975 197.233 57.5998 201.208C60.0186 203.13 63.0817 204.211 65.2195 206.441C68.264 209.617 68.7908 214.41 68.7221 218.809C68.6534 223.208 68.1797 227.772 69.7821 231.869C71.3845 235.966 75.9784 239.336 80.0978 237.792C78.9177 241.293 78.9539 245.09 80.2005 248.568C81.4471 252.047 83.8312 255.002 86.9667 256.957C86.2162 252.302 85.4658 247.647 84.7153 242.992C88.4559 244.045 90.8803 247.673 92.2805 251.298C93.6806 254.923 94.4205 258.843 96.45 262.157C99.6459 267.375 105.433 269.624 111.321 269.604C117.68 269.583 120.095 266.55 124.286 262.084C125.128 261.323 125.767 260.363 126.146 259.292C126.317 258.753 126.287 258.169 126.063 257.65C125.838 257.13 125.433 256.709 124.923 256.464Z" fill="#F7F6FF"/>
<path d="M142.931 256.232C139.376 255.674 135.821 255.115 132.267 254.556C134.13 255.677 135.994 256.797 137.857 257.917C139.411 258.951 141.101 259.766 142.878 260.336C143.769 260.617 144.709 260.711 145.638 260.613C146.567 260.515 147.466 260.227 148.28 259.768L147.825 258.898C147.108 257.085 144.857 256.535 142.931 256.232Z" fill="#E6E6E6"/>
<path d="M140.516 275.992L140.54 275.931C140.325 275.574 140.009 275.29 139.631 275.115C139.253 274.94 138.832 274.882 138.421 274.948C137.602 275.095 136.765 275.108 135.941 274.989C135.419 274.784 134.952 274.457 134.581 274.036C134.211 273.614 133.946 273.11 133.81 272.566C133.456 271.503 133.352 270.365 132.95 269.32C132.659 268.493 132.146 267.762 131.466 267.208C130.787 266.654 129.968 266.298 129.1 266.179C128.228 266.109 127.364 266.385 126.694 266.947C126.025 267.509 125.603 268.312 125.521 269.183C125.589 270.079 125.874 270.945 126.351 271.707C126.734 272.445 127.118 273.182 127.501 273.92C127.824 274.581 128.196 275.217 128.613 275.823C129.292 276.758 130.18 277.522 131.205 278.054C132.231 278.586 133.367 278.872 134.522 278.889C135.677 278.905 136.821 278.652 137.861 278.149C138.902 277.646 139.811 276.908 140.516 275.992Z" fill="#E6E6E6"/>
<path d="M119.754 86.8176C122.461 88.4134 125.851 89.5132 127.137 92.3802L127.879 92.6199C127.07 93.6256 126.261 94.6313 125.451 95.6369C124.451 96.8797 123.399 98.2645 123.423 99.8596C123.455 102.056 125.568 103.714 127.703 104.232C129.982 104.7 132.353 104.306 134.357 103.125C136.361 101.944 137.855 100.06 138.548 97.8395C138.802 96.9134 138.907 95.9529 139.129 95.0189C139.778 92.8036 140.758 90.699 142.035 88.7761C149.223 76.6834 156.411 64.5907 163.599 52.4981C164.494 50.9921 165.417 49.1905 164.744 47.5731C164.384 46.8889 163.829 46.328 163.148 45.9626C162.467 45.5972 161.692 45.4441 160.923 45.5229C159.389 45.7093 157.909 46.207 156.574 46.9855C155.981 45.9438 155.144 45.0616 154.135 44.4146C153.126 43.7677 151.975 43.3753 150.781 43.2712C148.393 43.087 145.991 43.2962 143.671 43.8905C138.43 44.6814 133.375 46.4177 128.754 49.0149C126.226 50.2929 123.444 51.8711 122.711 54.6072C121.809 57.9728 124.716 61.403 128.064 62.3702C131.411 63.3375 134.984 62.5252 138.372 61.711C138.755 63.3534 138.596 65.0757 137.917 66.6197C137.239 68.1637 136.079 69.4464 134.61 70.2754C133.141 71.1044 131.444 71.4351 129.771 71.218C128.099 71.0008 126.542 70.2475 125.334 69.071C122.905 66.7063 121.716 62.6012 118.381 61.9909C115.058 61.3826 112.416 64.9276 111.682 68.2259C110.965 71.7784 111.354 75.4656 112.797 78.79C114.241 82.1144 116.669 84.9162 119.754 86.8176Z" fill="#F7F6FF"/>
<path d="M161.443 145.005C159.842 140.494 157.739 136.177 155.172 132.136C153.226 128.942 150.825 126.048 148.043 123.546C145.501 121.351 142.58 119.64 139.422 118.496C136.357 117.388 132.944 116.84 129.846 117.851C126.747 118.861 124.111 121.742 124.174 125.001C124.243 128.604 127.396 131.422 130.681 132.903C133.967 134.383 137.622 135.028 140.722 136.866C142.83 138.144 144.591 139.92 145.851 142.039C147.112 144.157 147.832 146.553 147.95 149.015L148.731 150.306C146.962 150.892 145.312 151.79 143.86 152.958C143.141 153.551 142.591 154.324 142.267 155.198C141.942 156.072 141.853 157.016 142.011 157.935C142.552 160.117 144.78 161.369 146.795 162.367C150.517 164.21 154.239 166.054 157.962 167.898C156.066 162.246 162.272 156.987 162.615 151.036C162.628 148.968 162.23 146.918 161.443 145.005Z" fill="#E6E6E6"/>
<path d="M67.8454 129.747C70.1034 131.5 73.5752 130.68 75.6438 128.706C77.7124 126.733 78.72 123.925 79.6595 121.224C79.3164 123.897 79.3489 126.605 79.7561 129.268C79.9682 130.6 80.4544 131.874 81.1842 133.008C81.9139 134.142 82.8711 135.113 83.9953 135.858C85.0161 136.418 86.1164 136.818 87.2582 137.046C92.566 138.254 98.113 137.857 103.195 135.907L103.241 134.169C100.688 134.46 98.7556 131.66 98.5871 129.096C98.4185 126.532 99.3491 124.017 99.4309 121.449C99.5127 118.881 98.2749 115.88 95.7462 115.423C96.1888 116.312 96.3502 117.315 96.2089 118.297C96.0677 119.28 95.6305 120.197 94.9555 120.925C94.2805 121.653 93.3997 122.159 92.4303 122.374C91.461 122.589 90.4491 122.504 89.5292 122.13C86.6023 120.94 85.539 117.375 83.2771 115.169C81.8795 113.925 80.1456 113.123 78.2933 112.863C76.4411 112.602 74.5531 112.895 72.8668 113.704C71.2019 114.554 69.7414 115.755 68.586 117.224C67.4307 118.693 66.6081 120.396 66.1751 122.214C65.4882 124.852 65.6921 128.074 67.8454 129.747Z" fill="#E6E6E6"/>
<path d="M137.535 111.446L137.639 111.276C137.009 109.456 135.055 108.389 133.148 108.118C131.225 107.991 129.295 108.055 127.385 108.308C125.457 108.558 123.503 108.127 121.858 107.091C120.545 106.11 119.797 104.565 118.748 103.306C117.698 102.047 116 101.012 114.475 101.614C112.825 102.266 112.384 104.579 113.185 106.163C114.129 107.683 115.552 108.844 117.23 109.464C123.585 112.381 130.736 113.079 137.535 111.446Z" fill="#E6E6E6"/>
<path d="M115.843 116.903C115.315 117.289 114.957 117.865 114.844 118.51C114.731 119.154 114.872 119.818 115.236 120.361C115.601 120.904 116.162 121.285 116.801 121.424C117.441 121.564 118.109 121.45 118.667 121.108L119.224 121.658C119.965 120.331 120.27 118.555 119.323 117.367C118.902 116.875 118.314 116.555 117.672 116.469C117.029 116.384 116.378 116.538 115.843 116.903Z" fill="#E6E6E6"/>
<path d="M109.326 121.661C109.335 121.187 109.199 120.721 108.938 120.326C108.676 119.931 108.302 119.624 107.862 119.446C107.564 119.394 107.257 119.404 106.962 119.474C106.667 119.544 106.389 119.674 106.146 119.854C105.902 120.034 105.697 120.262 105.544 120.524C105.39 120.786 105.292 121.076 105.253 121.376C105.207 121.989 105.288 122.605 105.49 123.185C105.692 123.766 106.011 124.299 106.428 124.751C106.67 125.115 106.987 125.423 107.357 125.656C107.727 125.888 108.143 126.04 108.576 126.1C109.449 126.129 110.338 125.216 109.984 124.418L108.652 124.392C109.063 123.538 109.292 122.608 109.326 121.661Z" fill="#E6E6E6"/>
<path d="M83.2675 108.014C83.7569 108.41 84.2463 108.807 84.7357 109.204C85.5834 109.936 86.4991 110.587 87.4704 111.145C89.1692 112.086 91.1672 112.331 93.0429 111.827C93.9689 111.563 94.8136 111.07 95.499 110.394C96.1844 109.718 96.6885 108.88 96.9649 107.957C97.55 105.752 96.5955 103.463 95.6615 101.382C95.4482 100.786 95.0965 100.25 94.6352 99.817C94.3989 99.6077 94.0974 99.4865 93.7819 99.4742C93.4664 99.4618 93.1564 99.5589 92.9044 99.749C92.7216 99.9766 92.6 100.247 92.5513 100.535C92.5025 100.823 92.5282 101.118 92.6257 101.393C92.8266 101.942 92.9183 102.524 92.896 103.107C92.8029 103.683 92.1988 104.227 91.6667 103.989L91.582 105.948C89.041 104.662 87.6972 101.24 84.8693 100.903C84.2346 100.827 83.5913 100.927 83.0096 101.192C82.4279 101.457 81.9301 101.876 81.5705 102.405C81.2109 102.933 81.0033 103.55 80.9704 104.189C80.9376 104.827 81.0806 105.462 81.384 106.025C81.8749 106.805 82.515 107.481 83.2675 108.014Z" fill="#E6E6E6"/>
<path d="M77.2153 99.5566C77.8031 99.1536 78.2681 98.5961 78.5592 97.9456C78.8503 97.2951 78.9561 96.5768 78.865 95.87C78.7946 95.5276 78.6497 95.205 78.4405 94.925C78.2313 94.645 77.963 94.4145 77.6547 94.25C77.3463 94.0854 77.0055 93.9908 76.6565 93.9729C76.3074 93.955 75.9588 94.0142 75.6352 94.1463C74.9092 94.6891 74.3992 95.4718 74.1959 96.3551C73.5262 98.2442 72.8565 100.133 72.1868 102.022L73.3123 101.203C74.7049 100.903 76.0288 100.345 77.2153 99.5566Z" fill="#E6E6E6"/>
<path d="M90.2584 87.9636C90.4595 87.71 90.6026 87.4154 90.6776 87.1006C90.7525 86.7858 90.7576 86.4583 90.6924 86.1413C90.6271 85.8243 90.4932 85.5255 90.3001 85.2658C90.1069 85.0062 89.8591 84.792 89.5743 84.6384L88.1669 84.5068C87.8469 84.5878 87.5504 84.7427 87.3011 84.9591C87.0517 85.1754 86.8566 85.4472 86.7313 85.7526C86.606 86.0579 86.554 86.3884 86.5796 86.7175C86.6051 87.0466 86.7074 87.3652 86.8783 87.6476C87.0491 87.93 87.2838 88.1685 87.5635 88.3438C87.8432 88.5191 88.1601 88.6265 88.4887 88.6572C88.8174 88.6879 89.1487 88.6412 89.456 88.5207C89.7633 88.4003 90.0382 88.2095 90.2584 87.9636Z" fill="#E6E6E6"/>
<path d="M103.206 90.136C104.519 90.7643 106.182 91.3631 107.324 90.4608C107.663 90.1545 107.915 89.7644 108.054 89.3299C108.194 88.8953 108.216 88.4316 108.12 87.9855C107.915 87.0956 107.518 86.2609 106.959 85.5395C105.211 83.031 102.991 80.8875 100.423 79.2291L99.7883 80.0541C98.9014 82.3571 98.0451 85.0457 99.2822 87.1811C100.116 88.6207 101.705 89.4179 103.206 90.136Z" fill="#E6E6E6"/>
<path d="M112.99 92.1856L115.446 93.2964C115.205 92.8768 114.838 92.5436 114.397 92.3442C113.957 92.1448 113.464 92.0893 112.99 92.1856Z" fill="#E6E6E6"/>
<path d="M106.372 99.9125L105.212 100.295C104.225 101.916 104.653 103.99 105.112 105.832C105.402 106.996 106.028 108.429 107.227 108.376C108.393 108.324 108.909 106.91 109.133 105.764C109.483 104.519 109.521 103.207 109.244 101.944C109.085 101.319 108.709 100.771 108.183 100.398C107.656 100.026 107.014 99.8535 106.372 99.9125Z" fill="#E6E6E6"/>
<path d="M87.8662 94.4548L88.7248 94.8006C88.9261 94.7718 89.1124 94.6775 89.2546 94.5322C89.3969 94.3869 89.4872 94.1987 89.5117 93.9968C89.5361 93.795 89.4933 93.5907 89.3899 93.4156C89.2864 93.2405 89.1281 93.1044 88.9395 93.0285C88.7508 92.9525 88.5424 92.9409 88.3465 92.9954C88.1506 93.05 87.9781 93.1676 87.8559 93.3301C87.7336 93.4926 87.6683 93.6908 87.6702 93.8942C87.6721 94.0975 87.741 94.2946 87.8662 94.4548Z" fill="#E6E6E6"/>
<path d="M131.155 160.112C130.739 160.121 130.331 160.229 129.965 160.428C129.6 160.627 129.287 160.91 129.054 161.255C128.82 161.599 128.672 161.994 128.622 162.407C128.572 162.82 128.621 163.239 128.766 163.629C129.61 165.445 132.514 165.453 133.804 163.922C134.135 163.487 134.372 162.989 134.5 162.458C134.628 161.927 134.645 161.375 134.549 160.837C134.453 160.3 134.247 159.788 133.943 159.334C133.64 158.88 133.245 158.494 132.785 158.2L131.155 160.112Z" fill="#E6E6E6"/>
<path d="M172.98 203.123C172.642 203.213 172.326 203.369 172.05 203.584C171.775 203.798 171.544 204.065 171.374 204.37C171.203 204.675 171.095 205.011 171.056 205.358C171.017 205.705 171.049 206.056 171.148 206.391L173.559 206.559C174.375 206.149 175.192 205.739 176.008 205.329C175.959 204.983 175.841 204.651 175.661 204.352C175.481 204.052 175.242 203.792 174.96 203.586C174.678 203.381 174.357 203.234 174.017 203.154C173.677 203.074 173.324 203.064 172.98 203.123Z" fill="#E6E6E6"/>
<path d="M163.181 206.105C162.491 206.595 161.937 207.252 161.572 208.015C161.206 208.778 161.041 209.622 161.092 210.466C161.17 211.308 161.515 212.104 162.076 212.738C162.636 213.371 163.384 213.81 164.211 213.99C165.045 214.121 165.898 213.93 166.597 213.456C167.296 212.982 167.789 212.26 167.976 211.437C168.384 208.943 165.704 207.117 164.741 204.781L163.181 206.105Z" fill="#E6E6E6"/>
<path d="M256.816 189.636C257.071 191.508 255.384 193.148 255.321 195.036C255.247 197.276 257.686 199.019 259.916 198.8C261.024 198.608 262.071 198.162 262.977 197.496C263.883 196.831 264.622 195.965 265.136 194.966L265.184 194.756C264.098 193.528 263.011 192.299 261.924 191.071C260.59 189.563 259.176 187.846 259.228 185.833C259.254 184.841 259.645 183.879 259.623 182.887C259.57 182.173 259.411 181.471 259.15 180.804C258.856 179.926 258.455 178.937 257.578 178.641C256.48 178.27 255.372 179.243 254.848 180.277C254.376 181.23 254.147 182.285 254.18 183.348C254.214 184.412 254.509 185.45 255.039 186.372C255.673 187.45 256.648 188.397 256.816 189.636Z" fill="#E6E6E6"/>
<path d="M246.57 196.222C246.807 196.351 247.07 196.426 247.339 196.443C247.609 196.461 247.879 196.419 248.131 196.322C249.099 196.158 250.03 195.819 250.878 195.324C251.299 195.071 251.646 194.71 251.882 194.279C252.118 193.848 252.235 193.362 252.222 192.871C252.075 192.253 251.748 191.693 251.283 191.261C250.818 190.829 250.235 190.544 249.608 190.444C249.173 190.291 248.706 190.247 248.25 190.317C247.794 190.386 247.362 190.567 246.993 190.843C246.183 191.603 246.28 192.892 246.438 193.991L246.268 194.277C246.115 194.955 246.018 195.799 246.57 196.222Z" fill="#E6E6E6"/>
<path d="M417.596 276.225C417.361 275.641 417.125 275.056 416.89 274.472C416.568 275.266 416.688 276.078 417.596 276.225Z" fill="#E6E6E6"/>
<path d="M558.673 153.298C555.657 150.026 553.81 148.14 551.905 144.084C550.869 141.847 549.295 139.902 547.324 138.421C545.352 136.941 543.045 135.971 540.608 135.6C534.351 134.569 527.958 136.201 521.625 135.874C511.482 135.35 502.335 129.91 492.621 126.942C487.183 125.419 481.644 124.276 476.046 123.524C472.821 123.014 469.595 122.504 466.369 121.994C455.796 120.322 445.155 118.644 434.453 118.867C431.367 118.931 427.068 118.003 427.315 114.926C427.622 111.105 434.498 111.606 435.82 108.008C436.638 105.782 434.68 103.445 432.533 102.438C430.385 101.432 427.906 101.129 425.958 99.7776C424.009 98.4262 422.941 95.2936 424.732 93.7391C419.767 96.2842 414.802 98.8294 409.838 101.375C405.71 103.491 401.098 106.244 400.369 110.824C397.882 111.482 395.705 112.994 394.221 115.095C391.429 115.11 389.234 117.791 388.773 120.546C388.313 123.3 389.15 126.088 389.978 128.755C388.965 126.815 387.889 124.8 386.103 123.534C384.318 122.268 381.6 122.027 380.078 123.6C378.516 125.214 378.881 127.922 379.986 129.877C381.091 131.833 382.789 133.411 383.831 135.4C387.088 141.614 381.187 150.361 374.206 149.669C374.674 143.253 375.143 136.837 375.611 130.421C375.907 128.448 375.742 126.432 375.126 124.534C374.365 122.697 372.415 121.189 370.474 121.622C366.985 122.402 367.283 127.513 368.735 130.78C370.186 134.047 371.633 138.591 368.67 140.592C366.757 141.884 364.163 141.086 362.098 140.054C360.032 139.023 357.822 137.752 355.565 138.234C353.307 138.716 351.887 142.167 353.882 143.329C350.573 142.754 347.265 142.179 343.957 141.605C343.793 142.578 343.427 143.507 342.882 144.33C342.337 145.154 341.625 145.854 340.792 146.385C339.96 146.916 339.025 147.267 338.049 147.414C337.072 147.561 336.076 147.502 335.123 147.24C334.799 145.894 334.474 144.549 334.149 143.203C333.665 143.068 333.181 142.933 332.697 142.798C334.216 143.221 331.839 149.63 329.707 154.525C326.842 154.189 322.654 154.125 322.177 153.304C319.889 149.372 320.16 140.006 316.185 137.794C314.192 136.685 312.147 135.674 310.052 134.761C308.952 134.238 307.789 133.856 306.592 133.625C304.151 133.241 301.689 133.998 299.334 134.746C296.55 135.63 293.702 136.547 291.397 138.341C289.429 140.048 287.742 142.054 286.398 144.286C281.847 151.021 277.297 157.756 272.746 164.49C271.391 166.289 270.324 168.288 269.585 170.415C269.236 171.473 269.12 172.594 269.245 173.701C269.369 174.808 269.731 175.875 270.305 176.829C270.91 177.764 271.813 178.469 272.867 178.829C273.921 179.189 275.066 179.184 276.117 178.815C277.436 178.244 278.757 176.95 280.064 177.548C281.054 178 281.301 179.301 281.198 180.385C280.946 181.446 280.926 182.548 281.14 183.617C281.735 185.304 284.024 185.891 285.656 185.161C287.244 184.295 288.434 182.847 288.975 181.121C290.548 177.086 290.387 172.622 290.779 168.309C291.171 163.996 292.35 159.383 295.75 156.701C296.768 155.899 298.263 155.32 299.311 156.083C299.703 156.44 299.975 156.91 300.087 157.428C300.199 157.946 300.147 158.486 299.937 158.973C299.499 159.937 298.928 160.834 298.24 161.639C297.078 163.273 296.265 165.129 295.852 167.092C295.438 169.054 295.433 171.08 295.836 173.045L296.531 173.475C299.183 172.787 302.731 174.018 306.251 175.199C303.696 175.959 301.446 177.506 299.823 179.621C295.754 185.329 292.809 190.732 284.76 190.664C282.851 190.648 280.958 190.27 279.048 190.266C277.121 190.147 275.222 190.779 273.751 192.03C272.303 193.448 271.856 195.606 270.617 197.209C268.989 199.317 266.267 200.175 263.781 201.132C261.965 201.832 260.05 202.776 259.215 204.535C258.69 205.977 258.569 207.535 258.865 209.041C259.145 211.705 259.64 214.734 261.9 216.172C262.745 216.612 263.669 216.881 264.619 216.961C265.568 217.041 266.524 216.932 267.431 216.64C269.781 216.068 272.08 214.991 274.494 215.152C278.283 215.405 281.404 219.042 281.442 222.84C281.462 224.762 280.901 226.967 282.175 228.407C283.372 229.76 285.747 229.519 286.987 228.205C287.564 227.507 287.961 226.677 288.143 225.79C288.325 224.903 288.287 223.984 288.033 223.115C287.506 221.383 286.696 219.751 285.635 218.284C286.896 217.958 288.232 218.078 289.414 218.625C290.597 219.171 291.554 220.111 292.122 221.283C292.964 223.153 292.692 225.311 292.96 227.344C293.229 229.377 294.467 231.637 296.514 231.754C297.183 231.773 297.838 231.557 298.365 231.143C298.892 230.73 299.258 230.145 299.398 229.49C299.42 228.458 299.363 227.426 299.23 226.403C299.3 225.396 299.753 224.453 300.495 223.769C301.238 223.085 302.214 222.71 303.224 222.723C302.601 223.874 302.399 225.206 302.651 226.49C302.903 227.774 303.594 228.93 304.605 229.761C306.163 230.966 308.223 231.236 310.164 231.573C312.105 231.91 314.175 232.443 315.428 233.963C317.515 236.496 314.962 237.637 314.564 239.781C314.076 242.415 316.276 246.303 317.121 248.822C321.003 254.254 324.885 259.685 328.768 265.116C329.634 266.437 330.656 267.648 331.812 268.725C335.645 272.017 341.963 271.692 345.638 268.226C347.42 266.423 348.577 264.097 348.939 261.588C349.301 259.079 348.85 256.52 347.651 254.287C345.38 250.152 340.879 247.592 338.657 243.431C342.356 246.493 346.897 248.361 351.68 248.787C360.142 250.506 368.182 253.878 375.34 258.709C375.676 266.187 378.545 273.328 383.476 278.96C384.363 272.579 387.338 266.67 391.937 262.158C394.928 259.241 399.015 256.889 403.118 257.673C407.222 258.458 410.335 263.691 407.853 267.051C409.933 267.206 412.013 267.361 414.092 267.515C415.025 269.834 415.958 272.153 416.89 274.472C417.056 273.985 417.374 273.563 417.797 273.27C418.22 272.976 418.726 272.826 419.24 272.841C421.187 273.135 422.553 274.946 424.405 275.615C427.896 276.876 431.628 273.383 432.079 269.699C432.531 266.015 430.778 262.458 429.075 259.16C432.836 259.857 436.719 259.442 440.248 257.965C443.777 256.489 446.799 254.016 448.944 250.849C451.089 247.681 452.264 243.957 452.325 240.133C452.386 236.308 451.331 232.548 449.288 229.314C453.335 225.063 458.098 221.557 463.359 218.955C468.228 216.549 473.554 214.898 477.809 211.524C482.064 208.15 485.048 202.291 483.001 197.261C481.555 193.707 477.929 191.296 476.844 187.616C475.273 182.29 480.045 176.78 485.437 175.449C490.829 174.119 496.459 175.754 501.77 177.377C500.954 171.912 507.288 166.789 512.462 168.73C514.629 167.852 516.796 166.975 518.962 166.097C516.451 171.635 511.008 175.158 507.006 179.737C503.004 184.314 500.621 191.77 504.801 196.185C510.793 190.754 516.786 185.323 522.778 179.892C529.046 174.211 535.314 168.53 541.582 162.849C541.282 161.969 540.983 161.09 540.684 160.211C546.614 157.959 553.001 156.096 558.673 153.298Z" fill="#D1D0DE"/>
<path d="M247.43 226.395C247.187 226.743 247.059 227.158 247.061 227.582C247.063 228.007 247.196 228.42 247.441 228.766C247.763 229.04 248.17 229.192 248.593 229.198C249.015 229.204 249.426 229.062 249.755 228.797C250.399 228.248 250.901 227.552 251.22 226.769C251.532 227.371 252.021 227.863 252.621 228.177C253.222 228.492 253.905 228.614 254.577 228.527C255.92 228.324 257.192 227.794 258.28 226.982C259.144 226.476 259.906 225.815 260.529 225.031C260.837 224.637 261.049 224.175 261.147 223.685C261.245 223.194 261.227 222.687 261.094 222.204C260.771 221.464 260.269 220.815 259.633 220.317C258.047 218.853 256.462 217.388 254.876 215.923L254.339 215.762C254.059 215.465 253.722 215.227 253.348 215.063C252.974 214.899 252.571 214.812 252.163 214.808C251.754 214.803 251.349 214.881 250.972 215.038C250.595 215.194 250.253 215.424 249.967 215.716C248.982 216.818 248.978 218.465 249.128 219.935C249.279 221.405 249.513 222.972 248.858 224.297C248.483 225.056 247.848 225.658 247.43 226.395Z" fill="#E6E6E6"/>
<path d="M339.425 276.425C333.263 275.053 327.623 271.946 323.17 267.471C318.718 262.996 315.64 257.34 314.3 251.171C313.716 248.26 313.451 245.079 311.514 242.829C309.639 240.65 306.576 239.864 303.702 239.864C300.828 239.864 297.994 240.526 295.125 240.704C290.109 241.017 284.795 239.692 281.208 236.172C279.509 234.505 278.223 232.388 276.24 231.073C273.573 229.306 270.039 229.308 267.001 230.309C263.617 231.424 260.909 234.476 257.209 234.056C253.361 233.619 248.902 232.259 247.393 237.325C246.959 238.784 247.107 240.384 246.557 241.804C245.709 243.991 243.458 245.224 241.678 246.752C238.093 249.83 236.187 254.505 235.545 259.187C234.903 263.868 235.399 268.622 235.897 273.321C236.165 275.856 236.518 278.584 238.259 280.445C240.686 283.04 244.758 282.94 248.299 282.647C252.412 282.308 256.526 281.968 260.64 281.628C262.857 281.445 265.384 281.368 266.962 282.936C267.908 283.875 268.309 285.234 269.141 286.276C269.887 287.163 270.913 287.77 272.049 287.999C273.185 288.228 274.366 288.066 275.398 287.538C274.564 289.028 274.109 290.701 274.076 292.408C274.042 294.116 274.43 295.805 275.204 297.327C275.979 298.849 277.118 300.157 278.518 301.134C279.919 302.111 281.539 302.728 283.235 302.929L283.552 303.129C280.918 307.639 278.186 312.703 279.278 317.81C280.214 322.189 283.841 325.7 284.434 330.138C284.978 334.211 282.853 338.375 283.793 342.375C284.745 346.425 288.835 349.249 292.985 349.55C297.135 349.852 301.212 348.011 304.426 345.369C307.64 342.727 310.125 339.325 312.574 335.962C314.087 333.885 315.637 331.723 316.157 329.207C316.709 326.53 316.068 323.563 317.37 321.159C318.872 318.387 322.435 317.348 324.234 314.759C326.564 311.407 325.191 306.841 325.706 302.791C326.981 292.77 339.714 286.523 339.425 276.425Z" fill="#F7F6FF"/>
<path d="M337.586 310.639C337.238 312.204 335.772 313.234 334.376 314.022C332.98 314.81 331.444 315.604 330.733 317.041C330.004 318.513 330.337 320.266 330.719 321.863C331.511 325.185 332.445 328.47 333.52 331.716C335.604 327.779 337.423 323.708 338.966 319.529C339.619 317.974 340.022 316.325 340.161 314.643C340.225 313.802 340.111 312.956 339.828 312.161C339.545 311.365 339.099 310.638 338.518 310.026L337.586 310.639Z" fill="#E6E6E6"/>
<path d="M423.276 293.209C421.526 291.189 419.776 289.169 418.027 287.15C416.83 285.768 415.465 284.293 413.652 284.063L412.906 284.539C414.423 288.152 415.94 291.764 417.457 295.376C417.994 297.026 418.94 298.513 420.206 299.699C421.564 300.766 423.765 300.971 424.898 299.667C425.263 299.178 425.493 298.602 425.566 297.996C425.638 297.39 425.55 296.776 425.309 296.215C424.816 295.1 424.127 294.082 423.276 293.209Z" fill="#E6E6E6"/>
<path d="M440.23 297.077C440.891 296.847 441.497 296.482 442.009 296.005C442.521 295.528 442.928 294.949 443.204 294.305C443.746 293.016 444.104 291.657 444.267 290.267C444.566 288.459 444.865 286.65 445.164 284.841L444.773 284.741C444.393 284.558 443.96 284.52 443.554 284.633C443.148 284.746 442.796 285.002 442.565 285.354C442.124 286.072 441.79 286.851 441.575 287.665C441.464 288.072 441.263 288.449 440.986 288.767C440.709 289.086 440.364 289.337 439.976 289.503C438.572 289.927 437.241 288.439 435.775 288.497C435.183 288.572 434.634 288.846 434.217 289.274C433.801 289.701 433.541 290.258 433.481 290.852C433.396 292.051 433.736 293.242 434.441 294.216C435.691 296.156 438.011 297.716 440.23 297.077Z" fill="#E6E6E6"/>
<path d="M449.904 300.506L453.936 289.886C452.302 291.071 451.05 292.707 450.334 294.594C449.618 296.481 449.468 298.536 449.904 300.506Z" fill="#E6E6E6"/>
<path d="M470.482 291.945L469.667 291.98C469.302 292.7 469.109 293.495 469.101 294.303C469.093 295.111 469.272 295.909 469.622 296.637C470.338 298.087 471.379 299.353 472.664 300.335C474.656 301.979 476.93 303.249 479.375 304.082C482.961 305.128 486.668 305.699 490.402 305.78C492.537 305.92 494.672 306.06 496.806 306.199C497.823 306.266 499.138 306.137 499.421 305.158C499.654 304.35 498.966 303.59 498.323 303.047C492.675 298.294 485.828 295.187 478.532 294.065C475.765 293.644 472.829 293.471 470.482 291.945Z" fill="#E6E6E6"/>
<path d="M493.268 320.13C491.732 318.641 490.197 317.152 488.662 315.664C487.169 314.216 484.932 312.682 483.221 313.864C482.238 314.543 481.934 315.869 481.101 316.725C480.593 317.18 479.98 317.501 479.317 317.659C478.654 317.817 477.962 317.807 477.304 317.629C475.992 317.261 474.753 316.673 473.638 315.892L469.828 313.528C468.514 312.712 467.199 311.897 465.885 311.081L462.918 313.964C463.047 312.545 461.156 311.623 459.846 312.184C459.224 312.533 458.688 313.018 458.279 313.603C457.87 314.188 457.598 314.857 457.483 315.562C457.265 316.97 456.884 318.348 456.349 319.669C454.843 322.552 451.186 323.406 447.969 323.889C444.752 324.372 441.107 325.052 439.385 327.813C437.95 330.112 438.38 333.064 438.859 335.731L440.673 345.821C440.758 347.043 441.249 348.202 442.066 349.115C443.659 350.521 446.127 349.666 448.071 348.809C452.134 346.854 456.496 345.59 460.975 345.069C465.493 344.563 470.041 345.728 473.76 348.343C476.065 350.099 477.824 352.529 480.267 354.088C481.949 355.101 483.841 355.715 485.797 355.886C487.753 356.057 489.723 355.779 491.556 355.074C495.229 353.611 498.269 350.9 500.141 347.417C501.804 344.346 502.638 340.895 502.562 337.404C502.486 333.913 501.502 330.502 499.708 327.506C497.876 324.79 495.712 322.312 493.268 320.13Z" fill="#1300FF"/>
<path d="M488.741 361.238C488.372 361.685 488.157 362.239 488.126 362.817C488.095 363.396 488.25 363.969 488.569 364.453C489.238 365.412 490.257 366.069 491.407 366.281C492.545 366.484 493.706 366.537 494.858 366.439L494.893 365.578C494.586 364.067 493.889 362.663 492.872 361.504C491.76 360.447 489.795 360.123 488.741 361.238Z" fill="#E6E6E6"/>
<path d="M528.273 362.159L527.723 361.957C526.413 363.932 525.103 365.906 523.793 367.88C523.088 368.943 522.353 370.219 522.783 371.419C523.292 372.839 525.173 373.255 526.635 372.88C527.75 372.577 528.756 371.963 529.534 371.108C530.312 370.254 530.831 369.195 531.029 368.057C531.19 366.912 531.016 365.746 530.526 364.699C530.037 363.652 529.254 362.769 528.273 362.159Z" fill="#E6E6E6"/>
<path d="M538.26 355.893L534.643 353.018C534.595 354.351 534.546 355.685 534.498 357.019L534.362 357.021C535.196 357.753 535.984 358.536 536.72 359.365C537.566 360.085 538.986 360.414 539.71 359.571C539.926 359.269 540.049 358.91 540.063 358.539C540.077 358.168 539.981 357.801 539.788 357.484C539.39 356.856 538.87 356.315 538.26 355.893Z" fill="#E6E6E6"/>
<path d="M472.925 230.813C471.408 230.766 469.728 230.674 468.552 231.634C468.165 231.98 467.826 232.375 467.543 232.81L467.129 233.391C466.508 234.203 465.967 235.073 465.513 235.989C465.276 236.418 465.133 236.893 465.095 237.382C465.058 237.871 465.125 238.362 465.293 238.823C465.39 239.043 465.535 239.239 465.716 239.397C465.898 239.555 466.112 239.672 466.343 239.738C466.574 239.805 466.817 239.819 467.055 239.781C467.293 239.744 467.519 239.654 467.718 239.519C468.367 238.918 468.215 237.828 468.706 237.093C468.922 236.816 469.199 236.593 469.516 236.441C469.833 236.289 470.181 236.214 470.532 236.22C471.232 236.237 471.93 236.316 472.617 236.455C474.519 236.716 476.456 236.427 478.199 235.622C479.943 234.817 481.419 233.53 482.454 231.912C483.49 230.295 484.04 228.416 484.042 226.496C484.043 224.575 483.495 222.695 482.462 221.077L482.34 220.704C481.289 220.664 480.258 220.993 479.425 221.635C478.592 222.277 478.011 223.191 477.782 224.217C477.443 225.985 478.162 228.039 477.09 229.485C476.187 230.705 474.443 230.861 472.925 230.813Z" fill="#E6E6E6"/>
<path d="M486.509 212.069L486.278 212.049C484.921 212.297 483.618 212.782 482.43 213.483C482.04 213.664 481.728 213.979 481.553 214.372C481.501 214.58 481.502 214.798 481.556 215.006C481.609 215.214 481.713 215.405 481.859 215.562C482.154 215.874 482.499 216.133 482.879 216.33C483.447 216.709 484.074 216.989 484.734 217.16C485.065 217.242 485.412 217.24 485.742 217.154C486.073 217.069 486.377 216.903 486.627 216.671C486.862 216.348 487.023 215.978 487.1 215.586C487.177 215.195 487.167 214.791 487.071 214.404C486.963 213.608 486.775 212.826 486.509 212.069Z" fill="#E6E6E6"/>
<path d="M463.12 231.264C463.483 230.682 463.74 230.042 463.881 229.372C464.023 228.851 464.164 228.331 464.306 227.81L462.793 226.891C462.071 227.267 461.404 227.742 460.813 228.303C460.519 228.585 460.286 228.925 460.13 229.302C459.974 229.678 459.897 230.083 459.905 230.49C459.926 230.898 460.084 231.286 460.353 231.592C460.623 231.898 460.988 232.104 461.39 232.176C461.732 232.186 462.072 232.108 462.375 231.948C462.678 231.788 462.935 231.552 463.12 231.264Z" fill="#E6E6E6"/>
<path d="M298.334 90.5998C297.736 90.9726 297.905 91.8739 298.148 92.5358C298.426 93.2955 298.705 94.0553 298.984 94.815L299.373 93.3402C299.716 92.7682 299.867 92.1019 299.805 91.4382C299.67 90.7899 298.896 90.2496 298.334 90.5998Z" fill="#E6E6E6"/>
<path d="M675.999 227.46H422.999C416.902 227.453 411.055 225.028 406.743 220.716C402.432 216.404 400.006 210.558 399.999 204.46V23.46C400.006 17.3621 402.432 11.516 406.744 7.20416C411.055 2.89233 416.902 0.466898 422.999 0.459961H675.999C682.097 0.466895 687.943 2.89233 692.255 7.20416C696.567 11.516 698.992 17.3621 698.999 23.46V204.46C698.993 210.558 696.567 216.404 692.255 220.716C687.943 225.028 682.097 227.453 675.999 227.46Z" fill="#F7F6FF"/>
<path d="M675.999 227.46H422.999C416.902 227.453 411.055 225.028 406.743 220.716C402.432 216.404 400.006 210.558 399.999 204.46V23.46C400.006 17.3621 402.432 11.516 406.744 7.20416C411.055 2.89233 416.902 0.466898 422.999 0.459961H675.999C682.097 0.466895 687.943 2.89233 692.255 7.20416C696.567 11.516 698.992 17.3621 698.999 23.46V204.46C698.993 210.558 696.567 216.404 692.255 220.716C687.943 225.028 682.097 227.453 675.999 227.46ZM422.999 2.45996C417.432 2.4662 412.094 4.6807 408.157 8.61761C404.22 12.5545 402.006 17.8923 401.999 23.46V204.46C402.006 210.028 404.22 215.365 408.157 219.302C412.094 223.239 417.432 225.454 422.999 225.46H675.999C681.567 225.454 686.905 223.239 690.842 219.302C694.779 215.365 696.993 210.028 696.999 204.46V23.46C696.993 17.8923 694.779 12.5545 690.842 8.61761C686.905 4.6807 681.567 2.4662 675.999 2.45996H422.999Z" fill="#1300FF"/>
<path d="M491.834 28.019H451.834C450.773 28.019 449.756 27.5976 449.006 26.8475C448.255 26.0973 447.834 25.0799 447.834 24.019C447.834 22.9582 448.255 21.9407 449.006 21.1906C449.756 20.4405 450.773 20.019 451.834 20.019H491.834C492.895 20.019 493.912 20.4405 494.662 21.1906C495.412 21.9407 495.834 22.9582 495.834 24.019C495.834 25.0799 495.412 26.0973 494.662 26.8475C493.912 27.5976 492.895 28.019 491.834 28.019Z" fill="#CCCCCC"/>
<path d="M578.834 118.019H451.834C450.773 118.019 449.756 117.598 449.006 116.847C448.255 116.097 447.834 115.08 447.834 114.019C447.834 112.958 448.255 111.941 449.006 111.191C449.756 110.44 450.773 110.019 451.834 110.019H578.834C579.895 110.019 580.912 110.44 581.662 111.191C582.413 111.941 582.834 112.958 582.834 114.019C582.834 115.08 582.413 116.097 581.662 116.847C580.912 117.598 579.895 118.019 578.834 118.019Z" fill="#CCCCCC"/>
<path d="M474.33 92.7671C489.142 92.7671 501.149 80.7598 501.149 65.9482C501.149 51.1365 489.142 39.1292 474.33 39.1292C459.518 39.1292 447.511 51.1365 447.511 65.9482C447.511 80.7598 459.518 92.7671 474.33 92.7671Z" fill="#1300FF"/>
<path d="M453.834 194.407H447.834V196.407H453.834V194.407Z" fill="#3F3D56"/>
<path d="M630.003 196.407H617.419V194.407H630.003V196.407ZM604.836 196.407H592.252V194.407H604.836V196.407ZM579.669 196.407H567.085V194.407H579.669V196.407ZM554.502 196.407H541.919V194.407H554.502L554.502 196.407ZM529.335 196.407H516.752V194.407H529.335V196.407ZM504.168 196.407H491.585V194.407H504.168L504.168 196.407ZM479.001 196.407H466.418V194.407H479.001V196.407Z" fill="#3F3D56"/>
<path d="M648.586 194.407H642.586V196.407H648.586V194.407Z" fill="#3F3D56"/>
<path d="M549.673 159.019H544.673V193.019H549.673V159.019Z" fill="#1300FF"/>
<path d="M600.673 159.019H595.673V193.019H600.673V159.019Z" fill="#1300FF"/>
<path d="M625.673 178.019H620.673V193.019H625.673V178.019Z" fill="#1300FF"/>
<path d="M574.673 144.019H569.673V193.019H574.673V144.019Z" fill="#1300FF"/>
<path d="M90.6726 227.019C93.9863 227.019 96.6726 224.333 96.6726 221.019C96.6726 217.705 93.9863 215.019 90.6726 215.019C87.3589 215.019 84.6726 217.705 84.6726 221.019C84.6726 224.333 87.3589 227.019 90.6726 227.019Z" fill="#1300FF"/>
<path d="M106.673 198.019C109.986 198.019 112.673 195.333 112.673 192.019C112.673 188.705 109.986 186.019 106.673 186.019C103.359 186.019 100.673 188.705 100.673 192.019C100.673 195.333 103.359 198.019 106.673 198.019Z" fill="#1300FF"/>
<path d="M282.673 175.019C285.986 175.019 288.673 172.333 288.673 169.019C288.673 165.705 285.986 163.019 282.673 163.019C279.359 163.019 276.673 165.705 276.673 169.019C276.673 172.333 279.359 175.019 282.673 175.019Z" fill="#1300FF"/>
<path d="M144.947 597.927L153.997 597.926L158.302 563.019L144.945 563.02L144.947 597.927Z" fill="#FFB6B6"/>
<path d="M144.628 607.367L172.458 607.366V607.015C172.457 604.142 171.316 601.387 169.285 599.355C167.253 597.324 164.498 596.183 161.626 596.183L156.542 592.326L147.057 596.183L144.628 596.183L144.628 607.367Z" fill="#2F2E41"/>
<path d="M212.947 597.927L221.997 597.926L226.302 563.019L212.945 563.02L212.947 597.927Z" fill="#FFB6B6"/>
<path d="M212.628 607.367L240.458 607.366V607.015C240.457 604.142 239.316 601.387 237.285 599.355C235.253 597.324 232.498 596.183 229.626 596.183L224.542 592.326L215.057 596.183L212.628 596.183L212.628 607.367Z" fill="#2F2E41"/>
<path d="M144.595 313.966L160.656 311.665C166.087 320.748 168.018 344.924 168.018 344.924L183.736 382.282C184.777 382.989 185.613 383.958 186.16 385.091C186.708 386.224 186.947 387.481 186.855 388.736C186.762 389.991 186.34 391.199 185.632 392.239C184.923 393.28 183.954 394.115 182.82 394.661C181.686 395.207 180.429 395.445 179.174 395.351C177.919 395.256 176.711 394.833 175.672 394.124C174.633 393.414 173.799 392.443 173.254 391.309C172.709 390.175 172.473 388.917 172.569 387.662L146.762 344.178L144.595 313.966Z" fill="#FFB6B6"/>
<path d="M153.3 269.378C150.814 269.763 148.443 270.691 146.357 272.096C144.271 273.501 142.519 275.349 141.228 277.508C139.937 279.667 139.138 282.084 138.887 284.587C138.636 287.09 138.94 289.617 139.777 291.99L143.185 301.65C143.185 301.65 138.892 330.737 145.967 338.948L167.678 336.982C167.678 336.982 163.709 322.307 166.756 315.207C168.623 310.859 168.519 295.84 166.68 283.623C165.276 274.294 162.623 267.934 153.3 269.378Z" fill="#3F3D56"/>
<path d="M228.173 357.019C228.173 357.019 244.908 373.34 241.334 377.109C237.76 380.879 229.585 386.159 237.173 387.019C244.76 387.879 247.908 389.743 241.334 391.311C234.76 392.879 235.776 396.905 235.776 396.905C235.776 396.905 245.673 444.019 238.173 475.019C238.173 475.019 233.999 559.691 231.379 566.285C228.76 572.879 227.76 568.879 228.76 572.879C229.76 576.879 231.76 569.879 229.76 576.879C228.669 580.535 227.805 584.256 227.173 588.019L207.61 585.019C207.61 585.019 204.461 575.092 207.61 572.485C210.76 569.879 213.585 571.485 210.173 565.682C206.76 559.879 205.76 567.879 206.76 559.879C207.76 551.879 203.585 508.611 210.173 485.745L197.999 421.582L178.673 488.019C178.673 488.019 168.421 569.159 165.091 572.019C161.76 574.879 156.76 569.879 161.76 574.879C166.76 579.879 166.673 579.019 166.76 579.879C167.691 589.051 139.062 579.019 139.062 579.019C139.221 576.688 139.221 574.35 139.062 572.019C138.76 569.879 142.363 569.194 139.062 567.036C135.76 564.879 140.673 567.019 140.673 567.019C140.673 567.019 148.056 507.159 153.673 489.019L160.173 400.682C160.173 400.682 160.585 402.445 160.173 398.162C159.76 393.879 156.76 396.879 159.76 393.879C162.76 390.879 164.76 389.35 162.76 387.115C160.76 384.879 155.243 380.356 158.501 377.617C161.76 374.879 168.173 357.019 168.173 357.019L230.673 357.519" fill="#57BFD4"/>
<path d="M204.673 257.845L193.404 245.156L175.597 247.135L164.197 263.089C158.128 264.485 152.825 268.152 149.379 273.338C145.932 278.524 144.604 284.834 145.668 290.969C150.092 316.444 165.127 341.152 160.163 353.721C152.627 372.801 152.167 380.583 170.206 377.908C188.245 375.233 248.68 369.066 236.963 357.349C225.246 345.632 222.672 326.053 222.672 326.053L222.203 281.258C222.701 278.557 222.634 275.781 222.008 273.106C221.381 270.432 220.208 267.915 218.561 265.716C216.915 263.517 214.831 261.683 212.441 260.328C210.051 258.973 207.406 258.128 204.673 257.845Z" fill="#3F3D56"/>
<path d="M201.595 306.966L217.656 304.665C223.087 313.748 225.018 337.924 225.018 337.924L240.736 375.282C241.777 375.989 242.613 376.958 243.16 378.091C243.708 379.224 243.947 380.481 243.855 381.736C243.762 382.991 243.34 384.199 242.632 385.239C241.923 386.28 240.954 387.115 239.82 387.661C238.686 388.207 237.429 388.445 236.174 388.351C234.919 388.256 233.711 387.833 232.672 387.124C231.633 386.414 230.799 385.443 230.254 384.309C229.709 383.175 229.473 381.917 229.569 380.662L203.762 337.178L201.595 306.966Z" fill="#FFB6B6"/>
<path d="M210.3 262.378C207.814 262.763 205.443 263.691 203.357 265.096C201.271 266.501 199.519 268.349 198.228 270.508C196.937 272.667 196.138 275.084 195.887 277.587C195.636 280.09 195.94 282.617 196.777 284.99L200.185 294.65C200.185 294.65 195.892 323.737 202.967 331.948L224.678 329.982C224.678 329.982 220.709 315.307 223.756 308.207C225.623 303.859 225.519 288.84 223.68 276.623C222.276 267.294 219.623 260.934 210.3 262.378Z" fill="#3F3D56"/>
<path d="M179.604 244.063C191.491 244.063 201.127 234.427 201.127 222.54C201.127 210.653 191.491 201.017 179.604 201.017C167.717 201.017 158.081 210.653 158.081 222.54C158.081 234.427 167.717 244.063 179.604 244.063Z" fill="#FFB6B6"/>
<path d="M175.646 243.609C181.64 242.108 181.844 240.395 187.838 238.893C189.747 238.415 191.959 237.661 192.524 235.777C192.659 235.087 192.631 234.376 192.444 233.7C192.257 233.023 191.916 232.398 191.446 231.876C190.502 230.841 189.617 229.754 188.796 228.619C188.253 227.707 187.939 226.677 187.883 225.617C187.827 224.557 188.03 223.499 188.474 222.535C188.918 221.571 189.591 220.729 190.433 220.084C191.275 219.438 192.262 219.006 193.309 218.827C195.163 218.51 197.075 219.001 198.941 218.764C201.501 218.438 205.265 208.942 203.624 206.95C202.027 205.012 199.406 203.856 198.525 201.504C197.949 199.966 198.264 198.245 198.007 196.623C197.627 194.217 192.759 200.878 193.407 198.53C194.996 192.771 168.103 191.864 165.303 199.253C164.257 202.014 161.424 202.453 159.245 204.446C157.817 205.753 154.401 209.933 153.906 212.186C153.496 214.464 153.575 216.804 154.138 219.049C156.371 229.575 160.063 238.904 169.889 243.289" fill="#2F2E41"/>
<path d="M5.91753 608.731L395.643 609.039C395.8 609.039 395.955 609.009 396.1 608.949C396.245 608.889 396.376 608.802 396.487 608.691C396.598 608.581 396.686 608.449 396.746 608.304C396.806 608.16 396.837 608.005 396.837 607.848C396.837 607.691 396.806 607.536 396.746 607.392C396.686 607.247 396.598 607.115 396.487 607.005C396.376 606.894 396.245 606.807 396.1 606.747C395.955 606.687 395.8 606.657 395.643 606.657L5.91753 606.35C5.76087 606.35 5.60567 606.38 5.46082 606.44C5.31596 606.499 5.18428 606.587 5.07335 606.698C4.96242 606.808 4.87442 606.94 4.81436 607.084C4.75431 607.229 4.72339 607.384 4.72339 607.541C4.72339 607.697 4.75431 607.852 4.81436 607.997C4.87442 608.142 4.96242 608.273 5.07335 608.384C5.18428 608.494 5.31596 608.582 5.46082 608.642C5.60567 608.701 5.76087 608.732 5.91753 608.731Z" fill="#CACACA"/>
</g>
<defs>
<clipPath id="clip0_2_3331">
<rect width="698.284" height="608.579" fill="white" transform="translate(0.71582 0.459961)"/>
</clipPath>
</defs>
</svg>
