<svg width="832" height="583" viewBox="0 0 832 583" fill="none" xmlns="http://www.w3.org/2000/svg">
<g clip-path="url(#clip0_2_4848)">
<path d="M616.422 300.245C616.422 465.935 515.594 455.245 349.904 455.245C313.074 455.245 244.322 593.605 211.732 581.465H211.722C210.522 581.025 209.332 580.565 208.142 580.095C207.802 579.975 207.462 579.845 207.132 579.705C205.262 578.985 203.402 578.235 201.552 577.465C197.742 575.885 193.972 574.225 190.252 572.505C188.322 571.605 186.402 570.695 184.502 569.755C166.862 561.105 150.192 550.765 134.702 538.955C126.902 533.015 119.392 526.685 112.222 520.025C106.282 514.505 100.572 508.755 95.1116 502.775C93.3916 500.905 91.7116 499.015 90.0516 497.105C89.3717 496.335 88.7116 495.565 88.0617 494.795C83.3516 489.285 78.8516 483.595 74.5516 477.745C73.1616 475.855 71.7916 473.945 70.4416 472.015C61.2716 458.915 53.1216 445.035 46.1016 430.515C27.0816 391.115 16.4216 346.925 16.4216 300.245C16.4217 134.555 150.732 0.245117 316.422 0.245117C482.112 0.245117 616.422 134.555 616.422 300.245Z" fill="#F7F6FF"/>
<path d="M821.154 470.326C820.965 468.157 815.765 467.882 815.706 465.967C815.647 464.059 820.789 463.669 825.643 459.461C826.518 458.703 832.034 453.922 830.996 451.129C829.029 445.834 805.246 452.339 801.67 444.747C800.885 443.081 800.99 440.559 798.722 435.292C797.82 433.196 797.175 432.136 796.158 431.926C794.715 431.628 793.784 433.303 790.773 436.028C786.257 440.115 785.18 439.219 782.022 442.694C779.678 445.274 779.041 447.122 777.823 446.956C776.099 446.721 776.262 442.868 774.234 442.244C772.164 441.608 769.21 444.765 767.502 447.372C764.298 452.263 764.559 456.633 763.879 460.769C763.14 465.264 760.945 471.584 754.198 478.781L691.994 540.495C705.17 528.029 742.186 494.29 756.761 482.147C760.969 478.641 765.421 475.174 770.929 475.61C776.232 476.029 781.874 480.015 790.608 481.894C791.628 482.114 794.475 482.688 795.512 481.35C796.369 480.243 795.208 478.837 795.993 477.792C797.046 476.39 799.989 477.782 804.455 477.729C807.604 477.691 809.909 476.953 811.891 476.319C812.489 476.128 821.406 473.214 821.154 470.326Z" fill="#F2F2F2"/>
<path d="M698.399 459.525C697.279 458.992 695.644 461.465 694.687 460.941C693.733 460.42 695.025 457.783 694.361 454.187C694.241 453.539 693.486 449.452 691.816 449.155C688.65 448.593 684.98 462.143 680.222 461.708C679.178 461.612 677.97 460.833 674.731 460.426C673.442 460.265 672.736 460.275 672.339 460.714C671.777 461.336 672.33 462.276 672.799 464.54C673.502 467.936 672.751 468.206 673.545 470.759C674.135 472.653 674.859 473.499 674.426 474.049C673.813 474.828 671.969 473.636 671.078 474.451C670.168 475.284 670.865 477.645 671.652 479.235C673.128 482.218 675.348 483.351 677.182 484.879C679.175 486.538 681.643 489.439 683.229 494.827L695.571 543.164C693.254 533.1 687.375 505.198 685.621 494.54C685.114 491.463 684.697 488.278 686.5 485.7C688.236 483.219 691.82 481.6 695.262 477.855C695.664 477.418 696.768 476.186 696.41 475.291C696.114 474.551 695.089 474.715 694.803 474.028C694.419 473.107 695.951 472.064 697.213 469.857C698.103 468.301 698.406 466.957 698.667 465.801C698.746 465.452 699.889 460.235 698.399 459.525Z" fill="#F2F2F2"/>
<path d="M718.281 475.248L720.498 468.916L721.025 468.608C723.461 467.186 725.176 465.478 726.124 463.529C726.275 463.22 726.409 462.902 726.547 462.579C727.092 461.298 727.769 459.705 729.455 458.279C730.397 457.486 732.804 455.757 734.588 456.972C735.071 457.294 735.349 457.72 735.512 458.141C735.589 458.093 735.668 458.045 735.752 457.992C736.79 457.366 737.453 457.203 738.092 457.046C738.582 456.924 739.089 456.8 739.998 456.365C740.397 456.175 740.722 455.996 740.996 455.845C741.828 455.391 742.875 454.877 744.014 455.443C745.211 456.089 745.365 457.41 745.468 458.285C745.651 459.845 745.581 460.873 745.534 461.554C745.516 461.802 745.497 462.083 745.51 462.178C745.626 462.948 749.094 463.949 750.398 464.332C753.33 465.185 755.867 465.923 756.011 468.1C756.116 469.658 754.822 471.03 752.058 472.283C751.197 472.673 750.376 472.889 749.673 473.03C749.978 473.491 750.173 474.067 750.032 474.757C749.697 476.389 747.743 477.246 744.223 477.311C743.348 477.33 742.172 477.35 740.734 476.941C740.057 476.747 739.482 476.503 738.993 476.286C738.849 476.559 738.639 476.83 738.32 477.058C737.383 477.733 736.137 477.67 734.627 476.815C732.952 475.899 731.695 474.891 730.586 474.003C729.616 473.23 728.78 472.567 728.019 472.261C726.599 471.714 725.02 472.302 723.102 473.126L718.281 475.248Z" fill="#F2F2F2"/>
<path d="M738.611 440.973L731.923 440.435L731.492 440.003C729.499 438.008 727.411 436.782 725.286 436.36C724.948 436.292 724.607 436.242 724.259 436.191C722.882 435.989 721.169 435.739 719.363 434.469C718.356 433.759 716.073 431.869 716.796 429.835C716.985 429.286 717.327 428.91 717.693 428.645C717.626 428.583 717.56 428.519 717.488 428.451C716.619 427.605 716.293 427.005 715.979 426.428C715.737 425.984 715.488 425.526 714.837 424.756C714.552 424.419 714.296 424.15 714.081 423.922C713.431 423.234 712.668 422.351 712.926 421.105C713.248 419.784 714.487 419.3 715.307 418.979C716.769 418.405 717.781 418.213 718.452 418.086C718.697 418.04 718.973 417.987 719.062 417.95C719.777 417.643 719.865 414.034 719.906 412.676C719.987 409.624 720.057 406.982 722.127 406.29C723.607 405.794 725.262 406.698 727.176 409.054C727.771 409.787 728.188 410.526 728.503 411.171C728.871 410.759 729.379 410.424 730.082 410.386C731.746 410.296 733.071 411.968 734.026 415.356C734.266 416.198 734.584 417.331 734.553 418.825C734.537 419.529 734.447 420.148 734.361 420.675C734.662 420.745 734.977 420.88 735.279 421.131C736.169 421.866 736.424 423.087 735.98 424.765C735.519 426.617 734.863 428.088 734.286 429.387C733.783 430.521 733.354 431.498 733.252 432.312C733.083 433.823 734.052 435.202 735.336 436.849L738.611 440.973Z" fill="#F2F2F2"/>
<path d="M744.003 421.769L746.22 415.436L746.746 415.128C749.182 413.706 750.897 411.998 751.845 410.05C751.996 409.74 752.131 409.422 752.268 409.099C752.813 407.818 753.49 406.225 755.176 404.799C756.118 404.006 758.525 402.277 760.31 403.492C760.793 403.814 761.07 404.24 761.233 404.662C761.31 404.613 761.389 404.565 761.473 404.513C762.512 403.887 763.174 403.723 763.813 403.566C764.303 403.445 764.81 403.32 765.719 402.886C766.118 402.695 766.443 402.516 766.718 402.366C767.549 401.912 768.596 401.397 769.735 401.963C770.932 402.61 771.086 403.931 771.189 404.805C771.373 406.366 771.302 407.393 771.255 408.074C771.237 408.323 771.218 408.603 771.231 408.699C771.347 409.469 774.816 410.469 776.119 410.853C779.051 411.705 781.588 412.443 781.732 414.621C781.837 416.179 780.543 417.55 777.779 418.803C776.918 419.193 776.098 419.41 775.394 419.55C775.699 420.011 775.894 420.587 775.753 421.277C775.418 422.909 773.464 423.767 769.945 423.831C769.069 423.85 767.893 423.87 766.456 423.461C765.779 423.268 765.203 423.023 764.715 422.806C764.57 423.079 764.36 423.35 764.041 423.579C763.104 424.253 761.859 424.19 760.348 423.335C758.673 422.419 757.417 421.411 756.307 420.524C755.338 419.75 754.501 419.087 753.74 418.782C752.321 418.235 750.741 418.822 748.823 419.646L744.003 421.769Z" fill="#F2F2F2"/>
<path d="M694.053 541.365L693.173 539.97L691.624 539.432C691.667 539.284 691.738 538.933 691.853 538.384C692.488 535.382 694.417 526.242 698.939 512.561C702.096 503.012 705.88 493.453 710.188 484.146C714.504 474.825 718.312 468.029 721.371 462.566C723.68 458.446 725.947 454.556 728.158 450.768C734.063 440.646 739.638 431.084 744.342 419.792C745.394 417.272 747.58 412.025 747.209 405.144C746.994 401.154 745.954 397.202 744.116 393.403L747.086 391.966C749.113 396.164 750.262 400.539 750.501 404.97C750.912 412.598 748.53 418.316 747.386 421.063C742.599 432.554 736.968 442.208 731.006 452.427C728.805 456.202 726.546 460.074 724.247 464.178C721.216 469.59 717.441 476.327 713.182 485.529C708.924 494.724 705.186 504.166 702.068 513.595C697.604 527.103 695.705 536.107 695.081 539.065C694.746 540.644 694.676 540.975 694.053 541.365Z" fill="#F2F2F2"/>
<path d="M736.396 395.503C736.274 395.444 736.153 395.382 736.032 395.313C733.567 393.96 731.953 391.319 731.231 387.463C730.895 385.651 731.129 383.881 731.594 380.35C731.665 379.805 732.058 377.057 733.178 373.555C733.909 371.267 734.378 370.388 735.184 369.801C736.079 369.145 737.138 368.897 738.197 368.896C738.296 368.593 738.467 368.315 738.734 368.075C739.836 367.08 741.105 367.89 741.795 368.318C742.141 368.542 742.572 368.824 743.081 369.036C743.879 369.374 744.41 369.344 745.213 369.301C745.981 369.26 746.937 369.208 748.168 369.519C750.601 370.121 752.152 371.638 752.664 372.138C755.362 374.754 755.745 378.014 756.188 381.789C756.274 382.545 756.513 385.261 755.949 388.555C755.542 390.931 755.011 391.819 754.499 392.423C753.451 393.666 752.197 394.064 749.143 394.802C745.951 395.579 744.349 395.966 743.088 396.063C740.154 396.285 738.311 396.424 736.396 395.503Z" fill="#F2F2F2"/>
<path d="M672.932 555.872H512.62C488.575 555.872 469.013 536.31 469.013 512.265V88.473C469.013 64.4282 488.575 44.8661 512.62 44.8661H672.932C696.977 44.8661 716.539 64.4282 716.539 88.473C719.523 258.655 724.612 449.231 716.539 512.265C716.539 536.31 696.977 555.872 672.932 555.872Z" fill="#3F3D56"/>
<path d="M718.774 200.75C717.757 200.75 716.93 201.578 716.93 202.595V261.628C716.93 262.646 717.757 263.473 718.774 263.473C719.792 263.473 720.619 262.646 720.619 261.628V202.595C720.619 201.578 719.792 200.75 718.774 200.75Z" fill="#3F3D56"/>
<path d="M701.469 93.7937L712.389 512.257C712.389 533.187 696.099 550.306 675.502 551.634H675.493C675.188 551.653 674.884 551.671 674.57 551.681C674.026 551.708 673.482 551.717 672.929 551.717C672.929 551.717 670.899 551.57 667.191 551.293C663.446 551.016 657.995 550.601 651.197 550.057C649.158 549.9 647.009 549.725 644.74 549.541C640.221 549.172 635.258 548.766 629.936 548.305C627.814 548.129 625.619 547.936 623.378 547.742C611.921 546.755 599.091 545.602 585.56 544.292C583.272 544.08 580.966 543.859 578.642 543.628C578.033 543.563 473.164 517.202 473.164 512.257V88.4734C473.164 66.6773 490.828 49.0134 512.624 49.0134H536.182C539.946 49.0134 542.971 51.9466 543.294 55.7008C543.322 55.9498 543.349 56.1988 543.395 56.4479C544.078 60.2205 547.537 62.8493 551.374 62.8493H634.179C638.016 62.8493 641.475 60.2205 642.158 56.4479C642.204 56.1989 642.231 55.9498 642.259 55.7008C642.582 51.9466 645.607 49.0134 649.371 49.0134H672.929C694.725 49.0134 701.469 71.9977 701.469 93.7937Z" fill="#F7F6FF"/>
<path d="M468.091 156.476C467.074 156.476 466.246 157.303 466.246 158.321V173.079C466.246 174.096 467.074 174.924 468.091 174.924C469.108 174.924 469.936 174.096 469.936 173.079V158.321C469.936 157.303 469.108 156.476 468.091 156.476Z" fill="#3F3D56"/>
<path d="M468.091 200.75C467.074 200.75 466.246 201.578 466.246 202.595V231.189C466.246 232.207 467.074 233.034 468.091 233.034C469.108 233.034 469.936 232.207 469.936 231.189V202.595C469.936 201.578 469.108 200.75 468.091 200.75Z" fill="#3F3D56"/>
<path d="M468.091 241.336C467.074 241.336 466.246 242.163 466.246 243.181V271.775C466.246 272.792 467.074 273.62 468.091 273.62C469.108 273.62 469.936 272.792 469.936 271.775V243.181C469.936 242.163 469.108 241.336 468.091 241.336Z" fill="#3F3D56"/>
<path d="M535.577 55.4738H500.224C500.052 55.4738 499.914 55.6126 499.914 55.784V59.7755C499.914 59.9468 500.052 60.0857 500.224 60.0857H535.577C535.748 60.0857 535.887 59.9468 535.887 59.7755V55.784C535.887 55.6126 535.748 55.4738 535.577 55.4738Z" fill="#E6E6E6"/>
<path d="M655.2 60.0857C657.238 60.0857 658.889 58.4338 658.889 56.3961C658.889 54.3584 657.238 52.7065 655.2 52.7065C653.162 52.7065 651.51 54.3584 651.51 56.3961C651.51 58.4338 653.162 60.0857 655.2 60.0857Z" fill="#E6E6E6"/>
<path d="M665.346 60.0857C667.384 60.0857 669.036 58.4338 669.036 56.3961C669.036 54.3584 667.384 52.7065 665.346 52.7065C663.309 52.7065 661.657 54.3584 661.657 56.3961C661.657 58.4338 663.309 60.0857 665.346 60.0857Z" fill="#E6E6E6"/>
<path d="M675.493 60.0857C677.53 60.0857 679.182 58.4338 679.182 56.3961C679.182 54.3584 677.53 52.7065 675.493 52.7065C673.455 52.7065 671.803 54.3584 671.803 56.3961C671.803 58.4338 673.455 60.0857 675.493 60.0857Z" fill="#E6E6E6"/>
<path d="M588.904 267.458C617.898 267.458 641.403 243.954 641.403 214.96C641.403 185.965 617.898 162.461 588.904 162.461C559.91 162.461 536.405 185.965 536.405 214.96C536.405 243.954 559.91 267.458 588.904 267.458Z" fill="#1300FF"/>
<path d="M592.051 412.788H358.335C348.926 412.788 341.272 405.133 341.272 395.725V218.997C341.272 209.589 348.926 201.934 358.335 201.934H592.051C601.459 201.934 609.113 209.589 609.113 218.997V395.725C609.113 405.133 601.459 412.788 592.051 412.788Z" fill="white"/>
<path d="M592.051 412.788H358.335C348.926 412.788 341.272 405.133 341.272 395.725V218.997C341.272 209.589 348.926 201.934 358.335 201.934H592.051C601.459 201.934 609.113 209.589 609.113 218.997V395.725C609.113 405.133 601.459 412.788 592.051 412.788ZM358.335 204.784C350.498 204.784 344.121 211.16 344.121 218.997V395.725C344.121 403.563 350.498 409.939 358.335 409.939H592.051C599.888 409.939 606.264 403.563 606.264 395.725V218.997C606.264 211.16 599.888 204.784 592.051 204.784H358.335Z" fill="#3F3D56"/>
<path d="M566.373 223.305C568.733 223.305 570.647 221.391 570.647 219.031C570.647 216.67 568.733 214.757 566.373 214.757C564.012 214.757 562.099 216.67 562.099 219.031C562.099 221.391 564.012 223.305 566.373 223.305Z" fill="#3F3D56"/>
<path d="M577.77 223.305C580.131 223.305 582.044 221.391 582.044 219.031C582.044 216.67 580.131 214.757 577.77 214.757C575.41 214.757 573.496 216.67 573.496 219.031C573.496 221.391 575.41 223.305 577.77 223.305Z" fill="#3F3D56"/>
<path d="M589.168 223.305C591.528 223.305 593.442 221.391 593.442 219.031C593.442 216.67 591.528 214.757 589.168 214.757C586.807 214.757 584.894 216.67 584.894 219.031C584.894 221.391 586.807 223.305 589.168 223.305Z" fill="#3F3D56"/>
<path d="M365.492 288.128C364.313 288.128 363.354 289.087 363.354 290.265C363.354 290.84 363.576 291.371 363.979 291.763C364.385 292.179 364.918 292.402 365.492 292.402H586.318C587.497 292.402 588.455 291.443 588.455 290.265C588.455 289.69 588.234 289.159 587.831 288.767C587.424 288.351 586.892 288.128 586.318 288.128H365.492Z" fill="#E6E6E6"/>
<path d="M546.427 287.416V293.115H365.492C364.708 293.115 363.996 292.801 363.483 292.274C362.956 291.761 362.642 291.049 362.642 290.265C362.642 288.698 363.924 287.416 365.492 287.416L546.427 287.416Z" fill="#1300FF"/>
<path d="M582.757 276.731H554.263C551.121 276.731 548.564 274.175 548.564 271.032C548.564 267.889 551.121 265.333 554.263 265.333H582.757C585.899 265.333 588.456 267.889 588.456 271.032C588.456 274.175 585.899 276.731 582.757 276.731Z" fill="#E6E6E6"/>
<path d="M396.122 246.812H367.629C364.486 246.812 361.93 244.256 361.93 241.113C361.93 237.97 364.486 235.415 367.629 235.415H396.122C399.265 235.415 401.821 237.97 401.821 241.113C401.821 244.256 399.265 246.812 396.122 246.812Z" fill="#E6E6E6"/>
<path d="M365.492 352.239C364.313 352.239 363.354 353.198 363.354 354.376C363.354 354.951 363.576 355.482 363.979 355.874C364.385 356.29 364.918 356.513 365.492 356.513H586.318C587.497 356.513 588.455 355.554 588.455 354.376C588.455 353.801 588.234 353.27 587.831 352.878C587.424 352.462 586.892 352.239 586.318 352.239H365.492Z" fill="#E6E6E6"/>
<path d="M436.726 351.527V357.225H365.492C364.708 357.225 363.996 356.912 363.483 356.385C362.956 355.872 362.642 355.16 362.642 354.376C362.642 352.809 363.924 351.527 365.492 351.527L436.726 351.527Z" fill="#1300FF"/>
<path d="M582.757 340.842H554.263C551.121 340.842 548.564 338.286 548.564 335.143C548.564 332 551.121 329.444 554.263 329.444H582.757C585.899 329.444 588.456 332 588.456 335.143C588.456 338.286 585.899 340.842 582.757 340.842Z" fill="#E6E6E6"/>
<path d="M209.297 296.849C215.112 288.563 215.551 278.847 210.277 275.147C205.003 271.447 196.016 275.165 190.2 283.454C187.831 286.734 186.282 290.533 185.683 294.533L161.487 329.951L178.35 340.951L200.412 304.868C203.972 302.943 207.018 300.193 209.297 296.849Z" fill="#A0616A"/>
<path d="M62.8809 340.666C78.962 375.056 107.398 430.326 126.599 436.309C133.217 438.376 139.911 433.578 146.273 425.035C164.697 400.335 180.37 344.297 183.546 332.455C183.935 331.013 184.134 330.226 184.134 330.226L168.176 320.157L166.792 319.284L142.594 352.556L135.142 362.797C135.142 362.797 135.493 357.695 136.318 349.484L98.1627 330.795C98.1627 330.795 77.2079 334.285 62.8809 340.666Z" fill="#3F3D56"/>
<path d="M143.675 333.64C166.193 333.64 184.447 315.386 184.447 292.868C184.447 270.351 166.193 252.096 143.675 252.096C121.158 252.096 102.904 270.351 102.904 292.868C102.904 315.386 121.158 333.64 143.675 333.64Z" fill="#A0616A"/>
<path d="M121.312 555.872H90.7216C88.4415 553.512 86.1915 551.112 83.9816 548.692C81.7015 546.212 79.4816 543.712 77.2815 541.182C97.2815 537.052 113.802 534.182 113.802 534.182C113.802 534.182 114.252 535.532 115.091 537.962C116.361 541.702 118.512 547.972 121.312 555.872Z" fill="#2F2E41"/>
<path d="M156.476 329.373L140.241 357.934L93.8958 340.751L111.911 304.72L156.476 329.373Z" fill="#A0616A"/>
<path d="M184.921 291.446L193.455 290.498L195.351 284.809H204.374L204.833 287.653L219.056 290.498L216.2 331.327L209.574 337.907L191.559 336.01L189.662 303.772H184.921V291.446Z" fill="#2F2E41"/>
<path d="M214.315 302.824L293.962 299.979L295.859 336.959L211.47 332.218L214.315 302.824Z" fill="#2F2E41"/>
<path d="M159.32 288.601L162.165 301.876L167.283 288.601L173.762 282.744L176.388 272.482C176.388 272.482 192.507 287.653 190.61 276.275C188.714 264.897 186.818 255.415 177.336 254.467C167.854 253.519 161.217 255.811 156.476 253.716C151.735 251.622 151.735 236.451 143.201 242.14C134.668 247.83 132.771 251.622 126.134 252.57C119.497 253.519 95.7921 244.985 96.7403 264.897C97.6885 284.809 106.222 290.498 103.378 304.72C100.533 318.943 127.082 320.84 127.082 320.84C127.082 320.84 136.564 320.84 136.564 307.565C136.564 294.29 159.32 288.601 159.32 288.601Z" fill="#2F2E41"/>
<path d="M147.022 457.212V457.222L130.422 479.872L130.182 492.872L129.452 531.812L115.092 537.962L110.032 555.872H87.1216C85.9116 554.482 85.6917 554.842 85.8816 555.872H0.681641C3.94165 544.492 9.75171 518.852 15.4116 492.872C23.2816 456.732 30.8416 419.922 30.8416 419.922C30.8416 419.922 43.1716 352.602 56.4417 344.072C58.3217 342.852 60.5117 341.732 62.8816 340.672C66.4617 339.072 70.4617 337.662 74.4316 336.432C76.4817 335.802 78.5216 335.222 80.5117 334.692C81.8315 334.342 83.1316 334.012 84.3716 333.702C85.0017 333.552 85.6116 333.402 86.2117 333.262C87.4116 332.972 88.5617 332.712 89.6316 332.482C90.0216 332.392 90.4016 332.312 90.7716 332.232C91.0516 332.172 91.3217 332.122 91.5916 332.062C91.9016 331.992 92.2017 331.932 92.4917 331.872C92.7816 331.812 93.0717 331.752 93.3416 331.702C93.6516 331.642 93.9517 331.582 94.2417 331.522C94.5316 331.462 94.8016 331.412 95.0617 331.362C95.3217 331.312 95.5717 331.262 95.8016 331.222C96.0316 331.182 96.2417 331.142 96.4417 331.102C96.7417 331.042 97.0117 330.992 97.2317 330.952C97.3816 330.932 97.5117 330.902 97.6316 330.882C97.9817 330.822 98.1616 330.792 98.1616 330.792L98.7217 331.072H98.7317L136.322 349.492L142.582 352.562H142.592L143.142 352.822L144.622 353.552L144.742 358.912L146.272 425.032L147.022 457.212Z" fill="#3F3D56"/>
<path d="M221.281 329.792C220.282 319.719 214.274 312.069 207.864 312.706C201.453 313.343 197.068 322.024 198.069 332.1C198.413 336.131 199.718 340.021 201.874 343.444L206.645 386.071L226.601 383.406L219.779 341.666C221.22 337.885 221.735 333.813 221.281 329.792Z" fill="#A0616A"/>
<path d="M136.564 361.611C136.564 361.611 165.958 347.389 177.336 374.886C188.714 402.383 201.277 425.733 201.277 425.733L204.833 372.041H225.338C225.338 372.041 261.724 484.875 233.279 492.46C204.833 500.046 103.378 428.932 103.378 428.932L136.564 361.611Z" fill="#3F3D56"/>
</g>
<defs>
<clipPath id="clip0_2_4848">
<rect width="830.444" height="581.975" fill="white" transform="translate(0.681641 0.245117)"/>
</clipPath>
</defs>
</svg>
