<svg width="525" height="628" viewBox="0 0 525 628" fill="none" xmlns="http://www.w3.org/2000/svg">
<g clip-path="url(#clip0_2_5402)">
<path d="M420.808 216.96H369.046V199.917C369.046 171.349 392.24 148.155 420.808 148.155L420.808 216.96Z" fill="#2F2E41"/>
<path d="M409.335 185.144L418.235 225.174L366.083 216.514L387.335 178.656L409.335 185.144Z" fill="#A0616A"/>
<path opacity="0.1" d="M409.335 185.144L418.235 225.174L366.083 216.514L387.335 178.656L409.335 185.144Z" fill="black"/>
<path d="M359.335 344.656H409.335V270.656H359.335V344.656Z" fill="#A0616A"/>
<path d="M441.835 405.156L430.835 464.156C430.835 464.156 437.835 505.156 416.835 547.156L402.835 590.156L381.835 587.156C381.835 587.156 394.835 555.156 394.835 541.156C394.835 527.156 397.835 473.156 397.835 473.156L396.335 411.538L441.835 405.156Z" fill="#2F2E41"/>
<path d="M378.835 586.156C378.835 586.156 402.835 577.156 404.835 590.156L403.835 596.156C403.835 596.156 412.835 623.156 399.835 625.156C386.835 627.156 374.835 630.156 373.835 624.156C372.835 618.156 372.851 610.666 375.343 605.411C377.835 600.156 378.835 586.156 378.835 586.156Z" fill="#2F2E41"/>
<path d="M366.134 396.003L360.292 455.735C360.292 455.735 342.166 493.171 350.657 539.354L352.146 584.551L373.152 587.51C373.152 587.51 369.564 553.157 373.457 539.709C377.351 526.262 389.487 473.558 389.487 473.558L408.065 414.788L366.134 396.003Z" fill="#2F2E41"/>
<path d="M376.311 587.384C376.311 587.384 355.761 572.064 350.225 583.995L349.516 590.037C349.516 590.037 333.363 613.468 345.294 619.005C357.224 624.541 367.917 630.76 370.546 625.275C373.175 619.79 375.243 612.591 374.311 606.851C373.378 601.11 376.311 587.384 376.311 587.384Z" fill="#2F2E41"/>
<path d="M429.835 310.656C453.354 332.603 455.099 367.329 441.335 408.656C441.335 408.656 397.335 438.656 365.335 400.656L349.335 323.656L429.835 310.656Z" fill="#2F2E41"/>
<path d="M390.335 203.656L415.335 207.656L413.335 270.656L441.335 326.656L405.335 344.656C405.335 344.656 377.335 291.656 372.335 258.656C367.335 225.656 370.335 201.656 370.335 201.656L390.335 203.656Z" fill="#1300FF"/>
<path d="M371.335 205.656L346.335 209.656L348.335 272.656L342.335 330.656L356.335 346.656C356.335 346.656 384.335 293.656 389.335 260.656C394.335 227.656 391.335 203.656 391.335 203.656L371.335 205.656Z" fill="#1300FF"/>
<path d="M401.335 207.156L406.835 205.656C406.835 205.656 426.335 203.156 429.335 211.156C432.335 219.156 431.335 266.156 431.335 266.156C431.335 266.156 436.495 323.841 416.415 324.498C396.335 325.156 400.335 277.156 400.335 277.156L401.335 207.156Z" fill="#1300FF"/>
<path d="M400.609 196.129C414.902 196.129 426.49 184.542 426.49 170.248C426.49 155.955 414.902 144.367 400.609 144.367C386.315 144.367 374.728 155.955 374.728 170.248C374.728 184.542 386.315 196.129 400.609 196.129Z" fill="#A0616A"/>
<path d="M368.335 209.156L362.835 207.656C362.835 207.656 343.335 205.156 340.335 213.156C337.335 221.156 338.335 268.156 338.335 268.156C338.335 268.156 333.175 325.841 353.255 326.498C373.335 327.156 369.335 279.156 369.335 279.156L368.335 209.156Z" fill="#00BFA6"/>
<path d="M385.658 205.868C380.106 204.459 373.811 210.389 371.596 219.116C370.664 222.59 370.577 226.237 371.343 229.752L368.957 239.672L368.782 239.663L349.964 284.012C345.588 294.323 346.05 306.161 351.631 315.874C354.951 321.651 359.309 325.535 364.426 321.57C372.917 314.991 378.463 277.321 380.995 255.682L386.85 233.686C389.2 230.962 390.864 227.714 391.701 224.214C393.916 215.49 391.21 207.276 385.658 205.868Z" fill="#A0616A"/>
<path d="M351.06 191.187C352.376 187.184 354.975 183.679 356.138 179.629C357.682 174.251 360.969 186.182 361.289 180.596C361.899 169.979 378.102 142.67 387.352 137.424C396.603 132.178 401.915 133.76 411.34 138.686C411.34 138.686 415.914 138.977 421.609 141.789C427.305 144.601 432.431 149.104 434.646 155.056C436.402 159.775 436.208 164.956 436.794 169.956C438.429 183.886 446.237 197.134 444.561 211.059C444.038 215.404 442.387 219.896 438.835 222.452C435.283 225.007 429.544 224.729 427.206 221.03C426.408 219.768 426.07 218.271 425.386 216.943C424.703 215.616 423.467 214.378 421.974 214.42C419.731 214.482 418.589 217.492 419.474 219.555C420.358 221.618 422.437 222.863 424.389 223.971C419.74 226.062 413.973 225.411 409.908 222.335C405.842 219.26 403.647 213.887 404.395 208.844C405.449 201.738 415.801 203.209 417.021 196.13C417.909 190.976 421.026 182.352 420.177 177.192C419.328 172.032 415.249 178.28 419.546 175.298C414.819 177.577 404.708 161.989 399.76 160.243C394.812 158.497 390.616 154.716 388.366 149.975C383.118 157.584 378.501 155.518 376.621 164.567C374.742 173.617 376.479 194.177 384.219 199.23C381.122 201.343 378.653 204.365 377.199 207.822C376.376 209.78 375.842 211.923 374.476 213.549C371.866 216.655 367.046 216.844 363.205 215.538C358.442 213.919 354.37 210.362 352.125 205.86C349.879 201.358 349.488 195.965 351.06 191.187Z" fill="#2F2E41"/>
<path d="M0 626.253C0 626.913 0.53003 627.443 1.19006 627.443H523.48C524.14 627.443 524.67 626.913 524.67 626.253C524.67 625.593 524.14 625.063 523.48 625.063H1.19006C0.53003 625.063 0 625.593 0 626.253Z" fill="#3F3D56"/>
<path d="M340.037 1.11694H134.369C111.046 1.11694 92.1387 20.0239 92.1387 43.3469V583.78C92.1387 607.103 111.046 626.01 134.369 626.01H340.037C363.36 626.01 382.267 607.103 382.267 583.78V43.3469C382.267 20.0239 363.36 1.11694 340.037 1.11694Z" fill="#F7F6FF"/>
<path d="M340.038 627.009H134.369C110.532 627.009 91.1387 607.617 91.1387 583.78V43.3472C91.1387 19.5103 110.532 0.117188 134.369 0.117188H340.038C363.875 0.117188 383.268 19.5103 383.268 43.3472V583.78C383.268 607.617 363.874 627.009 340.038 627.009ZM134.369 2.11719C111.634 2.11719 93.1387 20.6128 93.1387 43.3472V583.78C93.1387 606.514 111.634 625.009 134.369 625.009H340.038C362.772 625.009 381.268 606.514 381.268 583.78V43.3472C381.268 20.6128 362.772 2.11719 340.038 2.11719H134.369Z" fill="#3F3D56"/>
<path d="M75.1435 94.6836C73.3379 94.6836 71.8696 96.1519 71.8696 97.9575V124.149C71.8696 125.955 73.3379 127.423 75.1435 127.423C76.9492 127.423 78.4175 125.955 78.4175 124.149V97.9575C78.4175 96.1519 76.9492 94.6836 75.1435 94.6836Z" fill="#3F3D56"/>
<path d="M354.936 87.5785H272.268C268.761 87.5785 265.909 84.7258 265.909 81.2194C265.909 77.7131 268.761 74.8604 272.268 74.8604H354.936C358.442 74.8604 361.295 77.7131 361.295 81.2194C361.295 84.7258 358.442 87.5785 354.936 87.5785Z" fill="#E6E6E6"/>
<path d="M277.382 137.586H197.025C194.999 137.586 193.351 135.937 193.351 133.912C193.351 131.886 194.999 130.238 197.025 130.238H277.382C279.408 130.238 281.055 131.886 281.055 133.912C281.055 135.937 279.408 137.586 277.382 137.586Z" fill="#1300FF"/>
<path d="M78.3223 155.719C114.165 155.719 143.221 127.275 143.221 92.1871C143.221 57.0996 114.165 28.6555 78.3223 28.6555C42.4796 28.6555 13.4233 57.0996 13.4233 92.1871C13.4233 127.275 42.4796 155.719 78.3223 155.719Z" fill="#1300FF"/>
<path d="M100.349 60.1416C91.7091 75.8742 83.069 91.607 74.4289 107.34C68.9223 97.6102 63.4457 87.8635 57.9255 78.1416C56.019 74.784 50.8334 77.8039 52.7447 81.1699C59.1438 92.4398 65.4766 103.747 71.8757 115.017C72.9699 116.944 75.9737 116.989 77.0566 115.017C86.5477 97.7346 96.0389 80.4522 105.53 63.1699C107.39 59.7834 102.21 56.7525 100.349 60.1416Z" fill="white"/>
<path d="M163.806 14.7751H117.928C117.757 14.7751 117.618 14.914 117.618 15.0854V20.4262C117.618 20.5976 117.757 20.7364 117.928 20.7364H163.806C163.977 20.7364 164.116 20.5976 164.116 20.4262V15.0854C164.116 14.914 163.977 14.7751 163.806 14.7751Z" fill="#E6E6E6"/>
<path d="M318.336 20.7363C320.97 20.7363 323.105 18.6011 323.105 15.9673C323.105 13.3334 320.97 11.1982 318.336 11.1982C315.703 11.1982 313.567 13.3334 313.567 15.9673C313.567 18.6011 315.703 20.7363 318.336 20.7363Z" fill="#E6E6E6"/>
<path d="M331.451 20.7363C334.085 20.7363 336.22 18.6011 336.22 15.9673C336.22 13.3334 334.085 11.1982 331.451 11.1982C328.817 11.1982 326.682 13.3334 326.682 15.9673C326.682 18.6011 328.817 20.7363 331.451 20.7363Z" fill="#E6E6E6"/>
<path d="M344.566 20.7363C347.2 20.7363 349.335 18.6011 349.335 15.9673C349.335 13.3334 347.2 11.1982 344.566 11.1982C341.932 11.1982 339.797 13.3334 339.797 15.9673C339.797 18.6011 341.932 20.7363 344.566 20.7363Z" fill="#E6E6E6"/>
<path d="M133.868 157.253C133.868 157.913 134.398 158.443 135.058 158.443H339.348C340.008 158.443 340.538 157.913 340.538 157.253C340.538 156.593 340.008 156.063 339.348 156.063H135.058C134.398 156.063 133.868 156.593 133.868 157.253Z" fill="#3F3D56"/>
<path d="M319.758 250.784H197.16C195.134 250.784 193.485 249.135 193.485 247.11C193.485 245.084 195.134 243.436 197.16 243.436H319.758C321.784 243.436 323.431 245.084 323.431 247.11C323.431 249.135 321.784 250.784 319.758 250.784Z" fill="#1300FF"/>
<path d="M319.758 303.784H197.16C195.134 303.784 193.485 302.135 193.485 300.11C193.485 298.084 195.134 296.436 197.16 296.436H319.758C321.784 296.436 323.431 298.084 323.431 300.11C323.431 302.135 321.784 303.784 319.758 303.784Z" fill="#1300FF"/>
<path d="M319.758 356.784H197.16C195.134 356.784 193.485 355.135 193.485 353.11C193.485 351.084 195.134 349.436 197.16 349.436H319.758C321.784 349.436 323.431 351.084 323.431 353.11C323.431 355.135 321.784 356.784 319.758 356.784Z" fill="#1300FF"/>
<path d="M159.975 255.656C164.946 255.656 168.975 251.626 168.975 246.656C168.975 241.685 164.946 237.656 159.975 237.656C155.005 237.656 150.975 241.685 150.975 246.656C150.975 251.626 155.005 255.656 159.975 255.656Z" fill="#1300FF"/>
<path d="M158.975 261.656V259.656C166.419 259.656 172.475 253.6 172.475 246.156C172.475 238.712 166.419 232.656 158.975 232.656V230.656C167.522 230.656 174.475 237.609 174.475 246.156C174.475 254.703 167.522 261.656 158.975 261.656Z" fill="#3F3D56"/>
<path d="M159.975 308.656C164.946 308.656 168.975 304.626 168.975 299.656C168.975 294.685 164.946 290.656 159.975 290.656C155.005 290.656 150.975 294.685 150.975 299.656C150.975 304.626 155.005 308.656 159.975 308.656Z" fill="#1300FF"/>
<path d="M158.975 314.656V312.656C166.419 312.656 172.475 306.6 172.475 299.156C172.475 291.712 166.419 285.656 158.975 285.656V283.656C167.522 283.656 174.475 290.609 174.475 299.156C174.475 307.703 167.522 314.656 158.975 314.656Z" fill="#3F3D56"/>
<path d="M159.975 361.656C164.946 361.656 168.975 357.626 168.975 352.656C168.975 347.685 164.946 343.656 159.975 343.656C155.005 343.656 150.975 347.685 150.975 352.656C150.975 357.626 155.005 361.656 159.975 361.656Z" fill="#1300FF"/>
<path d="M158.975 367.656V365.656C166.419 365.656 172.475 359.6 172.475 352.156C172.475 344.711 166.419 338.656 158.975 338.656V336.656C167.522 336.656 174.475 343.609 174.475 352.156C174.475 360.703 167.522 367.656 158.975 367.656Z" fill="#3F3D56"/>
<path d="M384.012 203.868C389.564 202.459 395.859 208.389 398.073 217.116C399.006 220.59 399.093 224.237 398.327 227.752L400.713 237.672L400.888 237.663L419.706 282.012C424.082 292.323 423.619 304.161 418.039 313.874C414.719 319.651 410.361 323.535 405.244 319.57C396.753 312.991 391.207 275.321 388.675 253.682L382.82 231.686C380.469 228.962 378.806 225.714 377.969 222.214C375.754 213.49 378.46 205.276 384.012 203.868Z" fill="#A0616A"/>
<path d="M405.389 228.17L384.335 243.136L394.862 309.43L408.065 326.505L423.444 321.186L427.941 289.847L422.649 259.54L405.389 228.17Z" fill="#1300FF"/>
</g>
<defs>
<clipPath id="clip0_2_5402">
<rect width="524.67" height="627.583" fill="white" transform="translate(0 0.117188)"/>
</clipPath>
</defs>
</svg>
