<svg width="49" height="48" viewBox="0 0 49 48" fill="none" xmlns="http://www.w3.org/2000/svg">
<path d="M36.75 37.7201H35.23C33.63 37.7201 32.11 38.3401 30.99 39.4601L27.57 42.8402C26.01 44.3802 23.47 44.3802 21.91 42.8402L18.49 39.4601C17.37 38.3401 15.83 37.7201 14.25 37.7201H12.75C9.43 37.7201 6.75 35.0602 6.75 31.7802V9.96008C6.75 6.68008 9.43 4.02014 12.75 4.02014H36.75C40.07 4.02014 42.75 6.68008 42.75 9.96008V31.7802C42.75 35.0402 40.07 37.7201 36.75 37.7201Z" stroke="#1300FF" stroke-width="3" stroke-miterlimit="10" stroke-linecap="round" stroke-linejoin="round"/>
<path d="M14.75 18.3202C14.75 16.4602 16.27 14.9401 18.13 14.9401C19.99 14.9401 21.51 16.4602 21.51 18.3202C21.51 22.0802 16.17 22.4802 14.99 26.0602C14.75 26.8002 15.37 27.5402 16.15 27.5402H21.51" stroke="#1300FF" stroke-width="3" stroke-linecap="round" stroke-linejoin="round"/>
<path d="M32.83 27.5201V16.1002C32.83 15.5802 32.49 15.1201 31.99 14.9801C31.49 14.8401 30.95 15.0401 30.67 15.4801C29.23 17.8001 27.67 20.4401 26.31 22.7601C26.09 23.1401 26.09 23.6401 26.31 24.0201C26.53 24.4001 26.95 24.64 27.41 24.64H34.75" stroke="#1300FF" stroke-width="3" stroke-linecap="round" stroke-linejoin="round"/>
</svg>
