<svg width="49" height="48" viewBox="0 0 49 48" fill="none" xmlns="http://www.w3.org/2000/svg">
<g clip-path="url(#clip0_156_1010)">
<path d="M44.12 7.88012C41.04 15.5601 33.32 26.0001 26.86 31.1801L22.92 34.3401C22.42 34.7001 21.92 35.0201 21.36 35.2401C21.36 34.8801 21.34 34.4801 21.28 34.1001C21.06 32.4201 20.3 30.8601 18.96 29.5201C17.6 28.1601 15.94 27.3601 14.24 27.1401C13.84 27.1201 13.44 27.0801 13.04 27.1201C13.26 26.5001 13.6 25.9201 14.02 25.4401L17.14 21.5001C22.3 15.0401 32.78 7.28012 40.44 4.22012C41.62 3.78012 42.76 4.10012 43.48 4.84012C44.24 5.58012 44.6 6.72012 44.12 7.88012Z" stroke="#1300FF" stroke-width="3" stroke-linecap="round" stroke-linejoin="round"/>
<path d="M21.3601 35.2402C21.3601 37.4402 20.5201 39.5402 18.9401 41.1402C17.7201 42.3602 16.0601 43.2002 14.0801 43.4602L9.16006 44.0002C6.48006 44.3002 4.18006 42.0202 4.50006 39.3002L5.04006 34.3802C5.52006 30.0002 9.18006 27.2002 13.0601 27.1202C13.4601 27.1002 13.8801 27.1202 14.2601 27.1402C15.9601 27.3602 17.6201 28.1402 18.9801 29.5202C20.3201 30.8602 21.0801 32.4202 21.3001 34.1002C21.3201 34.4802 21.3601 34.8602 21.3601 35.2402Z" stroke="#1300FF" stroke-width="3" stroke-linecap="round" stroke-linejoin="round"/>
<path d="M28.98 28.9401C28.98 23.7201 24.74 19.4801 19.52 19.4801" stroke="#1300FF" stroke-width="3" stroke-linecap="round" stroke-linejoin="round"/>
<path d="M40.7399 25.4601L42.2199 26.9201C45.1999 29.9001 45.1999 32.8401 42.2199 35.8201L36.2999 41.7401C33.3599 44.6801 30.3799 44.6801 27.4399 41.7401" stroke="#1300FF" stroke-width="3" stroke-linecap="round"/>
<path d="M6.72014 21.0202C3.78014 18.0402 3.78014 15.1002 6.72014 12.1202L12.6401 6.20024C15.5801 3.26024 18.5601 3.26024 21.5001 6.20024L22.9801 7.68024" stroke="#1300FF" stroke-width="3" stroke-linecap="round"/>
<path d="M23.0001 7.70007L15.6001 15.1001" stroke="#1300FF" stroke-width="3" stroke-linecap="round"/>
<path d="M40.7398 25.4601L34.8198 31.3601" stroke="#1300FF" stroke-width="3" stroke-linecap="round"/>
</g>
<defs>
<clipPath id="clip0_156_1010">
<rect width="48" height="48" fill="white" transform="translate(0.5 0.00012207)"/>
</clipPath>
</defs>
</svg>
