<svg width="48" height="48" viewBox="0 0 48 48" fill="none" xmlns="http://www.w3.org/2000/svg">
<path d="M40 14.0001V34.0001C40 42.0001 38 44.0001 30 44.0001H18C10 44.0001 8 42.0001 8 34.0001V14.0001C8 6.00012 10 4.00012 18 4.00012H30C38 4.00012 40 6.00012 40 14.0001Z" stroke="#1300FF" stroke-width="3" stroke-linecap="round" stroke-linejoin="round"/>
<path d="M28 11.0001H20" stroke="#1300FF" stroke-width="3" stroke-linecap="round" stroke-linejoin="round"/>
<path d="M23.9999 38.2001C25.712 38.2001 27.0999 36.8122 27.0999 35.1001C27.0999 33.388 25.712 32.0001 23.9999 32.0001C22.2878 32.0001 20.8999 33.388 20.8999 35.1001C20.8999 36.8122 22.2878 38.2001 23.9999 38.2001Z" stroke="#1300FF" stroke-width="3" stroke-linecap="round" stroke-linejoin="round"/>
</svg>
