<svg width="24" height="25" viewBox="0 0 24 25" fill="none" xmlns="http://www.w3.org/2000/svg">
<path fill-rule="evenodd" clip-rule="evenodd" d="M12 2.78906C6.477 2.78906 2 7.26606 2 12.7891C2 14.6791 2.525 16.4491 3.438 17.9571L2.546 20.9891C2.49478 21.1631 2.49141 21.3478 2.53624 21.5236C2.58107 21.6995 2.67245 21.86 2.80076 21.9883C2.92907 22.1166 3.08958 22.208 3.26542 22.2528C3.44125 22.2976 3.62592 22.2943 3.8 22.2431L6.832 21.3511C8.39074 22.294 10.1782 22.7914 12 22.7891C17.523 22.7891 22 18.3121 22 12.7891C22 7.26606 17.523 2.78906 12 2.78906ZM9.738 15.0521C11.761 17.0741 13.692 17.3411 14.374 17.3661C15.411 17.4041 16.421 16.6121 16.814 15.6931C16.8632 15.5787 16.881 15.4532 16.8655 15.3296C16.85 15.206 16.8019 15.0888 16.726 14.9901C16.178 14.2901 15.437 13.7871 14.713 13.2871C14.5619 13.1823 14.3761 13.1402 14.1946 13.1697C14.0131 13.1992 13.8502 13.2979 13.74 13.4451L13.14 14.3601C13.1083 14.4091 13.0591 14.4442 13.0025 14.4583C12.9459 14.4724 12.886 14.4645 12.835 14.4361C12.428 14.2031 11.835 13.8071 11.409 13.3811C10.983 12.9551 10.611 12.3891 10.402 12.0081C10.3767 11.9595 10.3696 11.9035 10.3819 11.8502C10.3941 11.7969 10.425 11.7497 10.469 11.7171L11.393 11.0311C11.5252 10.9167 11.6106 10.7575 11.6328 10.584C11.6549 10.4106 11.6123 10.235 11.513 10.0911C11.065 9.43506 10.543 8.60106 9.786 8.04806C9.6881 7.97772 9.57369 7.93386 9.45385 7.92072C9.33402 7.90758 9.21282 7.92561 9.102 7.97306C8.182 8.36706 7.386 9.37706 7.424 10.4161C7.449 11.0981 7.716 13.0291 9.738 15.0521Z" fill="#606060"/>
</svg>
