<svg width="874" height="239" viewBox="0 0 874 239" fill="none" xmlns="http://www.w3.org/2000/svg">
<path d="M747.085 60.5827L787.417 7.75701" stroke="#374F3A" stroke-width="14.7353" stroke-linecap="round"/>
<path d="M771.203 84.7822L839.731 58.2303" stroke="#374F3A" stroke-width="14.7353" stroke-linecap="round"/>
<path d="M773.344 121.869L847.669 127.71" stroke="#374F3A" stroke-width="14.7353" stroke-linecap="round"/>
<path d="M73.2308 81.9068C49.5364 81.9068 37.3356 98.5282 37.3356 123.814C37.3356 150.161 52.1888 163.246 73.054 163.246C94.6264 163.246 104.175 151.575 105.413 137.96H70.7553V112.851H132.29V188.001H107.711L106.12 176.154C99.047 184.465 84.9011 189.946 69.3407 189.946C32.7382 189.946 7.09874 163.069 7.09874 122.93C7.09874 83.4982 33.4455 55.0296 73.9381 55.0296C105.236 55.0296 129.284 73.4193 132.29 101.711H102.23C98.8702 87.9188 86.8462 81.9068 73.2308 81.9068ZM213.413 99.5892V125.229H204.749C189.188 125.229 179.817 132.125 179.817 149.63V188.001H152.586V99.766H178.225L179.64 112.851C183.353 104.187 191.133 98.3514 202.981 98.3514C206.163 98.3514 209.7 98.705 213.413 99.5892ZM265.616 190.3C238.916 190.3 219.819 170.849 219.819 143.618C219.819 116.034 238.385 96.76 265.086 96.76C292.847 96.76 310.176 114.973 310.176 143.795V150.691L245.989 151.045C247.58 162.715 254.123 168.197 266.147 168.197C276.403 168.197 283.652 164.483 285.597 158.118H310.529C307.347 177.745 289.841 190.3 265.616 190.3ZM265.263 118.863C254.476 118.863 248.464 123.637 246.342 134.247H283.122C283.122 124.875 276.226 118.863 265.263 118.863ZM346.921 188.001L312.44 99.5892H341.793L352.579 130.533C357 143.441 360.536 154.581 361.243 158.648C362.304 153.52 366.194 142.027 370.615 130.533L382.462 99.5892H410.754L373.798 188.001H346.921ZM458.499 190.3C431.799 190.3 412.702 170.849 412.702 143.618C412.702 116.034 431.268 96.76 457.969 96.76C485.73 96.76 503.059 114.973 503.059 143.795V150.691L438.872 151.045C440.463 162.715 447.006 168.197 459.03 168.197C469.285 168.197 476.535 164.483 478.48 158.118H503.412C500.229 177.745 482.724 190.3 458.499 190.3ZM458.145 118.863C447.359 118.863 441.347 123.637 439.225 134.247H476.005C476.005 124.875 469.108 118.863 458.145 118.863ZM514.764 142.204C514.764 115.326 532.269 96.5832 557.201 96.5832C569.225 96.5832 578.774 101.181 583.548 108.43L584.963 99.5892H610.602V182.343C610.602 213.994 592.389 233.091 562.152 233.091C535.098 233.091 516.885 217.707 514.41 192.598H541.994C542.525 202.501 549.951 208.336 561.975 208.336C575.06 208.336 583.371 200.555 583.371 188.001V176.507C578.066 182.873 568.164 186.94 556.671 186.94C531.915 186.94 514.764 168.727 514.764 142.204ZM542.171 141.496C542.171 154.228 550.659 163.246 562.683 163.246C575.06 163.246 583.371 154.581 583.371 141.496C583.371 128.588 575.06 120.278 562.506 120.278C550.482 120.278 542.171 128.942 542.171 141.496ZM626.306 143.618C626.306 115.68 646.818 96.9368 675.109 96.9368C703.224 96.9368 723.736 115.68 723.736 143.618C723.736 171.556 703.224 190.123 675.109 190.123C646.818 190.123 626.306 171.556 626.306 143.618ZM653.714 143.441C653.714 156.88 662.378 165.721 675.109 165.721C687.664 165.721 696.328 156.88 696.328 143.441C696.328 130.18 687.664 121.338 675.109 121.338C662.378 121.338 653.714 130.18 653.714 143.441Z" fill="#374F3A"/>
</svg>
