<svg width="1346" height="313" viewBox="0 0 1346 313" fill="none" xmlns="http://www.w3.org/2000/svg">
<g clip-path="url(#clip0_198_161)">
<path d="M555.103 133.696C565.548 134.486 575.627 137.889 584.414 143.593C593.201 149.296 600.414 157.117 605.39 166.337C612.229 178.164 616.018 191.507 616.416 205.164C616.863 238.327 607.774 268.286 579.166 288.184C569.858 295.193 559.245 300.274 547.949 303.128C536.653 305.982 524.901 306.551 513.382 304.802C495.949 301.822 479.112 296.605 467.267 282.445C462.232 276.629 458.546 269.772 456.472 262.363C454.399 254.955 453.989 247.18 455.272 239.594C456.068 230.554 457.765 221.617 460.338 212.915C473.748 178.187 495.428 150.762 532.007 138.391C539.57 136.218 547.292 134.648 555.103 133.696ZM584.903 213.511C585.163 202.715 581.98 192.118 575.814 183.254C572.56 177.542 567.354 173.198 561.153 171.021C554.952 168.844 548.174 168.98 542.065 171.405C529.076 176.516 517.439 184.554 508.058 194.894C498.678 205.233 491.807 217.597 487.978 231.024C486.164 237.364 486.327 244.106 488.443 250.35C490.559 256.595 494.529 262.046 499.823 265.976C505.81 269.76 512.497 272.297 519.486 273.437C526.476 274.577 533.623 274.295 540.501 272.608C567.842 265.827 586.467 233.707 584.754 213.511H584.903Z" fill="#65AE46"/>
<path d="M278.705 242.873C284.367 198.83 304.482 165.145 343.744 143.458C354.286 137.659 366.062 134.465 378.089 134.143C386.777 134.014 395.38 135.882 403.233 139.603C411.086 143.324 417.981 148.799 423.385 155.606C432.053 166.346 437.686 179.212 439.701 192.868C443.412 208.601 442.87 225.039 438.131 240.493C433.391 255.948 424.625 269.861 412.731 280.806C397.437 295.941 377.015 304.772 355.515 305.548C338.51 306.248 321.63 302.361 306.643 294.295C300.537 291.257 295.175 286.911 290.939 281.566C286.702 276.22 283.695 270.007 282.132 263.367C280.493 256.66 279.823 249.729 278.705 242.873ZM352.759 274.918C361.697 274.377 370.387 271.766 378.144 267.291C385.901 262.817 392.513 256.6 397.459 249.133C405.327 239.056 409.905 226.801 410.571 214.032C410.571 202.327 406.635 190.961 399.396 181.764C395.993 176.57 390.907 172.706 384.992 170.819C379.077 168.933 372.694 169.14 366.914 171.405C354.499 176.295 343.311 183.857 334.145 193.554C324.978 203.252 318.056 214.849 313.869 227.521C307.909 244.066 315.657 262.92 328.769 267.764C336.741 270.596 344.787 272.608 352.759 274.918Z" fill="#65AE46"/>
<path d="M40.0061 193.166C45.7427 193.166 51.4792 193.166 57.2158 193.166C62.9523 193.166 68.9123 192.719 74.7979 192.495C80.6834 192.271 84.7809 191.824 89.698 192.122C94.8691 192.418 100.004 193.166 105.045 194.358C111.22 195.876 116.81 199.181 121.116 203.86C125.423 208.539 128.255 214.384 129.258 220.665C135.814 248.76 123.149 268.286 102.438 284.606C92.3425 292.601 81.0877 299.009 69.0613 303.61C58.8365 306.969 47.8679 307.351 37.4342 304.712C27.0005 302.073 17.5316 296.522 10.1315 288.705C7.48249 285.582 5.43631 281.994 4.09692 278.123C2.9238 275.098 2.76921 271.774 3.65663 268.653C4.54404 265.533 6.42499 262.787 9.01395 260.833C11.6332 259.103 14.7031 258.18 17.8423 258.18C20.9814 258.18 24.0513 259.103 26.6706 260.833C31.7464 264.369 37.1621 267.39 42.8372 269.851C46.6278 271.54 50.7727 272.28 54.9134 272.007C59.0541 271.735 63.0662 270.457 66.6028 268.286C76.0239 261.606 85.0533 254.39 93.6465 246.674C95.5313 244.758 97.0022 242.475 97.9675 239.967C98.6394 238.987 99.0673 237.861 99.2156 236.682C99.3639 235.503 99.2283 234.306 98.82 233.19C98.4118 232.074 97.7427 231.072 96.8687 230.267C95.9946 229.463 94.9409 228.879 93.7955 228.565C89.5358 226.778 84.9984 225.744 80.3854 225.509C65.0383 225.136 49.6912 225.509 34.3441 225.509C26.049 225.547 17.958 222.937 11.249 218.057C7.95427 215.625 5.23921 212.493 3.29902 208.886C1.35884 205.279 0.241723 201.287 0.0280117 197.197C-0.1857 193.106 0.5093 189.019 2.06304 185.23C3.61677 181.44 5.99064 178.042 9.01395 175.28C22.3341 161.51 38.2311 150.496 55.8002 142.862C66.2509 138.17 77.4001 135.225 88.804 134.143C101.767 132.578 119.945 147.483 122.106 160.599C122.29 162.81 121.841 165.029 120.812 166.995C119.783 168.961 118.216 170.594 116.295 171.703C107.504 175.355 102.885 174.833 99.4575 169.765C94.317 162.313 93.572 162.313 85.0789 165.145C70.5946 169.734 56.9557 176.656 44.6997 185.639C42.7779 187.502 40.9857 189.493 39.3356 191.601L40.0061 193.166Z" fill="#65AE46"/>
<path d="M140.135 257.331C139.96 243.836 143.38 230.537 150.044 218.802C163.073 192.047 181.045 168 203.014 147.93C207.341 143.769 212.497 140.569 218.146 138.539C223.795 136.51 229.809 135.698 235.794 136.155C239.454 136.116 243.048 137.128 246.151 139.069C249.254 141.011 251.735 143.801 253.302 147.11C258.685 158.551 259.692 171.568 256.133 183.701C255.667 186.035 254.365 188.118 252.472 189.559C250.578 191 248.224 191.699 245.851 191.526C243.627 191.549 241.459 190.828 239.691 189.478C237.923 188.128 236.656 186.226 236.092 184.074C235.049 181.242 234.527 178.261 233.633 175.355C231.771 169.616 229.163 167.902 223.725 170.809C218.937 172.787 214.64 175.788 211.134 179.602C201.867 190.678 193.308 202.327 185.506 214.48C179.225 225.047 173.77 236.085 169.19 247.494C167.936 250.773 167.387 254.28 167.58 257.785C167.772 261.291 168.702 264.717 170.308 267.839C172.365 271.918 175.834 275.111 180.068 276.825C184.302 278.538 189.015 278.655 193.329 277.154C210.973 270.702 227.304 261.108 241.53 248.835C244.032 246.803 246.698 244.983 249.502 243.395C252.473 241.719 255.893 241.012 259.285 241.372C262.677 241.733 265.872 243.144 268.425 245.407C270.619 248.174 271.813 251.601 271.813 255.132C271.813 258.664 270.619 262.091 268.425 264.858C263.604 271.03 257.994 276.543 251.737 281.253C242.383 288.195 232.407 294.257 221.937 299.362C206.535 307.343 188.717 309.308 171.947 304.877C151.906 298.841 140.135 282.147 140.135 257.331Z" fill="#65AE46"/>
<path d="M674.378 286.767C675.719 263.74 677.135 240.786 678.476 217.758C679.146 205.835 679.519 193.836 680.189 181.912C680.189 177.217 678.178 175.876 673.931 176.696C665.215 178.484 656.498 180.347 647.782 181.912C644.571 183.062 641.113 183.337 637.761 182.708C634.41 182.079 631.286 180.57 628.71 178.335C626.999 176.604 625.923 174.346 625.655 171.926C625.269 167.338 626.422 162.753 628.931 158.893C631.44 155.033 635.163 152.12 639.512 150.612C650.913 147.125 662.537 144.411 674.304 142.489C692.671 140.933 710.93 138.295 728.987 134.59C737.721 132.805 746.597 131.807 755.509 131.609C758.717 131.116 761.995 131.803 764.736 133.543C767.476 135.284 769.491 137.959 770.41 141.073C772.048 146.809 772.504 152.818 771.75 158.736C771.303 162.909 767.653 165.07 762.736 165.443C748.879 166.585 735.071 168.051 721.314 169.84C713.193 170.883 711.033 173.491 710.511 181.763C709.468 197.041 708.5 212.393 707.978 227.67C707.084 250.698 706.563 273.726 705.892 296.754C705.786 299.933 704.786 303.017 703.007 305.654C701.228 308.29 698.742 310.371 695.835 311.658C692.437 312.83 688.779 313.025 685.276 312.221C681.773 311.417 678.565 309.648 676.017 307.112C675.105 305.61 674.639 303.877 674.676 302.119C674.676 297.126 674.676 292.133 674.676 287.215L674.378 286.767Z" fill="#65AE46"/>
<path d="M920.006 151.73C918.417 155.684 916.367 159.437 913.897 162.909C904.808 173.193 895.197 183.105 885.81 193.091C869.828 211.092 858.88 232.995 854.073 256.585C850.869 269.776 847.517 282.892 843.345 295.785C840.216 305.324 835.224 308.23 828.445 306.814C824.486 305.83 821.016 303.447 818.675 300.106C816.334 296.764 815.279 292.689 815.705 288.631C817.195 278.048 819.579 267.615 821.74 257.107C823.379 249.655 825.241 241.457 827.104 233.632C827.806 231.415 827.731 229.025 826.892 226.857C826.052 224.689 824.497 222.872 822.485 221.708C801.025 205.817 785.583 183.119 778.678 157.32C774.432 143.384 784.042 132.652 797.303 136.006C802.593 137.347 804.754 141.67 806.914 146.067C810.631 154.743 814.835 163.202 819.505 171.405C825.283 179.483 831.553 187.199 838.279 194.507C841.184 197.935 843.866 197.115 846.474 193.687C854.52 183.105 862.193 172.373 870.984 162.536C878.478 154.588 886.465 147.121 894.899 140.179C897.028 138.297 899.586 136.966 902.349 136.304C912.183 134.143 918.814 140.03 920.006 151.73Z" fill="#65AE46"/>
<path d="M1097.91 65.2081C1097.46 71.3936 1097.09 76.9084 1096.72 82.4231C1095.23 104.333 1093.89 126.243 1092.1 148.153C1090.83 162.685 1088.82 164.846 1074.44 169.989L1106.55 174.162C1102.84 168.412 1099.8 162.262 1097.46 155.829C1094.1 138.833 1097.18 121.191 1106.11 106.345C1112.19 94.0177 1121.44 83.5273 1132.91 75.9462C1144.37 68.3651 1157.65 63.9652 1171.37 63.196C1182.36 62.2276 1193.43 62.6784 1204.3 64.5374C1215.18 66.326 1216.67 72.9586 1209.44 81.3798C1204.8 86.3174 1200.43 91.4913 1196.33 96.8808C1192.16 102.992 1193.65 105.675 1200.95 105.526C1206.82 105.477 1212.67 104.752 1218.38 103.364C1221.51 102.352 1224.16 100.231 1225.83 97.4024C1228.87 92.1281 1233.2 87.7128 1238.41 84.5711C1243.62 81.4295 1249.55 79.6646 1255.63 79.4422C1260.07 79.1067 1264.53 79.1067 1268.97 79.4422C1272.98 79.5591 1276.8 81.2485 1279.58 84.1471C1282.37 87.0457 1283.91 90.9222 1283.87 94.9431C1284.02 96.9252 1283.77 98.9176 1283.14 100.803C1282.51 102.688 1281.51 104.429 1280.2 105.922C1278.89 107.415 1277.29 108.63 1275.5 109.496C1273.71 110.363 1271.77 110.862 1269.78 110.966C1264.5 111.413 1259.13 111.338 1253.77 110.966C1251.08 110.966 1249.3 111.413 1249.45 114.766C1249.49 130.034 1252.24 145.173 1257.57 159.481C1259.48 164.94 1263.15 169.609 1268.01 172.753C1272.86 175.896 1278.62 177.336 1284.39 176.845C1294.22 176.845 1304.05 176.174 1313.81 176.845C1320.3 177.629 1326.55 179.757 1332.17 183.093C1337.79 186.429 1342.65 190.9 1346.45 196.221C1326.72 198.166 1307.49 203.618 1289.68 212.318C1295.71 210.977 1301.75 209.486 1307.85 208.368C1313.96 207.251 1322.31 205.984 1329.46 204.866C1331.05 204.562 1332.69 204.782 1334.14 205.495C1335.59 206.207 1336.77 207.373 1337.51 208.816C1342.23 215.537 1345.2 223.331 1346.14 231.49C1347.09 239.65 1345.99 247.917 1342.93 255.542C1339.87 263.166 1334.96 269.906 1328.64 275.151C1322.32 280.396 1314.79 283.979 1306.74 285.575C1300.06 286.541 1293.26 286.173 1286.72 284.493C1280.19 282.812 1274.05 279.852 1268.67 275.784C1263.29 271.716 1258.76 266.62 1255.36 260.792C1251.96 254.964 1249.75 248.519 1248.85 241.83C1248.85 238.923 1248.03 236.017 1247.43 232.067L1227.1 246.972C1226.35 234.973 1232.68 225.807 1234.55 215.672L1233.28 214.926C1230.08 218.951 1226.72 222.379 1223.89 226.925C1219.85 232.832 1216.17 238.979 1212.87 245.332C1209.89 251.656 1205.48 257.195 1199.98 261.504C1194.48 265.814 1188.05 268.775 1181.2 270.149C1152.64 276.025 1123.39 277.757 1094.34 275.291C1090.39 275.003 1086.57 273.751 1083.22 271.647C1079.87 269.542 1077.09 266.648 1075.11 263.218C1071.91 258.299 1068.93 253.232 1065.73 248.313C1064.47 246.703 1063.13 245.16 1061.7 243.693L1060.59 244.363L1069.08 262.473C1070.51 266.133 1072.23 269.671 1074.22 273.055C1075.67 275.291 1076.4 277.915 1076.32 280.577C1076.24 283.24 1075.35 285.815 1073.77 287.96C1070.1 294.382 1065.03 299.902 1058.95 304.116C1052.87 308.33 1045.92 311.132 1038.61 312.318C1031.31 313.503 1023.83 313.042 1016.73 310.969C1009.63 308.895 1003.08 305.26 997.56 300.331C996.483 299.187 995.126 298.345 993.623 297.887C992.12 297.43 990.524 297.373 988.992 297.722C975.284 300.182 961.576 302.641 947.868 304.728C945.282 305.003 942.675 304.455 940.418 303.163C940.418 298.766 944.218 299.586 946.974 299.138L1005.46 289.152C1007.19 288.909 1008.84 288.215 1010.23 287.14C1010.63 286.633 1010.9 286.035 1011.02 285.398C1011.13 284.761 1011.09 284.105 1010.9 283.488C1010.34 282.865 1009.66 282.359 1008.91 282C1008.15 281.642 1007.33 281.438 1006.5 281.402C998.156 282.445 989.886 283.786 981.617 285.128C973.347 286.469 963.066 288.481 953.754 289.823C952.115 289.823 950.252 288.556 948.539 287.885C950.029 286.693 951.37 284.681 953.083 284.383C965.674 281.998 978.339 280.135 990.855 277.676C992.941 277.228 996.219 274.769 996.144 273.353C996.144 269.627 992.792 269.627 989.663 270.149C971.038 273.279 952.413 276.409 933.787 279.241C931.925 279.241 928.274 278.644 928.125 277.825C927.306 273.8 931.105 274.024 933.415 273.651C948.315 270.968 963.463 268.484 978.86 266.199C982.064 265.752 983.33 264.634 984.15 261.057C986.087 252.486 989.067 244.14 991.6 236.389L968.877 243.469C971.862 231.988 977.245 221.27 984.671 212.02C991.6 203.077 999.571 195.252 1008.66 185.937L995.325 182.956C991.153 182.061 986.832 181.614 982.809 180.347C972.826 177.366 971.857 173.342 979.605 166.188C977.976 165.948 976.334 165.799 974.688 165.741C972.504 165.878 970.316 165.531 968.281 164.727C966.245 163.922 964.412 162.678 962.911 161.085C961.411 159.491 960.28 157.586 959.598 155.506C958.917 153.426 958.702 151.22 958.969 149.047C959.937 131.907 961.278 114.841 962.545 97.7005C963.364 86.8946 964.407 76.0141 965.078 65.1336C965.078 61.5565 966.568 60.8112 970.069 60.8858L1079.36 64.0158C1085.25 64.4629 1091.13 64.8355 1097.91 65.2081ZM1222.4 113.872L1214.95 114.766C1206.53 116.033 1198.12 118.046 1189.62 118.567C1175.84 119.461 1172.78 115.661 1174.72 101.874C1175.62 95.3903 1173.23 93.4527 1167.27 95.9865C1165.27 96.7329 1163.5 97.992 1162.13 99.6381C1155.05 108.225 1150.9 118.854 1150.29 129.969C1149.89 132.846 1150.13 135.775 1150.99 138.547C1151.86 141.319 1153.33 143.865 1155.29 146.003C1157.26 148.14 1159.67 149.815 1162.36 150.909C1165.05 152.002 1167.95 152.486 1170.85 152.326C1178.3 152.848 1185.75 152.923 1193.2 153.37C1194.87 153.241 1196.54 153.534 1198.07 154.222C1199.59 154.91 1200.92 155.971 1201.93 157.307C1202.94 158.642 1203.6 160.21 1203.84 161.866C1204.09 163.522 1203.91 165.214 1203.33 166.784C1203.11 168.382 1202.66 169.938 1201.99 171.405C1195.14 184.67 1188.36 197.935 1181.2 211.051C1178.07 216.79 1174.2 222.081 1170.1 228.49C1173.6 228.49 1175.84 228.49 1178.07 228.49C1182.99 229.249 1188.01 228.14 1192.14 225.381C1196.28 222.622 1199.24 218.414 1200.42 213.585C1208.65 190.766 1214.67 167.207 1218.38 143.235C1220.09 133.621 1221.06 124.306 1222.4 113.872ZM1024.31 108.506C1016.24 109.288 1008.63 112.587 1002.55 117.937C996.462 123.288 992.215 130.417 990.408 138.316C989.514 142.489 990.408 144.054 995.027 144.203C1016.88 144.949 1038.66 145.843 1060.36 146.886C1064.24 146.886 1065.58 145.321 1064.39 142.191C1062.59 135.753 1060.09 129.531 1056.94 123.635C1054.03 119.369 1050.24 115.785 1045.81 113.134C1041.39 110.483 1036.44 108.828 1031.31 108.283C1034.59 106.122 1037.57 103.961 1033.99 100.831C1033.36 100.177 1032.61 99.6565 1031.78 99.3011C1030.95 98.9457 1030.05 98.7625 1029.15 98.7625C1028.24 98.7625 1027.35 98.9457 1026.52 99.3011C1025.68 99.6565 1024.93 100.177 1024.31 100.831C1023.19 102.321 1024.23 105.526 1024.31 108.506ZM1316.2 240.637C1316.33 238.128 1315.95 235.618 1315.06 233.266C1314.17 230.915 1312.81 228.774 1311.05 226.979C1309.29 225.185 1307.18 223.776 1304.84 222.843C1302.51 221.91 1300.01 221.473 1297.5 221.559C1295.03 221.518 1292.58 221.977 1290.29 222.908C1288 223.84 1285.92 225.224 1284.18 226.978C1282.44 228.732 1281.08 230.82 1280.16 233.116C1279.25 235.412 1278.81 237.869 1278.87 240.339C1278.7 242.795 1279.05 245.261 1279.91 247.569C1280.77 249.877 1282.11 251.974 1283.85 253.719C1285.58 255.464 1287.67 256.815 1289.98 257.683C1292.28 258.55 1294.74 258.913 1297.2 258.747C1299.67 258.947 1302.15 258.624 1304.49 257.797C1306.83 256.97 1308.96 255.659 1310.76 253.949C1312.55 252.239 1313.96 250.169 1314.9 247.875C1315.84 245.581 1316.28 243.114 1316.2 240.637ZM1050.46 267.689C1050.66 265.189 1050.33 262.675 1049.49 260.312C1048.65 257.948 1047.32 255.788 1045.59 253.973C1043.86 252.158 1041.77 250.729 1039.45 249.779C1037.13 248.829 1034.63 248.381 1032.13 248.462C1029.63 248.401 1027.14 248.849 1024.81 249.778C1022.49 250.708 1020.38 252.1 1018.61 253.87C1016.84 255.64 1015.45 257.751 1014.52 260.076C1013.59 262.4 1013.14 264.889 1013.2 267.391C1013.62 272.045 1015.76 276.374 1019.21 279.527C1022.66 282.68 1027.16 284.429 1031.83 284.429C1036.5 284.429 1041 282.68 1044.45 279.527C1047.9 276.374 1050.04 272.045 1050.46 267.391V267.689ZM1074.52 151.805V149.942L980.499 145.768V148.302L991.227 150.687C991.749 155.158 994.952 156.425 998.677 156.649C1017.6 157.618 1036.45 158.661 1055.37 159.481C1057.31 159.678 1059.25 159.146 1060.81 157.99C1063.68 155.095 1067.54 153.391 1071.61 153.221C1072.55 152.88 1073.43 152.403 1074.22 151.805H1074.52ZM1146.34 232.961L1148.27 232.141C1155.28 218.131 1162.35 204.121 1169.28 190.036C1170.09 187.847 1170.64 185.571 1170.92 183.254H1149.39C1150.33 184.241 1151.47 185.005 1152.74 185.49C1154.23 186.096 1155.52 187.096 1156.48 188.383C1157.43 189.669 1158.02 191.193 1158.17 192.79C1158.33 194.386 1158.04 195.994 1157.35 197.439C1156.65 198.885 1155.58 200.113 1154.23 200.991C1152.1 202.276 1149.86 203.373 1147.53 204.27L1131.74 212.169L1146.34 232.961ZM1027.14 91.366C1032.87 88.8322 1034.59 85.4041 1033.47 80.7091C1032.35 76.0141 1031.16 71.3191 1030.04 66.6241C1028.73 67.9645 1027.85 69.6738 1027.53 71.5244C1027.21 73.375 1027.46 75.2791 1028.25 76.9829C1029.52 79.2768 1030.08 81.8922 1029.87 84.503C1029.66 87.1138 1028.68 89.6044 1027.06 91.6641L1027.14 91.366ZM1044.05 101.054C1045.21 100.748 1046.29 100.2 1047.22 99.4459C1048.15 98.6918 1048.92 97.7486 1049.46 96.6785C1050 95.6084 1050.31 94.4357 1050.37 93.2374C1050.42 92.0392 1050.22 90.8426 1049.78 89.7265C1048.52 85.3296 1047.55 80.8581 1046.51 76.6103C1045.14 77.9973 1044.24 79.7823 1043.95 81.7099C1043.65 83.6374 1043.97 85.6088 1044.87 87.3417C1046.04 89.5294 1046.57 91.9993 1046.41 94.4741C1046.25 96.949 1045.41 99.3308 1043.97 101.352L1044.05 101.054ZM1008.81 99.2655C1009.92 98.9703 1010.96 98.4492 1011.85 97.7349C1012.75 97.0205 1013.5 96.1283 1014.03 95.1141C1014.57 94.0998 1014.9 92.9853 1014.98 91.8403C1015.07 90.6952 1014.92 89.5443 1014.55 88.4596C1013.28 84.0627 1012.09 79.5912 1010.97 75.1943C1009.65 76.7262 1008.83 78.6187 1008.6 80.6257C1008.38 82.6327 1008.76 84.6613 1009.7 86.4474C1010.78 88.506 1011.26 90.8258 1011.09 93.144C1010.92 95.4621 1010.1 97.686 1008.73 99.5636L1008.81 99.2655Z" fill="#F25B0A"/>
<path d="M1269.71 46.3537L1202.21 38.9014C1199.53 38.9014 1197.89 37.5599 1198.19 34.5045C1199.23 21.3137 1203.63 9.68803 1216.07 3.57708C1221.4 0.704218 1227.47 -0.478036 1233.49 0.187589C1239.5 0.853214 1245.17 3.33516 1249.75 7.30327C1253.82 11.0267 1257.2 15.4421 1259.73 20.3449C1261.89 24.576 1264.95 28.2827 1268.7 31.2051C1272.44 34.1275 1276.78 36.1948 1281.41 37.2618C1283.27 37.709 1284.61 40.6899 1286.18 42.553C1284.37 43.816 1282.39 44.7961 1280.29 45.4595C1276.74 45.6835 1273.18 45.6835 1269.64 45.4595L1269.71 46.3537Z" fill="#F25B0A"/>
<path d="M1097.76 60.3645L966.941 56.8619C967.082 54.9964 967.592 53.1776 968.443 51.5116C969.294 49.8457 970.468 48.3659 971.896 47.1588C973.325 45.9516 974.98 45.0413 976.764 44.4809C978.548 43.9204 980.427 43.7212 982.289 43.8947C995.326 43.8947 1008.36 44.5654 1021.33 45.0126C1041.52 45.6833 1061.63 46.4285 1081.82 47.0247C1085.69 46.7326 1089.52 47.9632 1092.5 50.4546C1095.48 52.9461 1097.37 56.5016 1097.76 60.3645Z" fill="#F25B0A"/>
<path d="M1200.65 42.9258L1255.78 48.217C1255.26 56.191 1244.16 64.1651 1232.31 64.3141C1216.44 64.4632 1201.69 54.8496 1200.65 42.9258Z" fill="#F25B0A"/>
<path d="M1012.76 116.63L997.858 138.987L996.666 137.944C999.147 129.061 1004.9 121.447 1012.76 116.63Z" fill="#F25B0A"/>
<path d="M1003.67 137.571L1011.12 123.337L1012.39 124.082L1004.94 138.316L1003.67 137.571Z" fill="#F25B0A"/>
</g>
<defs>
<clipPath id="clip0_198_161">
<rect width="1346" height="313" fill="white"/>
</clipPath>
</defs>
</svg>
