<svg width="151" height="32" viewBox="0 0 151 32" fill="none" xmlns="http://www.w3.org/2000/svg">
<g clip-path="url(#clip0_156_999)">
<path d="M24.8479 0C27.5228 0.505535 30.1241 1.39842 32.5829 2.65504C36.8262 9.57664 38.9344 17.383 38.156 26.3872C34.9093 29.0387 31.7602 30.6474 28.6638 31.7002C27.8947 30.5458 27.2151 29.3233 26.6321 28.0454C27.7449 27.5831 28.8176 27.0127 29.8372 26.3411C29.5704 26.1226 29.3089 25.8966 29.0529 25.6634C22.9577 28.8154 16.2549 28.8154 10.0861 25.6634C9.83239 25.897 9.56989 26.1242 9.30153 26.3411C10.3196 27.0109 11.3903 27.5801 12.501 28.0419C11.9177 29.3196 11.2381 30.5422 10.4693 31.697C7.37585 30.6442 4.22966 29.0355 0.982977 26.3872C0.319109 18.6202 1.64597 10.7411 6.54118 2.66144C9.0012 1.4008 11.6047 0.505701 14.2823 0C14.6183 0.65792 15.0165 1.54304 15.2848 2.24704C18.1158 1.77344 20.9731 1.77344 23.8571 2.24704C24.1526 1.48033 24.4833 0.730366 24.8479 0ZM99.2423 10.1398C101.306 10.1398 103.02 10.623 104.382 11.5904V15.8048C103.902 15.4362 103.341 15.137 102.701 14.9066C102.061 14.6762 101.377 14.561 100.646 14.561C99.366 14.561 98.3664 14.8211 97.6439 15.344C96.9212 15.8672 96.5591 16.5482 96.5591 17.3936C96.5591 18.2224 96.9094 18.9005 97.6114 19.4333C98.3136 19.9629 99.3305 20.2294 100.666 20.2294C101.353 20.2294 102.032 20.1174 102.701 19.8973C103.368 19.6733 103.943 19.4003 104.423 19.0781V23.1539C102.911 24.1674 101.156 24.6739 99.1594 24.6739C97.479 24.6675 96.0455 24.345 94.8631 23.7002C93.6809 23.0554 92.7871 22.1802 92.1915 21.0749C91.5959 19.9696 91.295 18.7261 91.295 17.3443C91.295 15.9626 91.6047 14.7258 92.2237 13.6368C92.843 12.5478 93.7512 11.6925 94.9489 11.0704C96.1457 10.449 97.5759 10.1398 99.2423 10.1398ZM83.7393 10.1366C84.8951 10.1366 85.9539 10.2746 86.9186 10.551C87.8825 10.8275 88.6788 11.1795 89.3131 11.6102V15.2259C88.6638 14.7949 87.9206 14.456 87.0718 14.1994C86.2202 13.9458 85.3412 13.8185 84.4586 13.8211C83.1642 13.8211 82.5188 14.0675 82.5188 14.5581C82.5188 14.7885 82.619 14.9594 82.8194 15.0746C83.0198 15.1898 83.3883 15.3082 83.9221 15.433L85.9861 15.8477C87.3343 16.1075 88.3395 16.5645 88.9999 17.216C89.6608 17.8675 89.9907 18.8314 89.9907 20.1078C89.9907 21.5062 89.4458 22.6147 88.3512 23.4371C87.2573 24.2595 85.706 24.6707 83.6951 24.6707C82.5124 24.6675 81.3631 24.5062 80.248 24.1837C79.1333 23.8614 78.1275 23.3942 77.2342 22.7789V18.9568C77.9095 19.5392 78.8148 20.0192 79.9501 20.3978C81.0853 20.7728 82.1825 20.9603 83.2439 20.9603C83.739 20.9603 84.114 20.8877 84.3674 20.743C84.6212 20.5984 84.7483 20.424 84.7483 20.2234C84.7483 19.993 84.6803 19.8022 84.5415 19.6474C84.4029 19.4928 84.1342 19.3645 83.7367 19.256L81.2596 18.6342C79.8411 18.2659 78.8353 17.7558 78.2371 17.1014C77.6383 16.4499 77.3403 15.5946 77.3403 14.535C77.3403 13.6438 77.5999 12.8707 78.1249 12.2093C78.6467 11.5482 79.3899 11.0381 80.3541 10.6797C81.3185 10.3181 82.4447 10.1366 83.7393 10.1366ZM150.824 7.62656V24.2067H145.766V21.1904C145.338 22.3254 144.69 23.1904 143.817 23.7827C142.944 24.3715 141.865 24.6678 140.585 24.6678C139.441 24.6678 138.444 24.3584 137.592 23.7366C136.74 23.1149 136.082 22.263 135.619 21.1805C135.159 20.0982 134.926 18.8746 134.926 17.5059C134.911 16.0947 135.156 14.8282 135.66 13.7062C136.162 12.5843 136.872 11.7094 137.786 11.081C138.701 10.4528 139.745 10.137 140.915 10.137C143.283 10.137 144.885 11.2646 145.722 13.5174L145.766 13.6368V7.62656H150.824ZM113.753 10.1331C115.39 10.1331 116.802 10.439 117.985 11.0544C119.167 11.6694 120.07 12.5117 120.689 13.5875C121.309 14.6634 121.618 15.897 121.618 17.295C121.618 18.6768 121.309 19.927 120.689 21.0486C120.07 22.1706 119.165 23.0518 117.973 23.697C116.782 24.3418 115.375 24.664 113.751 24.664C112.126 24.664 110.719 24.345 109.531 23.7002C108.339 23.0554 107.431 22.1738 106.806 21.0518C106.181 19.9302 105.865 18.68 105.865 17.2982C105.865 15.9168 106.178 14.6829 106.806 13.6006C107.434 12.5184 108.336 11.6694 109.522 11.0544C110.704 10.439 112.117 10.1331 113.753 10.1331ZM74.976 13.9098V24.279H69.9341V13.9098C71.4789 14.6531 73.3958 14.6861 74.976 13.9098ZM132.142 10.4358C132.871 10.4358 133.496 10.6202 134.021 10.9885V15.9626C133.496 15.5776 132.818 15.3869 131.978 15.3869C130.877 15.3869 130.028 15.7587 129.438 16.5021C128.846 17.2458 128.55 18.4035 128.55 19.9696V24.2067H123.493V10.7354H128.448V15.0186C128.722 13.4525 129.167 12.2979 129.781 11.551C130.391 10.8077 131.181 10.4358 132.142 10.4358ZM59.2548 8.08704C61.1954 8.08704 62.8348 8.42592 64.1796 9.10016C65.5214 9.77472 66.5271 10.7155 67.1936 11.9194C67.8595 13.1235 68.1956 14.5018 68.1956 16.0547C68.1956 17.5747 67.8478 18.953 67.152 20.1866C66.4559 21.4237 65.3971 22.401 63.9733 23.121C62.5492 23.8416 60.7852 24.2035 58.677 24.2035H51.2046V8.08704H59.2548ZM13.3416 13.2314C11.4572 13.2314 9.97096 15.1232 9.97096 17.4227C9.97096 19.7222 11.4897 21.6106 13.3416 21.6106C15.2259 21.6106 16.7151 19.7222 16.7122 17.4227C16.7444 15.1197 15.2259 13.2314 13.3416 13.2314ZM25.7974 13.2314C23.9131 13.2314 22.4268 15.1232 22.4268 17.4227C22.4268 19.7222 23.9456 21.6106 25.7974 21.6106C27.6818 21.6106 29.168 19.7222 29.168 17.4227C29.2003 15.1197 27.6818 13.2314 25.7974 13.2314ZM113.751 14.377C112.869 14.377 112.179 14.6499 111.674 15.1962C111.174 15.7424 110.922 16.4726 110.922 17.3939C110.922 18.3149 111.173 19.055 111.674 19.6144C112.176 20.1738 112.869 20.4566 113.751 20.4566C114.617 20.4534 115.302 20.1738 115.803 19.6144C116.305 19.055 116.558 18.3152 116.558 17.3936C116.558 16.4726 116.307 15.7392 115.803 15.1962C115.302 14.6499 114.617 14.377 113.751 14.377ZM142.979 14.4461C142.127 14.4461 141.446 14.719 140.936 15.2653C140.426 15.8115 140.172 16.5187 140.172 17.3939C140.172 18.2688 140.426 18.9827 140.936 19.5354C141.446 20.088 142.119 20.3642 142.959 20.3642C143.811 20.361 144.495 20.0816 145.011 19.5226C145.528 18.9629 145.784 18.2362 145.784 17.3478C145.784 16.489 145.533 15.7885 145.032 15.2518C144.53 14.7158 143.843 14.4461 142.979 14.4461ZM58.8862 12.1859H56.3678V20.1078H58.5944C59.901 20.1078 60.9065 19.7427 61.6082 19.0157C62.3101 18.2851 62.6611 17.2918 62.6611 16.0317C62.6611 14.8637 62.3482 13.9328 61.7233 13.2355C61.0981 12.5379 60.1515 12.1859 58.8862 12.1859ZM72.4574 7.1168C73.8496 7.1168 74.9787 8.24768 74.9787 9.6432C74.9787 11.0384 73.8496 12.1699 72.4574 12.1699C71.0646 12.1699 69.9358 11.0387 69.9358 9.6432C69.9358 8.248 71.0646 7.1168 72.4574 7.1168Z" fill="#8F8E8E"/>
</g>
<defs>
<clipPath id="clip0_156_999">
<rect width="150" height="32" fill="white" transform="translate(0.823608)"/>
</clipPath>
</defs>
</svg>
