<svg width="821" height="647" viewBox="0 0 821 647" fill="none" xmlns="http://www.w3.org/2000/svg">
<g clip-path="url(#clip0_2_4896)">
<path d="M215.27 291.791C213.464 291.791 211.996 293.26 211.996 295.065V321.257C211.996 323.062 213.464 324.53 215.27 324.53C217.075 324.53 218.544 323.062 218.544 321.257V295.065C218.544 293.26 217.075 291.791 215.27 291.791Z" fill="#3F3D56"/>
<path d="M587.663 0.347656H293.166C259.77 0.347656 232.697 27.4206 232.697 60.8168V581.217C232.697 614.613 259.77 641.686 293.166 641.686H587.663C621.06 641.686 648.132 614.613 648.132 581.217V60.8168C648.132 27.4206 621.06 0.347656 587.663 0.347656Z" fill="#F7F6FF"/>
<path d="M587.664 646.117H293.166C259.034 646.117 231.265 618.349 231.265 584.217V63.8171C231.265 29.685 259.034 1.91602 293.166 1.91602H587.664C621.796 1.91602 649.565 29.685 649.565 63.8171V584.217C649.565 618.349 621.796 646.117 587.664 646.117ZM293.166 4.77983C260.613 4.77983 234.129 31.2637 234.129 63.8171V584.217C234.129 616.77 260.613 643.253 293.166 643.253H587.664C620.217 643.253 646.701 616.77 646.701 584.217V63.8171C646.701 31.2637 620.217 4.77983 587.664 4.77983H293.166Z" fill="#3F3D56"/>
<path d="M608.996 127.152H490.623C485.603 127.152 481.518 123.067 481.518 118.046C481.518 113.026 485.603 108.941 490.623 108.941H608.996C614.016 108.941 618.101 113.026 618.101 118.046C618.101 123.067 614.016 127.152 608.996 127.152Z" fill="#E6E6E6"/>
<path d="M497.947 198.757H382.883C379.983 198.757 377.622 196.397 377.622 193.496C377.622 190.595 379.983 188.236 382.883 188.236H497.947C500.848 188.236 503.207 190.595 503.207 193.496C503.207 196.397 500.848 198.757 497.947 198.757Z" fill="#1300FF"/>
<path d="M335.45 22.9045H269.49C269.319 22.9045 269.18 23.0434 269.18 23.2148V31.1303C269.18 31.3016 269.319 31.4405 269.49 31.4405H335.45C335.622 31.4405 335.76 31.3016 335.76 31.1303V23.2148C335.76 23.0434 335.622 22.9045 335.45 22.9045Z" fill="#E6E6E6"/>
<path d="M556.589 31.4405C560.361 31.4405 563.418 28.3832 563.418 24.6117C563.418 20.8403 560.361 17.783 556.589 17.783C552.818 17.783 549.76 20.8403 549.76 24.6117C549.76 28.3832 552.818 31.4405 556.589 31.4405Z" fill="#E6E6E6"/>
<path d="M575.368 31.4405C579.14 31.4405 582.197 28.3832 582.197 24.6117C582.197 20.8403 579.14 17.783 575.368 17.783C571.597 17.783 568.539 20.8403 568.539 24.6117C568.539 28.3832 571.597 31.4405 575.368 31.4405Z" fill="#E6E6E6"/>
<path d="M594.147 31.4405C597.919 31.4405 600.976 28.3832 600.976 24.6117C600.976 20.8403 597.919 17.783 594.147 17.783C590.376 17.783 587.319 20.8403 587.319 24.6117C587.319 28.3832 590.376 31.4405 594.147 31.4405Z" fill="#E6E6E6"/>
<path d="M292.449 226.919C292.449 227.864 293.208 228.623 294.153 228.623H586.676C587.621 228.623 588.38 227.864 588.38 226.919C588.38 225.974 587.621 225.215 586.676 225.215H294.153C293.208 225.215 292.449 225.974 292.449 226.919Z" fill="#3F3D56"/>
<path d="M524.449 467.919C524.449 468.864 525.208 469.623 526.153 469.623H818.676C819.621 469.623 820.38 468.864 820.38 467.919C820.38 466.974 819.621 466.215 818.676 466.215H526.153C525.208 466.215 524.449 466.974 524.449 467.919Z" fill="#3F3D56"/>
<path d="M558.625 360.846H383.076C380.175 360.846 377.815 358.485 377.815 355.585C377.815 352.684 380.175 350.324 383.076 350.324H558.625C561.525 350.324 563.885 352.684 563.885 355.585C563.885 358.485 561.525 360.846 558.625 360.846Z" fill="#1300FF"/>
<path d="M329.832 367.822C336.949 367.822 342.719 362.052 342.719 354.935C342.719 347.817 336.949 342.048 329.832 342.048C322.714 342.048 316.945 347.817 316.945 354.935C316.945 362.052 322.714 367.822 329.832 367.822Z" fill="#1300FF"/>
<path d="M328.4 376.413V373.549C339.059 373.549 347.73 364.878 347.73 354.219C347.73 343.56 339.059 334.888 328.4 334.888V332.024C340.638 332.024 350.594 341.98 350.594 354.219C350.594 366.457 340.638 376.413 328.4 376.413Z" fill="#3F3D56"/>
<path d="M174.907 302.962C180.164 297.613 187.185 295.989 190.589 299.335C193.993 302.681 192.491 309.729 187.231 315.079C185.16 317.246 182.599 318.884 179.765 319.858L157.205 342.244L146.926 331.433L170.257 310.513C171.182 307.661 172.776 305.072 174.907 302.962Z" fill="#FFB6B6"/>
<path d="M102.759 284.484L126.412 336.957L164.182 316.512L177.7 323.687C177.7 323.687 146.823 375.307 125.682 369.43C104.541 363.554 66.9998 310.272 73.7638 293.828C80.5278 277.383 102.759 284.484 102.759 284.484Z" fill="#E6E6E6"/>
<path d="M0.125977 644.361C0.125977 645.021 0.656007 645.551 1.31604 645.551H730.606C731.266 645.551 731.796 645.021 731.796 644.361C731.796 643.701 731.266 643.171 730.606 643.171H1.31604C0.656007 643.171 0.125977 643.701 0.125977 644.361Z" fill="#3F3D56"/>
<path d="M218.448 387.827C254.291 387.827 283.347 359.382 283.347 324.295C283.347 289.207 254.291 260.763 218.448 260.763C182.606 260.763 153.549 289.207 153.549 324.295C153.549 359.382 182.606 387.827 218.448 387.827Z" fill="#1300FF"/>
<path d="M92.3873 634.196L109.634 634.194L117.839 567.669L92.3839 567.671L92.3873 634.196Z" fill="#FFB6B6"/>
<path d="M151.477 633.805C152.014 634.709 152.298 637.628 152.298 638.68C152.298 641.913 149.677 644.533 146.444 644.533H93.0324C90.827 644.533 89.039 642.746 89.039 640.54V638.316C89.039 638.316 86.3968 631.633 91.8367 623.395C91.8367 623.395 98.5977 629.846 108.7 619.743L111.68 614.346L133.245 630.118L145.198 631.589C147.813 631.911 150.132 631.539 151.477 633.805Z" fill="#2F2E41"/>
<path d="M105.438 287.852L105.787 264.59L91.4419 255.647L75.8433 274.728L105.438 287.852Z" fill="#FFB6B6"/>
<path opacity="0.1" d="M105.438 287.852L106.367 265.169L91.4418 255.647L96.5125 283.718L105.438 287.852Z" fill="black"/>
<path d="M140.276 441.672L116.51 603.394H86.6933L90.6581 511.079L92.7448 462.54L86.6933 439.435C86.6933 439.435 83.9342 434.299 81.6098 428.074C78.9898 421.048 76.9204 412.626 79.9926 408.632C81.1229 407.16 84.0617 406.07 88.0555 405.259C90.4958 404.76 93.3361 404.372 96.4024 404.07C114.035 402.326 139.117 403.415 139.117 403.415L139.754 424.457L140.108 436.206L140.276 441.672Z" fill="#2F2E41"/>
<path d="M62.0062 626.287L79.07 628.794L96.8636 564.17L71.6793 560.469L62.0062 626.287Z" fill="#FFB6B6"/>
<path d="M120.525 634.495C120.925 635.468 120.78 638.397 120.627 639.438C120.157 642.636 117.183 644.848 113.984 644.378L61.1408 636.608C58.9588 636.288 57.4499 634.259 57.7707 632.077L58.0942 629.877C58.0942 629.877 56.4522 622.88 63.0324 615.521C63.0324 615.521 68.7833 622.886 80.2481 614.36L83.9807 609.454L103.023 628.195L114.635 631.389C117.175 632.088 119.523 632.058 120.525 634.495Z" fill="#2F2E41"/>
<path d="M140.65 414.702L137.39 442.774L119.614 501.93L90.3505 599.321L60.8538 594.986L87.3267 456.511L84.7055 432.766C84.7055 432.766 83.8519 430.405 82.8733 426.95C80.931 420.114 78.4949 408.982 81.175 403.303C81.5369 402.531 81.9912 401.861 82.5532 401.319C83.6073 400.297 85.7498 399.676 88.6202 399.347C100.618 397.991 125.327 401.869 136.321 403.773L140.65 414.702Z" fill="#2F2E41"/>
<path d="M79.1231 269.806L108.105 283.718C108.105 283.718 138.827 374.723 138.827 379.36C138.827 383.997 147.522 386.895 142.305 392.112C137.088 397.329 152.015 401.747 143.972 405.914C135.929 410.081 85.7548 432.875 80.1757 430.819C64.7883 425.15 80.8278 404.319 80.8278 404.319C80.8278 404.319 69.269 395.011 71.008 390.373C72.7469 385.736 60.5743 297.05 60.5743 297.05L79.1231 269.806Z" fill="#E6E6E6"/>
<path d="M167.435 349.996C174.628 347.871 181.555 349.86 182.907 354.438C184.258 359.015 179.523 364.448 172.328 366.572C169.465 367.461 166.431 367.65 163.48 367.126L132.89 375.745L129.151 361.303L159.705 354.34C161.898 352.295 164.549 350.806 167.435 349.996Z" fill="#FFB6B6"/>
<path d="M113.33 298.816L108.535 356.174L151.481 356.636L159.816 369.47C159.816 369.47 107.763 399.61 92.1327 384.209C76.5025 368.809 69.5479 304.002 83.4445 292.909C97.341 281.816 113.33 298.816 113.33 298.816Z" fill="#E6E6E6"/>
<path d="M104.834 271.338C118.546 271.338 129.662 260.223 129.662 246.511C129.662 232.799 118.546 221.683 104.834 221.683C91.122 221.683 80.0063 232.799 80.0063 246.511C80.0063 260.223 91.122 271.338 104.834 271.338Z" fill="#FFB6B6"/>
<path d="M91.4427 246.609C91.4427 246.609 95.3525 240.157 97.503 236.834C99.6534 233.51 99.6534 228.642 99.6534 228.642C99.6534 228.642 119.594 228.232 126.24 233.901C132.887 239.571 137.579 218.653 131.128 211.42C131.128 211.42 128.391 214.548 128.977 215.721L129.564 216.894C129.564 216.894 126.24 203.6 116.661 201.059C116.661 201.059 111.332 203.811 112.824 205.367C114.315 206.923 101.413 195.976 97.503 202.427C97.503 202.427 87.9238 202.232 89.0968 205.75L88.5103 207.901C88.5103 207.901 80.2996 205.359 79.7131 211.42C79.7131 211.42 82.6455 211.42 84.2094 212.984C85.7734 214.548 78.5401 219.044 78.5401 219.044C78.5401 219.044 70.1339 242.112 81.4725 251.496C81.4725 251.496 81.5703 240.255 86.0666 242.992C90.563 245.729 91.4427 246.609 91.4427 246.609Z" fill="#2F2E41"/>
<path d="M115.07 261.271L114.178 263.616L120.864 263.812L121.31 261.661L115.07 261.271Z" fill="#2F2E41"/>
<path d="M121.756 252.864C121.756 252.864 111.727 250.127 105.71 258.338L104.373 259.902C104.373 259.902 91.6694 245.631 92.7837 240.353L90.1094 240.548L87.4351 254.233C87.4351 254.233 95.9038 268.895 107.715 269.481C107.715 269.481 119.081 272.218 121.533 267.526C123.984 262.834 128.205 255.916 128.205 255.916L121.756 252.864ZM119.932 265.962H113.287C111.727 265.962 107.715 260.293 107.715 260.293C109.944 256.774 116.63 256.579 116.63 256.579H123.89L124.43 258.729L119.932 265.962Z" fill="#2F2E41"/>
<path d="M605.725 636.085L594.824 633.729L598.723 590.56L614.812 594.038L605.725 636.085Z" fill="#A0616A"/>
<path d="M568.429 627.768C567.966 628.266 567.389 630.073 567.245 630.738C566.804 632.781 568.102 634.795 570.146 635.237L603.905 642.531C605.299 642.832 606.674 641.946 606.975 640.552L607.278 639.147C607.278 639.147 609.861 635.283 607.548 629.334C607.548 629.334 602.394 632.487 597.388 624.722L596.242 620.904L580.457 627.928L572.701 627.225C571.004 627.072 569.589 626.52 568.429 627.768Z" fill="#2F2E41"/>
<path d="M586.226 632.782L577.132 626.327L597.702 588.175L611.125 597.702L586.226 632.782Z" fill="#A0616A"/>
<path d="M555.212 610.461C554.59 610.737 553.348 612.171 552.954 612.725C551.745 614.43 552.146 616.793 553.851 618.003L582.017 637.992C583.18 638.818 584.792 638.544 585.618 637.381L586.45 636.208C586.45 636.208 590.344 633.673 590.559 627.293C590.559 627.293 584.579 628.164 583.033 619.055L583.481 615.094L566.206 615.341L559.352 611.643C557.853 610.834 556.769 609.77 555.212 610.461Z" fill="#2F2E41"/>
<path d="M717.243 419.355C717.243 419.355 734.202 442.413 700.284 468.336L631.033 446.208L655.765 394.623L677.671 382.61L717.243 419.355Z" fill="#2F2E41"/>
<path d="M631.033 446.208L604.181 498.499L587.221 607.321L608.42 608.735L629.62 505.565L667.071 449.741L640.926 437.728" fill="#2F2E41"/>
<path d="M700.284 451.911V468.336L652.232 521.112C652.232 521.112 652.232 560.683 633.859 579.056L612.66 611.561L594.288 601.668L621.14 506.979L669.191 444.794L700.284 451.911Z" fill="#2F2E41"/>
<path d="M666.137 289.071L673.424 323.582L701.205 316.793C701.205 316.793 687.473 288.231 690.205 276.916L666.137 289.071Z" fill="#A0616A"/>
<path opacity="0.1" d="M666.137 289.071L673.424 323.582L701.205 316.793C701.205 316.793 687.473 288.231 690.205 276.916L666.137 289.071Z" fill="black"/>
<path d="M692.51 294.28L671.311 304.173C671.311 304.173 660.406 310.839 660.205 315.279C660.005 319.719 661.418 340.918 661.418 340.918C661.418 340.918 652.939 349.398 658.592 366.357L655.765 394.623L719.363 428.542L713.71 369.184L716.536 314.066L692.51 294.28Z" fill="#E6E6E6"/>
<path d="M711.539 455.114C709.057 460.808 704.107 464.144 700.483 462.564C696.859 460.984 695.934 455.087 698.418 449.39C699.379 447.101 700.874 445.075 702.778 443.482L713.6 419.486L724.753 424.804L712.9 447.896C713.03 450.376 712.563 452.851 711.539 455.114Z" fill="#A0616A"/>
<path d="M700.284 317.599C700.284 317.599 715.83 307.706 721.483 319.013C727.136 330.319 739.855 388.263 739.855 388.263L721.483 443.381L704.523 436.315L719.363 376.996L700.284 317.599Z" fill="#E6E6E6"/>
<path d="M620.607 446.217C616.201 450.597 610.37 451.874 607.583 449.07C604.796 446.266 606.109 440.443 610.516 436.062C612.253 434.288 614.389 432.956 616.747 432.176L635.648 413.854L644.057 422.907L624.531 440.008C623.737 442.362 622.392 444.491 620.607 446.217Z" fill="#A0616A"/>
<path d="M660.803 314.228C660.803 314.228 687.907 313.12 688.997 325.713C690.087 338.307 671.559 394.5 671.559 394.5L634.173 438.973L621.01 426.156L656.659 376.476L660.803 314.228Z" fill="#E6E6E6"/>
<path d="M739.061 463.475L565.753 435.522C562.889 435.06 560.934 432.354 561.396 429.49C561.858 426.626 564.564 424.673 567.428 425.135L740.736 453.088C743.6 453.55 745.554 456.255 745.092 459.118C744.63 461.982 741.925 463.937 739.061 463.475Z" fill="#1300FF"/>
<path d="M514.129 434.095C521.246 434.095 527.016 428.325 527.016 421.208C527.016 414.09 521.246 408.321 514.129 408.321C507.011 408.321 501.242 414.09 501.242 421.208C501.242 428.325 507.011 434.095 514.129 434.095Z" fill="#1300FF"/>
<path d="M509.295 442.184L509.751 439.357C520.274 441.054 530.216 433.875 531.913 423.351C533.61 412.828 526.43 402.886 515.907 401.189L516.363 398.362C528.445 400.31 536.689 411.725 534.74 423.807C532.791 435.889 521.377 444.133 509.295 442.184Z" fill="#3F3D56"/>
<path d="M668.916 296.406C680.705 296.406 690.261 286.85 690.261 275.062C690.261 263.274 680.705 253.718 668.916 253.718C657.128 253.718 647.572 263.274 647.572 275.062C647.572 286.85 657.128 296.406 668.916 296.406Z" fill="#A0616A"/>
<path d="M681.53 275.062C681.53 275.062 668.205 262.967 659.667 267.236C651.13 271.505 646.861 274.351 646.861 274.351C646.861 274.351 639.746 263.679 650.418 254.429C650.418 254.429 628.696 244.939 644.538 230.119C660.379 215.298 674.608 220.99 674.608 220.99C674.608 220.99 693.818 229.528 680.3 246.603C680.3 246.603 699.993 259.093 689.791 279.528C689.791 279.528 688.838 266.524 685.992 270.082C683.146 273.639 681.53 275.062 681.53 275.062Z" fill="#2F2E41"/>
<path d="M240.746 348.215C232.587 328.154 224.427 308.092 216.268 288.031C215.141 285.26 211.61 285.162 210.511 288.031C202.448 309.064 197.18 331.01 194.647 353.387C194.216 357.199 200.19 357.168 200.618 353.387C201.609 344.631 203.08 335.94 204.969 327.341C211.693 327.694 218.471 326.94 224.96 325.143C228.303 333.363 231.646 341.582 234.989 349.802C236.418 353.314 242.196 351.778 240.746 348.215ZM206.323 321.439C208.334 313.208 210.745 305.074 213.542 297.071L222.692 319.568C217.333 320.975 211.852 321.601 206.323 321.439Z" fill="white"/>
<path d="M252.253 353.232C255.567 353.232 258.253 350.546 258.253 347.232C258.253 343.919 255.567 341.232 252.253 341.232C248.939 341.232 246.253 343.919 246.253 347.232C246.253 350.546 248.939 353.232 252.253 353.232Z" fill="white"/>
<path d="M189.253 300.232C192.567 300.232 195.253 297.546 195.253 294.232C195.253 290.919 192.567 288.232 189.253 288.232C185.939 288.232 183.253 290.919 183.253 294.232C183.253 297.546 185.939 300.232 189.253 300.232Z" fill="white"/>
</g>
<defs>
<clipPath id="clip0_2_4896">
<rect width="820.254" height="645.769" fill="white" transform="translate(0.125977 0.347656)"/>
</clipPath>
</defs>
</svg>
