<svg width="598" height="507" viewBox="0 0 598 507" fill="none" xmlns="http://www.w3.org/2000/svg">
<g clip-path="url(#clip0_2_4809)">
<path d="M576.197 414.141H22.2547C10.408 414.141 0.769531 404.503 0.769531 392.656V325.985H597.682V392.656C597.682 404.503 588.044 414.141 576.197 414.141Z" fill="#E6E6E6"/>
<path d="M370.918 402.988H229.656V503.89H370.918V402.988Z" fill="#E6E6E6"/>
<path d="M379.416 491.144H221.16V503.89H379.416V491.144Z" fill="#E6E6E6"/>
<path d="M597.151 354.131H0.769531V15.189C0.769531 7.05922 7.38393 0.444824 15.5137 0.444824H582.406C590.536 0.444824 597.151 7.05922 597.151 15.189V354.131Z" fill="#3F3D56"/>
<path d="M582.812 15.8456H14.5771V335.544H582.812V15.8456Z" fill="#F7F6FF"/>
<path d="M124.623 206.394C128.972 202.8 134.351 202.132 136.638 204.9C138.924 207.668 137.252 212.824 132.901 216.419C131.182 217.878 129.139 218.905 126.943 219.413L108.323 234.407L101.473 225.519L120.556 211.682C121.47 209.62 122.864 207.807 124.623 206.394Z" fill="#FFB6B6"/>
<path d="M17.0023 240.224C16.9928 239.561 16.999 233.777 21.2811 230.121C26.2 225.922 33.1409 227.622 35.5753 228.218C41.199 229.595 41.6602 232.007 46.9414 234.486C56.8219 239.123 44.442 236.75 50.3212 235.263C52.3562 234.748 81.6333 232.718 88.921 228.232C103.094 219.509 112.752 214.219 112.752 214.219L119.065 226.845C119.065 226.845 109.936 239.539 97.088 248.942C83.9087 258.588 77.319 263.411 67.3045 265.275C66.4421 265.435 45.2323 269.057 28.1494 256.294C24.2528 253.383 17.1135 248.049 17.0023 240.224Z" fill="#1300FF"/>
<path d="M36.5862 208.112C48.7324 208.112 58.5788 198.266 58.5788 186.12C58.5788 173.973 48.7324 164.127 36.5862 164.127C24.4399 164.127 14.5935 173.973 14.5935 186.12C14.5935 198.266 24.4399 208.112 36.5862 208.112Z" fill="#FFB6B6"/>
<path d="M208.824 333.875L186.175 310.691L174.483 322.887L191.358 345.116L208.096 347.031L208.824 333.875Z" fill="#FFB6B6"/>
<path d="M79.4952 290.399C80.82 290.509 85.0298 291.353 89.0537 289.139C91.7998 287.628 93.2082 285.381 93.6839 284.667C99.5853 275.804 122.236 261.982 142.565 261.132C147.168 260.939 150.198 261.473 152.953 262.908C156.858 264.944 158.417 267.86 163.373 274.691C166.084 278.428 169.083 281.948 171.827 285.661C187.889 307.397 193.978 309.104 193.356 316.072C192.665 323.804 184.327 331.139 178.784 330.292C176.515 329.945 175.636 328.367 172.604 325.172C163.712 315.805 160.034 317.535 153.704 310.36C146.313 301.983 147.281 295.037 143.425 294.769C139.849 294.52 138.33 300.446 130.696 308.317C127.203 311.919 124.715 313.571 117.137 318.829C87.6266 339.301 87.1556 340.74 81.2 342.373C78.5943 343.087 60.1005 348.158 53.5124 340.089C43.2029 327.462 67.5583 289.407 79.4952 290.399Z" fill="#2F2E41"/>
<path d="M201.9 339.114C203.566 338.366 205.513 337.492 206.14 335.48C206.564 334.119 206.32 332.441 205.443 331.282C204.432 329.944 202.935 329.768 202.996 329.531C203.088 329.17 206.627 329.311 210.513 330.685C211.246 330.944 214.568 332.158 218.793 335.456C222.178 338.099 221.723 338.629 223.846 340.153C230.362 344.831 236.474 341.144 240 345.531C241.361 347.224 241.941 349.628 241.369 351.572C240.218 355.475 234.626 356.818 231.569 357.512C224.208 359.182 218.636 357.818 212.817 356.838C193.031 353.504 181.913 356.54 180.426 351.956C180.144 351.089 180.601 351.163 182.127 344.796C183.633 338.512 183.583 336.787 184.866 336.283C186.796 335.526 188.092 338.971 192.955 340.15C197.265 341.195 200.82 339.599 201.9 339.114Z" fill="#2F2E41"/>
<path d="M168.558 409.72L162.835 377.817L146.312 381.344L147.792 409.213L160.567 420.196L168.558 409.72Z" fill="#FFB6B6"/>
<path d="M85.9573 301.122C86.9916 301.957 90.0015 305.019 94.5742 305.447C97.6949 305.739 100.122 304.671 100.917 304.347C110.777 300.327 137.28 301.61 154.579 312.321C158.496 314.747 160.704 316.89 162.177 319.624C164.265 323.502 163.918 326.79 164.183 335.225C164.327 339.84 164.833 344.437 165.018 349.05C166.103 376.055 170.183 380.886 165.755 386.302C160.842 392.312 149.823 393.699 145.713 389.887C144.03 388.325 144.189 386.526 143.473 382.179C141.377 369.435 137.361 368.802 136.152 359.31C134.741 348.228 139.442 343.024 136.402 340.637C133.583 338.423 128.998 342.473 118.262 344.7C113.349 345.719 110.363 345.689 101.14 345.784C65.2251 346.153 64.0275 347.079 58.1827 345.086C55.6254 344.213 37.4755 338.024 36.5551 327.648C35.1149 311.411 76.637 293.599 85.9573 301.122Z" fill="#2F2E41"/>
<path d="M159.886 410.166C161.684 410.483 163.787 410.853 165.435 409.541C166.55 408.653 167.29 407.127 167.216 405.675C167.131 404.001 165.991 403.014 166.174 402.852C166.453 402.606 169.302 404.71 171.746 408.028C172.207 408.654 174.274 411.524 175.918 416.626C177.235 420.714 176.561 420.897 177.462 423.35C180.227 430.879 187.354 431.261 187.809 436.871C187.984 439.036 187.114 441.351 185.549 442.637C182.406 445.221 177.024 443.192 174.105 442.05C167.076 439.298 163.231 435.041 158.967 430.963C144.467 417.093 133.563 413.363 134.906 408.734C135.16 407.858 135.497 408.176 140.334 403.765C145.109 399.411 146.037 397.955 147.381 398.259C149.403 398.716 148.541 402.295 151.903 406.001C154.882 409.286 158.721 409.961 159.886 410.166Z" fill="#2F2E41"/>
<path d="M39.5845 190.324C40.4407 187.261 39.3653 186.145 40.4614 184.77C40.4614 184.77 40.9025 184.217 44.8458 182.724C43.6824 175.974 44.5535 174.833 44.5535 174.833C45.5575 173.517 47.5687 173.199 48.9379 173.371C51.8337 173.735 52.3463 176.353 54.1992 176.294C56.7588 176.213 59.8287 171.089 58.8758 166.648C58.0986 163.026 54.747 160.336 53.9069 160.802C53.0739 161.265 50.0752 159.224 48.9379 159.633C48.1613 159.913 44.5055 159.541 43.6766 159.926C42.7714 160.346 40.179 162.96 39.9312 162.631C38.2088 160.342 38.2455 159.542 37.2462 159.049C35.4755 158.174 33.5505 159.79 30.2312 161.387C23.4016 164.672 21.4018 162.713 18.2472 165.479C16.6536 166.877 15.7991 169.548 14.1551 174.833C11.8559 182.223 10.7064 185.919 11.8167 189.447C12.9491 193.046 14.6167 192.262 17.078 197.339C19.8178 202.99 18.8735 206.275 21.4624 207.569C23.4633 208.57 26.6788 207.933 27.8928 206.108C29.9714 202.983 24.5989 198.756 26.4314 193.832C27.5562 190.809 31.0262 188.517 33.1541 189.155C35.5602 189.877 35.7374 194.191 37.2462 194.124C38.5383 194.067 39.4353 190.858 39.5845 190.324Z" fill="#2F2E41"/>
<path d="M22.9239 211.369C27.4244 206.323 45.7558 211.546 47.4765 219.553C48.1842 222.847 45.5716 224.238 46.3073 228.03C47.3834 233.577 53.4764 233.198 57.999 238.845C64.4197 246.861 57.8051 254.697 65.014 268.074C66.5544 270.932 67.8528 273.342 70.5676 275.674C76.7971 281.024 82.5947 279.189 85.7668 284.15C88.1389 287.86 87.1643 292.432 86.936 293.503C85.9998 297.895 83.4625 298.966 81.6747 302.564C78.7001 308.552 82.068 312.948 82.2593 320.102C82.4985 329.053 77.7419 341.461 68.2292 345.531C57.5422 350.105 44.6526 342.53 38.4154 335.009C34.6936 330.521 33.6132 326.381 31.9849 321.271C24.708 298.434 20.5969 300.499 15.032 282.396C8.67026 261.701 7.41963 237.456 15.032 229.784C16.0409 228.767 18.8177 226.416 20.5855 222.184C22.9644 216.489 20.9093 213.628 22.9239 211.369Z" fill="#1300FF"/>
<path d="M89.4228 328.836C92.9121 333.269 93.453 338.663 90.6312 340.883C87.8094 343.103 82.6944 341.309 79.2044 336.874C77.7861 335.121 76.808 333.054 76.3522 330.846L61.8052 311.875L69.3219 306.142L84.2333 324.645C86.273 325.607 88.0525 327.044 89.4228 328.836Z" fill="#FFB6B6"/>
<path d="M36.147 230.6C36.7942 230.456 42.4579 229.282 46.9105 232.728C52.0253 236.686 51.7776 243.828 51.6907 246.333C51.49 252.119 49.2224 253.063 47.8735 258.739C45.3497 269.357 50.156 279.226 52.8114 284.678C53.7305 286.565 56.6834 292.34 62.5615 298.559C73.9935 310.654 84.1939 317.019 84.1939 317.019L73.2359 326.759C73.2359 326.759 55.7809 321.439 43.9536 310.78C31.8214 299.846 13.1642 261.161 9.29653 251.737C8.96345 250.926 13.6815 264.119 22.69 244.792C24.7448 240.383 28.5097 232.306 36.147 230.6Z" fill="#1300FF"/>
<path d="M316.607 221.526L303.523 215.328C308.89 222.817 313.514 234.514 315.989 243.821C320.181 235.151 326.938 224.543 333.626 218.207L319.798 221.764C328.319 180.004 360.367 150.025 397.068 150.025L397.587 148.516C359.253 148.516 325.307 178.08 316.607 221.526Z" fill="#3F3D56"/>
<path d="M376.826 285.155H294.158C290.652 285.155 287.799 282.302 287.799 278.796C287.799 275.289 290.652 272.437 294.158 272.437H376.826C380.333 272.437 383.185 275.289 383.185 278.796C383.185 282.302 380.333 285.155 376.826 285.155Z" fill="#1300FF"/>
<path d="M486.826 285.155H404.158C400.652 285.155 397.799 282.302 397.799 278.796C397.799 275.289 400.652 272.437 404.158 272.437H486.826C490.333 272.437 493.185 275.289 493.185 278.796C493.185 282.302 490.333 285.155 486.826 285.155Z" fill="#E6E6E6"/>
<path d="M437.888 112.162H357.531C355.505 112.162 353.856 110.514 353.856 108.488C353.856 106.462 355.505 104.814 357.531 104.814H437.888C439.914 104.814 441.561 106.462 441.561 108.488C441.561 110.514 439.914 112.162 437.888 112.162Z" fill="#3F3D56"/>
<path d="M481.008 151.36H314.41C312.384 151.36 310.736 149.712 310.736 147.686C310.736 145.66 312.384 144.012 314.41 144.012H481.008C483.034 144.012 484.682 145.66 484.682 147.686C484.682 149.712 483.034 151.36 481.008 151.36Z" fill="#3F3D56"/>
<path d="M36.8906 504.829C36.8906 505.489 37.4207 506.019 38.0807 506.019H560.371C561.031 506.019 561.561 505.489 561.561 504.829C561.561 504.169 561.031 503.639 560.371 503.639H38.0807C37.4207 503.639 36.8906 504.169 36.8906 504.829Z" fill="#3F3D56"/>
<path d="M165.139 222.741C164.997 222.741 164.856 222.736 164.713 222.727C156.345 222.19 127.709 218.138 110.613 188.579C109.204 186.146 109.482 183.051 111.303 180.881L142.963 143.159C144.258 141.617 146.258 140.728 148.284 140.752C149.684 140.786 152.998 141.139 153.642 143.694C157.445 158.791 173.505 176.541 192.819 178.894C194.777 179.132 196.349 180.879 197.023 183.566C197.55 185.658 197.063 187.814 195.689 189.482L170.326 220.28C169.038 221.844 167.147 222.741 165.139 222.741ZM148.162 142.27C146.615 142.27 145.11 142.963 144.126 144.135L112.467 181.856C111.054 183.54 110.837 185.936 111.927 187.819C128.646 216.726 156.632 220.686 164.811 221.212C166.481 221.324 168.085 220.612 169.154 219.315L194.517 188.517C195.582 187.225 195.958 185.556 195.551 183.936C195.153 182.35 194.178 180.589 192.636 180.401C172.683 177.971 156.096 159.648 152.17 144.065C151.852 142.803 149.937 142.31 148.252 142.27C148.222 142.27 148.192 142.27 148.162 142.27Z" fill="#3F3D56"/>
<path d="M129.799 189.821L152.625 166.547C154.185 164.957 151.74 162.508 150.178 164.101L127.353 187.374C125.792 188.965 128.237 191.414 129.799 189.821Z" fill="#E6E6E6"/>
<path d="M143.576 196.378C149.875 190.731 155.35 184.194 159.832 177.02C161.015 175.126 158.023 173.388 156.845 175.274C152.511 182.209 147.219 188.473 141.129 193.931C139.468 195.421 141.921 197.861 143.576 196.378Z" fill="#E6E6E6"/>
<path d="M155.992 204.229C161.728 197.875 166.61 190.785 170.454 183.136C171.451 181.151 168.467 179.398 167.466 181.39C163.753 188.78 159.089 195.643 153.546 201.782C152.057 203.431 154.496 205.886 155.992 204.229Z" fill="#E6E6E6"/>
<path d="M146.213 162.33C158.922 162.33 169.226 152.244 169.226 139.802C169.226 127.36 158.922 117.274 146.213 117.274C133.503 117.274 123.2 127.36 123.2 139.802C123.2 152.244 133.503 162.33 146.213 162.33Z" fill="#1300FF"/>
<path d="M158.187 150.488C154.648 141.786 151.108 133.085 147.569 124.383C147.08 123.181 145.549 123.139 145.072 124.383C141.575 133.506 139.29 143.026 138.191 152.732C138.004 154.385 140.595 154.372 140.781 152.732C141.211 148.933 141.849 145.164 142.668 141.434C145.585 141.587 148.525 141.26 151.34 140.481C152.79 144.046 154.24 147.611 155.69 151.177C156.31 152.7 158.816 152.034 158.187 150.488ZM143.256 138.874C144.128 135.304 145.174 131.776 146.387 128.304L150.356 138.062C148.031 138.673 145.654 138.944 143.256 138.874Z" fill="white"/>
</g>
<defs>
<clipPath id="clip0_2_4809">
<rect width="596.912" height="505.575" fill="white" transform="translate(0.769531 0.444824)"/>
</clipPath>
</defs>
</svg>
